<?xml version="1.0" encoding="utf-8"?>
<!-- Generator: Adobe Illustrator 21.1.0, SVG Export Plug-In . SVG Version: 6.00 Build 0)  -->
<svg version="1.1" id="Layer_1" xmlns="http://www.w3.org/2000/svg" xmlns:xlink="http://www.w3.org/1999/xlink" x="0px" y="0px"
	 viewBox="0 0 500 500" style="enable-background:new 0 0 500 500;" xml:space="preserve">
<style type="text/css">
	.st0{fill:#1B1464;}
	.st1{fill:#1B1464;stroke:#FFFFFF;stroke-width:12;stroke-miterlimit:10;}
	.st2{fill:#1B1464;stroke:#FFFFFF;stroke-width:12;stroke-linecap:round;stroke-linejoin:round;stroke-miterlimit:10;}
	.st3{fill:#FFFFFF;stroke:#1B1464;stroke-width:8;stroke-miterlimit:10;}
	.st4{fill:none;stroke:#1B1464;stroke-width:8;stroke-linecap:round;stroke-linejoin:round;stroke-miterlimit:10;}
</style>
<g>
	<path class="st0" d="M39.3,480.9L480.9,39.3c5.6-5.6,5.6-14.6,0-20.2l0,0c-5.6-5.6-14.6-5.6-20.2,0L19.1,460.7
		c-5.6,5.6-5.6,14.6,0,20.2l0,0C24.6,486.5,33.7,486.5,39.3,480.9z"/>
	
		<ellipse transform="matrix(0.2021 -0.9794 0.9794 0.2021 -236.1411 431.3331)" class="st1" cx="146.6" cy="360.6" rx="72.8" ry="72.8"/>
	<g>
		<polygon class="st2" points="164,356.7 133.9,246.9 202.7,165.8 237.8,276.7 		"/>
		<polygon class="st2" points="237.8,276.7 345.2,298.8 305.8,187.1 202.7,165.8 		"/>
		<polygon class="st2" points="164,356.7 237.8,276.7 345.2,298.8 262.7,377 		"/>
	</g>
	
		<ellipse transform="matrix(0.2021 -0.9794 0.9794 0.2021 106.0584 453.3686)" class="st1" cx="331.3" cy="161.6" rx="94.9" ry="94.9"/>
</g>
<g>
	<path class="st3" d="M232.1,413.6c9.6,68.7,81.1,66.6,81.1,66.6c201.8,6.2,165.4-261,165.4-261c-26,58.2-125.8,71.8-125.8,71.8
		S218.6,316.9,232.1,413.6z"/>
	<path class="st4" d="M286.2,431.3c0,0,121.7-37.4,162.2-136.2"/>
	<path class="st4" d="M349.6,401.7c0,0-19.7-24.5-7.2-56.8"/>
	<path class="st4" d="M394.5,368.9c0,0,23.8,5.2,45.6-5.8"/>
</g>
</svg>
