<?xml version="1.0" encoding="utf-8"?>
<!-- Generator: Adobe Illustrator 21.1.0, SVG Export Plug-In . SVG Version: 6.00 Build 0)  -->
<svg version="1.1" id="Layer_1" xmlns="http://www.w3.org/2000/svg" xmlns:xlink="http://www.w3.org/1999/xlink" x="0px" y="0px"
	 viewBox="0 0 875 500" style="enable-background:new 0 0 875 500;" xml:space="preserve">
<style type="text/css">
	.st0{fill:#1B1464;}
	.st1{fill:#1B1464;stroke:#FFFFFF;stroke-width:12;stroke-miterlimit:10;}
	.st2{fill:#1B1464;stroke:#FFFFFF;stroke-width:12;stroke-linecap:round;stroke-linejoin:round;stroke-miterlimit:10;}
	.st3{fill:#FFFFFF;stroke:#1B1464;stroke-width:8;stroke-miterlimit:10;}
	.st4{fill:none;stroke:#1B1464;stroke-width:8;stroke-linecap:round;stroke-linejoin:round;stroke-miterlimit:10;}
</style>
<g>
	<path class="st0" d="M226.8,480.9L668.4,39.3c5.6-5.6,5.6-14.6,0-20.2v0c-5.6-5.6-14.6-5.6-20.2,0L206.6,460.7
		c-5.6,5.6-5.6,14.6,0,20.2l0,0C212.1,486.5,221.2,486.5,226.8,480.9z"/>
	
		<ellipse transform="matrix(0.2021 -0.9794 0.9794 0.2021 -86.5276 614.9655)" class="st1" cx="334.1" cy="360.6" rx="72.8" ry="72.8"/>
	<g>
		<polygon class="st2" points="351.5,356.7 321.4,246.9 390.2,165.8 425.3,276.7 		"/>
		<polygon class="st2" points="425.3,276.7 532.7,298.8 493.3,187.1 390.2,165.8 		"/>
		<polygon class="st2" points="351.5,356.7 425.3,276.7 532.7,298.8 450.2,377 		"/>
	</g>
	
		<ellipse transform="matrix(0.2021 -0.9794 0.9794 0.2021 255.6719 637.001)" class="st1" cx="518.8" cy="161.6" rx="94.9" ry="94.9"/>
</g>
<g>
	<path class="st3" d="M419.6,413.6c9.6,68.7,81.1,66.6,81.1,66.6c201.8,6.2,165.4-261,165.4-261c-26,58.2-125.8,71.8-125.8,71.8
		S406.1,316.9,419.6,413.6z"/>
	<path class="st4" d="M473.7,431.3c0,0,121.7-37.4,162.2-136.2"/>
	<path class="st4" d="M537.1,401.7c0,0-19.7-24.5-7.2-56.8"/>
	<path class="st4" d="M582,368.9c0,0,23.8,5.2,45.6-5.8"/>
</g>
</svg>
