<?xml version="1.0" encoding="utf-8"?>
<!-- Generator: Adobe Illustrator 21.1.0, SVG Export Plug-In . SVG Version: 6.00 Build 0)  -->
<svg version="1.1" id="Layer_1" xmlns="http://www.w3.org/2000/svg" xmlns:xlink="http://www.w3.org/1999/xlink" x="0px" y="0px"
	 viewBox="0 0 875 500" style="enable-background:new 0 0 875 500;" xml:space="preserve">
<style type="text/css">
	.st0{fill:#1B1464;}
	.st1{fill:#1B1464;stroke:#FFFFFF;stroke-width:12;stroke-miterlimit:10;}
	.st2{fill:#1B1464;stroke:#FFFFFF;stroke-width:12;stroke-linecap:round;stroke-linejoin:round;stroke-miterlimit:10;}
	.st3{fill:#FFFFFF;stroke:#1B1464;stroke-width:8;stroke-miterlimit:10;}
</style>
<g>
	<path class="st0" d="M226.8,480.9L668.4,39.3c5.6-5.6,5.6-14.6,0-20.2v0c-5.6-5.6-14.6-5.6-20.2,0L206.6,460.7
		c-5.6,5.6-5.6,14.6,0,20.2l0,0C212.1,486.5,221.2,486.5,226.8,480.9z"/>
	
		<ellipse transform="matrix(0.2021 -0.9794 0.9794 0.2021 -86.5276 614.9655)" class="st1" cx="334.1" cy="360.6" rx="72.8" ry="72.8"/>
	<g>
		<polygon class="st2" points="351.5,356.7 321.4,246.9 390.2,165.8 425.3,276.7 		"/>
		<polygon class="st2" points="425.3,276.7 532.7,298.8 493.3,187.1 390.2,165.8 		"/>
		<polygon class="st2" points="351.5,356.7 425.3,276.7 532.7,298.8 450.2,377 		"/>
	</g>
	
		<ellipse transform="matrix(0.2021 -0.9794 0.9794 0.2021 255.6719 637.001)" class="st1" cx="518.8" cy="161.6" rx="94.9" ry="94.9"/>
</g>
<g>
	<path class="st3" d="M515.2,272c0,0,18.6-47,72.2-40.9c53.6,6.1,67.5,34.2,67.5,34.2s28.4,33.6,1.7,83.2c0,0-17.4,32.2-73.6,44.6
		s-69.9,23.2-69.9,23.2s-16.5,10.7-15.4,31.3c1.2,21.2-7.2,26.1-7.2,26.1s-30.7,23.8-44.6-17.4c0,0-32.5-0.3-27.3-34.5
		c0,0,6.7-22.9,31.3-16.5c0,0,20.6,10.7,29.3-19.4C488,355.8,507,285.9,515.2,272z"/>
	<path class="st0" d="M532.3,286.8c0,0,15.9-43.8,74.2-33c0,0-45.1,4-73.3,32.3"/>
</g>
</svg>
