<?xml version="1.0" encoding="utf-8"?>
<!-- Generator: Adobe Illustrator 21.1.0, SVG Export Plug-In . SVG Version: 6.00 Build 0)  -->
<svg version="1.1" id="Layer_1" xmlns="http://www.w3.org/2000/svg" xmlns:xlink="http://www.w3.org/1999/xlink" x="0px" y="0px"
	 viewBox="0 0 500 500" style="enable-background:new 0 0 500 500;" xml:space="preserve">
<style type="text/css">
	.st0{fill:#1B1464;}
	.st1{fill:#FFFFFF;stroke:#1B1464;stroke-width:3;stroke-miterlimit:10;}
	.st2{fill:#FFFFFF;}
	.st3{fill:#1B1464;stroke:#FFFFFF;stroke-width:2;stroke-miterlimit:10;}
</style>
<g>
	<path class="st0" d="M458.5,362.1L48.4,155.9c-0.9-0.5-1.3-1.6-0.8-2.5l7.4-14.8c0.5-0.9,1.6-1.3,2.5-0.8l410.2,206.2
		c0.9,0.5,1.3,1.6,0.8,2.5l-7.4,14.8C460.6,362.2,459.4,362.6,458.5,362.1z"/>
	
		<ellipse transform="matrix(0.9494 -0.3142 0.3142 0.9494 -77.0465 130.3229)" class="st1" cx="365.8" cy="304.2" rx="50.1" ry="50.1"/>
	
		<ellipse transform="matrix(0.9494 -0.3142 0.3142 0.9494 -53.9171 57.1113)" class="st1" cx="150.2" cy="195.8" rx="50.1" ry="50.1"/>
	
		<rect x="210.5" y="203" transform="matrix(-0.4491 0.8935 -0.8935 -0.4491 595.5773 131.9209)" class="st0" width="93.2" height="93.2"/>
</g>
<g>
	<path class="st3" d="M355.4,232.4c0,0,14.8-37.4,57.4-32.5s53.7,27.2,53.7,27.2s22.6,26.8,1.4,66.2c0,0-13.8,25.6-58.6,35.5
		c-44.7,9.9-55.6,18.4-55.6,18.4s-13.1,8.6-12.2,24.9c0.9,16.8-5.8,20.8-5.8,20.8s-24.4,18.9-35.5-13.8c0,0-25.8-0.2-21.7-27.4
		c0,0,5.3-18.2,24.9-13.1c0,0,16.4,8.5,23.3-15.5C333.7,299,348.9,243.4,355.4,232.4z"/>
	<path class="st2" d="M369,244.2c0,0,12.7-34.8,59-26.3c0,0-35.9,3.2-58.3,25.7"/>
</g>
</svg>
