<svg id="Layer_1" data-name="Layer 1" xmlns="http://www.w3.org/2000/svg" viewBox="0 0 500 500"><defs><style>.cls-1{fill:#1b1464;}.cls-2{fill:#fff;}</style></defs><title>carnivore</title><path class="cls-1" d="M195.423,86.426s36.3-91.893,141.242-79.981S468.832,73.379,468.832,73.379s55.589,65.8,3.4,162.8c0,0-34.034,62.963-144.079,87.355s-136.7,45.379-136.7,45.379-32.268,21.032-30.064,61.262c2.269,41.408-14.181,51.051-14.181,51.051S87.08,527.737,59.853,447.189c0,0-63.531-.567-53.32-67.5,0,0,13.046-44.812,61.262-32.333,0,0,40.274,20.988,57.291-38S179.4,113.549,195.423,86.426Z"/><path class="cls-2" d="M228.939,115.454s31.2-85.653,145.213-64.665c0,0-88.3,7.752-143.511,63.153"/></svg>