<svg id="Layer_1" data-name="Layer 1" xmlns="http://www.w3.org/2000/svg" viewBox="0 0 500 500"><defs><style>.cls-1{fill:#fff;}.cls-2{fill:#1b1464;}</style></defs><title>dessert</title><path class="cls-1" d="M19.181,120.724S7.753,55.205,324.683,10.256c0,0,29.712-2.286,41.9,18.284S474.767,197.671,474.767,197.671s5.333,6.095,6.095,28.95V482.6s1.465,12.494-34.283,4.571c-38.08-8.439-410.637-99.041-410.637-99.041S19.078,384.324,19.129,350.8Z"/><path class="cls-2" d="M466.388,496.786a100.988,100.988,0,0,1-21.323-2.778c-37.713-8.358-407.05-98.166-410.777-99.072h0c-1.9-.476-22.217-6.465-22.159-44.143l.052-229.7c-.217-2.593.023-9.671,6.979-19.24,11.929-16.408,37.2-32.084,75.11-46.593C147.686,34.813,224.877,17.341,323.7,3.326l.446-.049c1.394-.106,34.217-2.342,48.462,21.695,11.729,19.795,103.124,161.292,107.856,168.617,1.993,2.621,6.669,11.041,7.395,32.8l0,.233V482.36a12.125,12.125,0,0,1-4.191,9.432C479.982,495.123,474.265,496.786,466.388,496.786ZM26.136,119.721l.232.779-.187.226-.052,230.079c-.042,26.727,11.241,30.476,11.355,30.5l.112.026c3.725.906,372.923,90.68,410.5,99.008,18.09,4.008,24.233,2.065,25.769,1.313V226.738c-.584-17.114-3.856-23.489-4.5-24.582l-.52-.478.043-.208c-3.923-6.07-96.207-148.91-108.326-169.361-9.414-15.885-32.848-15.015-35.161-14.885C35.269,58.409,26.38,115.869,26.136,119.721ZM469.5,202.281h0ZM26.077,119.522Z"/><path class="cls-2" d="M75.04,139.451,430.452,228.3a11.233,11.233,0,0,1,8.508,10.9V302.19A11.233,11.233,0,0,1,425.045,313.1L69.633,225.677a11.233,11.233,0,0,1-8.55-10.907V150.348A11.233,11.233,0,0,1,75.04,139.451Z"/><path class="cls-2" d="M75.059,267.446l355.382,88.845a11.248,11.248,0,0,1,8.52,10.912v63.663a11.248,11.248,0,0,1-13.976,10.912L69.6,352.933a11.248,11.248,0,0,1-8.52-10.912V278.358A11.248,11.248,0,0,1,75.059,267.446Z"/></svg>