<?xml version="1.0" encoding="utf-8"?>
<!-- Generator: Adobe Illustrator 21.1.0, SVG Export Plug-In . SVG Version: 6.00 Build 0)  -->
<svg version="1.1" id="Layer_1" xmlns="http://www.w3.org/2000/svg" xmlns:xlink="http://www.w3.org/1999/xlink" x="0px" y="0px"
	 viewBox="0 0 875 500" style="enable-background:new 0 0 875 500;" xml:space="preserve">
<style type="text/css">
	.st0{fill:#1B1464;}
	.st1{fill:#FFFFFF;}
	.st2{fill:#FFFFFF;stroke:#1B1464;stroke-width:8;stroke-miterlimit:10;}
</style>
<g>
	<path class="st0" d="M199.7,116.8c0,0-11.8-67.5,314.8-113.8c0,0,30.6-2.4,43.2,18.8C570.2,43,669.1,196.1,669.1,196.1
		s5.5,6.3,6.3,29.8v263.7c0,0,1.5,12.9-35.3,4.7c-39.2-8.7-423.1-102-423.1-102s-17.4-3.9-17.3-38.5L199.7,116.8z"/>
	<g>
		<path class="st1" d="M262.5,139.5L618,228.3c5,1.3,8.5,5.7,8.5,10.9v63c0,7.3-6.8,12.6-13.9,10.9l-355.4-87.4
			c-5-1.2-8.5-5.7-8.5-10.9v-64.4C248.6,143,255.5,137.7,262.5,139.5z"/>
	</g>
	<g>
		<path class="st1" d="M262.6,267.4l355.4,88.8c5,1.3,8.5,5.8,8.5,10.9v63.7c0,7.3-6.9,12.7-14,10.9l-355.4-88.8
			c-5-1.3-8.5-5.8-8.5-10.9v-63.7C248.6,271,255.5,265.7,262.6,267.4z"/>
	</g>
</g>
<g>
	<path class="st2" d="M518.5,284.5c0,0,18.6-47,72.2-40.9c53.6,6.1,67.5,34.2,67.5,34.2s28.4,33.6,1.7,83.2c0,0-17.4,32.2-73.6,44.6
		c-56.2,12.5-69.9,23.2-69.9,23.2s-16.5,10.7-15.4,31.3c1.2,21.2-7.2,26.1-7.2,26.1s-30.7,23.8-44.6-17.4c0,0-32.5-0.3-27.3-34.5
		c0,0,6.7-22.9,31.3-16.5c0,0,20.6,10.7,29.3-19.4C491.2,368.3,510.3,298.3,518.5,284.5z"/>
	<path class="st0" d="M535.6,299.3c0,0,15.9-43.8,74.2-33c0,0-45.1,4-73.3,32.3"/>
</g>
</svg>
