<svg id="Layer_1" data-name="Layer 1" xmlns="http://www.w3.org/2000/svg" viewBox="0 0 500 500"><defs><style>.cls-1{fill:#fff;stroke:#1b1464;stroke-miterlimit:10;stroke-width:14px;}.cls-2{fill:#1b1464;}</style></defs><title>dessert</title><path class="cls-1" d="M19.181,121.248S7.753,55.729,324.683,10.78c0,0,29.712-2.286,41.9,18.284S474.767,198.2,474.767,198.2s5.333,6.095,6.095,28.95V483.127s1.465,12.494-34.283,4.571c-38.08-8.439-410.637-99.041-410.637-99.041s-16.864-3.809-16.812-37.331Z"/><path class="cls-2" d="M75.04,139.975l355.413,88.853a11.233,11.233,0,0,1,8.508,10.9v62.989a11.233,11.233,0,0,1-13.915,10.907L69.633,226.2a11.233,11.233,0,0,1-8.55-10.907V150.872A11.233,11.233,0,0,1,75.04,139.975Z"/><path class="cls-2" d="M75.059,267.97l355.382,88.845a11.248,11.248,0,0,1,8.52,10.912V431.39A11.248,11.248,0,0,1,424.985,442.3L69.6,353.457a11.248,11.248,0,0,1-8.52-10.912V278.882A11.248,11.248,0,0,1,75.059,267.97Z"/></svg>