<?xml version="1.0" encoding="utf-8"?>
<!-- Generator: Adobe Illustrator 21.1.0, SVG Export Plug-In . SVG Version: 6.00 Build 0)  -->
<svg version="1.1" id="Layer_1" xmlns="http://www.w3.org/2000/svg" xmlns:xlink="http://www.w3.org/1999/xlink" x="0px" y="0px"
	 viewBox="0 0 875 500" style="enable-background:new 0 0 875 500;" xml:space="preserve">
<style type="text/css">
	.st0{fill:#1B1464;}
	.st1{fill:#FFFFFF;}
	.st2{fill:#FFFFFF;stroke:#1B1464;stroke-width:8;stroke-miterlimit:10;}
	.st3{fill:none;stroke:#1B1464;stroke-width:8;stroke-linecap:round;stroke-linejoin:round;stroke-miterlimit:10;}
</style>
<g>
	<path class="st0" d="M199.7,116.8c0,0-11.8-67.5,314.8-113.8c0,0,30.6-2.4,43.2,18.8C570.2,43,669.1,196.1,669.1,196.1
		s5.5,6.3,6.3,29.8v263.7c0,0,1.5,12.9-35.3,4.7c-39.2-8.7-423.1-102-423.1-102s-17.4-3.9-17.3-38.5L199.7,116.8z"/>
	<g>
		<path class="st1" d="M262.5,139.5L618,228.3c5,1.3,8.5,5.7,8.5,10.9v63c0,7.3-6.8,12.6-13.9,10.9l-355.4-87.4
			c-5-1.2-8.5-5.7-8.5-10.9v-64.4C248.6,143,255.5,137.7,262.5,139.5z"/>
	</g>
	<g>
		<path class="st1" d="M262.6,267.4l355.4,88.8c5,1.3,8.5,5.8,8.5,10.9v63.7c0,7.3-6.9,12.7-14,10.9l-355.4-88.8
			c-5-1.3-8.5-5.8-8.5-10.9v-63.7C248.6,271,255.5,265.7,262.6,267.4z"/>
	</g>
</g>
<g>
	<path class="st2" d="M422,426.2c9.6,68.7,81.1,66.6,81.1,66.6c201.8,6.2,165.4-261,165.4-261c-26,58.2-125.8,71.8-125.8,71.8
		S408.5,329.5,422,426.2z"/>
	<path class="st3" d="M476.1,443.9c0,0,121.7-37.4,162.2-136.2"/>
	<path class="st3" d="M539.5,414.4c0,0-19.7-24.5-7.2-56.8"/>
	<path class="st3" d="M584.4,381.6c0,0,23.8,5.2,45.6-5.8"/>
</g>
</svg>
