<?xml version="1.0" encoding="utf-8"?>
<!-- Generator: Adobe Illustrator 21.1.0, SVG Export Plug-In . SVG Version: 6.00 Build 0)  -->
<svg version="1.1" id="Layer_1" xmlns="http://www.w3.org/2000/svg" xmlns:xlink="http://www.w3.org/1999/xlink" x="0px" y="0px"
	 viewBox="0 0 500 500" style="enable-background:new 0 0 500 500;" xml:space="preserve">
<style type="text/css">
	.st0{fill:#1B1464;}
	.st1{fill:#FFFFFF;stroke:#1B1464;stroke-width:8;stroke-miterlimit:10;}
</style>
<g>
	<g>
		<path class="st0" d="M260.5,476.3h-17V254.8L62.3,42.3c-5.8-7-12.9-17.4-8.5-26.8c3-6.4,10-8.7,15.1-8.7l362.3,0
			c5.2,0.1,12.3,2.6,15.2,9.2c4.7,10.6-5.6,22.5-9,26.4c-16.9,19.5-158.5,190.1-176.9,212.3V476.3z M75.4,31.4l176.6,207.1
			C282.5,201.7,408.3,50,424.5,31.3c3.1-3.6,4.6-6,5.3-7.5H70.2C70.9,25.3,72.4,27.8,75.4,31.4z"/>
	</g>
	<path class="st0" d="M317.5,492.7h-131c-6.9,0-12.5-5.6-12.5-12.5v0c0-6.9,5.6-12.5,12.5-12.5h131c6.9,0,12.5,5.6,12.5,12.5v0
		C330,487.1,324.4,492.7,317.5,492.7z"/>
	<polygon class="st0" points="251.5,81 355.5,81 303.5,143.3 251.5,205.6 199.5,143.3 147.5,81 	"/>
</g>
<g>
	<path class="st1" d="M290.2,279.6c0,0,18.6-47,72.2-40.9s67.5,34.2,67.5,34.2s28.4,33.6,1.7,83.2c0,0-17.4,32.2-73.6,44.6
		S288.1,424,288.1,424s-16.5,10.7-15.4,31.3c1.2,21.2-7.2,26.1-7.2,26.1s-30.7,23.8-44.6-17.4c0,0-32.5-0.3-27.3-34.5
		c0,0,6.7-22.9,31.3-16.5c0,0,20.6,10.7,29.3-19.4C262.9,363.4,282,293.5,290.2,279.6z"/>
	<path class="st0" d="M307.3,294.4c0,0,15.9-43.8,74.2-33c0,0-45.1,4-73.3,32.3"/>
</g>
</svg>
