<?xml version="1.0" encoding="utf-8"?>
<!-- Generator: Adobe Illustrator 21.1.0, SVG Export Plug-In . SVG Version: 6.00 Build 0)  -->
<svg version="1.1" id="Layer_1" xmlns="http://www.w3.org/2000/svg" xmlns:xlink="http://www.w3.org/1999/xlink" x="0px" y="0px"
	 viewBox="0 0 875 500" style="enable-background:new 0 0 875 500;" xml:space="preserve">
<style type="text/css">
	.st0{fill:#1B1464;}
	.st1{fill:#FFFFFF;stroke:#1B1464;stroke-width:8;stroke-miterlimit:10;}
	.st2{fill:none;stroke:#1B1464;stroke-width:8;stroke-linecap:round;stroke-linejoin:round;stroke-miterlimit:10;}
</style>
<g>
	<g>
		<path class="st0" d="M448,476.3h-17V254.8L249.8,42.3c-5.8-7-12.9-17.4-8.5-26.8c3-6.4,10-8.7,15.1-8.7l362.3,0
			c5.2,0.1,12.3,2.6,15.2,9.2c4.7,10.6-5.6,22.5-9,26.4C608,61.9,466.4,232.5,448,254.7V476.3z M262.9,31.4l176.6,207.1
			C470,201.7,595.8,50,612,31.3c3.1-3.6,4.6-6,5.3-7.5H257.7C258.4,25.3,259.9,27.8,262.9,31.4z"/>
	</g>
	<path class="st0" d="M505,492.7H374c-6.9,0-12.5-5.6-12.5-12.5v0c0-6.9,5.6-12.5,12.5-12.5h131c6.9,0,12.5,5.6,12.5,12.5v0
		C517.5,487.1,511.9,492.7,505,492.7z"/>
	<polygon class="st0" points="439,81 543,81 491,143.3 439,205.6 387,143.3 335,81 	"/>
</g>
<g>
	<path class="st1" d="M381.8,421.3c9.6,68.7,81.1,66.6,81.1,66.6c201.8,6.2,165.4-261,165.4-261c-26,58.2-125.8,71.8-125.8,71.8
		S368.3,324.6,381.8,421.3z"/>
	<path class="st2" d="M435.9,439c0,0,121.7-37.4,162.2-136.2"/>
	<path class="st2" d="M499.3,409.4c0,0-19.7-24.5-7.2-56.8"/>
	<path class="st2" d="M544.2,376.6c0,0,23.8,5.2,45.6-5.8"/>
</g>
</svg>
