<svg id="Layer_1" data-name="Layer 1" xmlns="http://www.w3.org/2000/svg" viewBox="0 0 500 500"><defs><style>.cls-1{fill:#1b1464;}</style></defs><title>drink</title><path class="cls-1" d="M260.526,476.322h-17V254.809L62.291,42.252c-5.778-7-12.946-17.4-8.5-26.825,3.015-6.4,10-8.667,15.061-8.667l362.346,0c5.183.14,12.263,2.633,15.16,9.2,4.7,10.642-5.581,22.531-8.958,26.437C420.515,61.927,278.94,232.548,260.526,254.743ZM75.361,31.38,251.938,238.472c30.55-36.821,156.382-188.433,172.6-207.189a36.984,36.984,0,0,0,5.335-7.523H70.178A39.048,39.048,0,0,0,75.361,31.38Z"/><rect class="cls-1" x="174.005" y="467.74" width="156.041" height="25" rx="12.5" ry="12.5"/><polygon class="cls-1" points="251.474 80.986 355.488 80.986 303.481 143.278 251.474 205.571 199.467 143.278 147.46 80.986 251.474 80.986"/></svg>