<?xml version="1.0" encoding="utf-8"?>
<!-- Generator: Adobe Illustrator 21.1.0, SVG Export Plug-In . SVG Version: 6.00 Build 0)  -->
<svg version="1.1" id="Layer_1" xmlns="http://www.w3.org/2000/svg" xmlns:xlink="http://www.w3.org/1999/xlink" x="0px" y="0px"
	 viewBox="0 0 875.6 500" style="enable-background:new 0 0 875.6 500;" xml:space="preserve">
<style type="text/css">
	.st0{fill:#1B1464;}
	.st1{fill:#FFFFFF;}
	.st2{fill:#1B1464;stroke:#FFFFFF;stroke-width:10;stroke-miterlimit:10;}
	.st3{fill:none;stroke:#FFFFFF;stroke-width:14;stroke-miterlimit:10;}
	.st4{fill:#FFFFFF;stroke:#1B1464;stroke-width:8;stroke-miterlimit:10;}
</style>
<g>
	<path class="st0" d="M792.1,449c0-192.3-158.7-348.2-354.4-348.2S83.4,256.7,83.4,449H792.1z"/>
	<path class="st1" d="M238.7,232.9c-82.4,63.3-81.5,173.4-81.5,173.4h225.2c0,0-108.9-18.9-205.4-18.9c0,0,0.1-50.2,60.1-150.8"/>
	<circle class="st2" cx="437.8" cy="63" r="54.5"/>
	<path class="st1" d="M443.1,102.4c0,0-37.1,2-44.8-44.8c0,0,13.6,27.4,44.6,44.6"/>
	<path class="st0" d="M34.9,495.5h805.8c13.1,0,23.8-10.7,23.8-23.8v0c0-13.1-10.7-23.8-23.8-23.8H34.9c-13.1,0-23.8,10.7-23.8,23.8
		v0C11,484.7,21.8,495.5,34.9,495.5z"/>
	<line class="st3" x1="82.5" y1="440.6" x2="793.1" y2="440.6"/>
</g>
<g>
	<path class="st4" d="M678.1,240.1c0,0,22.3-56.4,86.6-49.1s81.1,41.1,81.1,41.1s34.1,40.4,2.1,99.8c0,0-20.9,38.6-88.4,53.6
		s-83.8,27.8-83.8,27.8s-19.8,12.9-18.4,37.6c1.4,25.4-8.7,31.3-8.7,31.3s-36.9,28.5-53.6-20.9c0,0-39-0.3-32.7-41.4
		c0,0,8-27.5,37.6-19.8c0,0,24.7,12.9,35.1-23.3S668.2,256.8,678.1,240.1z"/>
	<path class="st0" d="M698.6,257.9c0,0,19.1-52.5,89.1-39.7c0,0-54.2,4.8-88,38.7"/>
</g>
</svg>
