<?xml version="1.0" encoding="utf-8"?>
<!-- Generator: Adobe Illustrator 21.1.0, SVG Export Plug-In . SVG Version: 6.00 Build 0)  -->
<svg version="1.1" id="Layer_1" xmlns="http://www.w3.org/2000/svg" xmlns:xlink="http://www.w3.org/1999/xlink" x="0px" y="0px"
	 viewBox="0 0 875.6 500" style="enable-background:new 0 0 875.6 500;" xml:space="preserve">
<style type="text/css">
	.st0{fill:#1B1464;}
	.st1{fill:#FFFFFF;}
	.st2{fill:#1B1464;stroke:#FFFFFF;stroke-width:10;stroke-miterlimit:10;}
	.st3{fill:none;stroke:#FFFFFF;stroke-width:14;stroke-miterlimit:10;}
	.st4{fill:#FFFFFF;stroke:#1B1464;stroke-width:8;stroke-miterlimit:10;}
	.st5{fill:none;stroke:#1B1464;stroke-width:8;stroke-linecap:round;stroke-linejoin:round;stroke-miterlimit:10;}
</style>
<g>
	<path class="st0" d="M792.1,449c0-192.3-158.7-348.2-354.4-348.2S83.4,256.7,83.4,449H792.1z"/>
	<path class="st1" d="M238.7,232.9c-82.4,63.3-81.5,173.4-81.5,173.4h225.2c0,0-108.9-18.9-205.4-18.9c0,0,0.1-50.2,60.1-150.8"/>
	<circle class="st2" cx="437.8" cy="63" r="54.5"/>
	<path class="st1" d="M443.1,102.4c0,0-37.1,2-44.8-44.8c0,0,13.6,27.4,44.6,44.6"/>
	<path class="st0" d="M34.9,495.5h805.8c13.1,0,23.8-10.7,23.8-23.8v0c0-13.1-10.7-23.8-23.8-23.8H34.9c-13.1,0-23.8,10.7-23.8,23.8
		v0C11,484.7,21.8,495.5,34.9,495.5z"/>
	<line class="st3" x1="82.5" y1="440.6" x2="793.1" y2="440.6"/>
</g>
<g>
	<path class="st4" d="M611.5,423.6c9.6,68.7,81.1,66.6,81.1,66.6c201.8,6.2,165.4-261,165.4-261c-26,58.2-125.8,71.8-125.8,71.8
		S598,326.9,611.5,423.6z"/>
	<path class="st5" d="M665.6,441.3c0,0,121.7-37.4,162.2-136.2"/>
	<path class="st5" d="M728.9,411.7c0,0-19.7-24.5-7.2-56.8"/>
	<path class="st5" d="M773.9,378.9c0,0,23.8,5.2,45.6-5.8"/>
</g>
</svg>
