<?xml version="1.0" encoding="utf-8"?>
<!-- Generator: Adobe Illustrator 21.1.0, SVG Export Plug-In . SVG Version: 6.00 Build 0)  -->
<svg version="1.1" id="Layer_1" xmlns="http://www.w3.org/2000/svg" xmlns:xlink="http://www.w3.org/1999/xlink" x="0px" y="0px"
	 viewBox="0 0 875.6 500" style="enable-background:new 0 0 875.6 500;" xml:space="preserve">
<style type="text/css">
	.st0{fill:#1B1464;}
	.st1{fill:#FFFFFF;}
	.st2{fill:#1B1464;stroke:#FFFFFF;stroke-width:10;stroke-miterlimit:10;}
	.st3{fill:none;stroke:#FFFFFF;stroke-width:14;stroke-miterlimit:10;}
</style>
<path class="st0" d="M792.4,449c0-192.3-158.7-348.2-354.4-348.2S83.6,256.7,83.6,449H792.4z"/>
<path class="st1" d="M238.9,232.9c-82.4,63.3-81.5,173.4-81.5,173.4h225.2c0,0-108.9-18.9-205.4-18.9c0,0,0.1-50.2,60.1-150.8"/>
<circle class="st2" cx="438" cy="63" r="54.5"/>
<path class="st1" d="M443.3,102.4c0,0-37.1,2-44.8-44.8c0,0,13.6,27.4,44.6,44.6"/>
<path class="st0" d="M35.1,495.5h805.8c13.1,0,23.8-10.7,23.8-23.8v0c0-13.1-10.7-23.8-23.8-23.8H35.1c-13.1,0-23.8,10.7-23.8,23.8
	v0C11.3,484.7,22,495.5,35.1,495.5z"/>
<line class="st3" x1="82.7" y1="440.6" x2="793.4" y2="440.6"/>
</svg>
