<?xml version="1.0" encoding="utf-8"?>
<!-- Generator: Adobe Illustrator 21.1.0, SVG Export Plug-In . SVG Version: 6.00 Build 0)  -->
<svg version="1.1" id="Layer_1" xmlns="http://www.w3.org/2000/svg" xmlns:xlink="http://www.w3.org/1999/xlink" x="0px" y="0px"
	 viewBox="0 0 500 500" style="enable-background:new 0 0 500 500;" xml:space="preserve">
<style type="text/css">
	.st0{fill:#1B1464;}
	.st1{fill:#FFFFFF;stroke:#1B1464;stroke-width:3.5;stroke-miterlimit:10;}
	.st2{fill:#1B1464;stroke:#FFFFFF;stroke-miterlimit:10;}
	.st3{fill:#FFFFFF;}
</style>
<g>
	<path class="st0" d="M8.4,367.8h483.2c1.3,0,2.3-1,2.3-2.3v-22.6c0-1.3-1-2.3-2.3-2.3H8.4c-1.3,0-2.3,1-2.3,2.3l0,22.6
		C6.1,366.7,7.1,367.8,8.4,367.8z"/>
	<path class="st1" d="M452.5,354.2c0-111.9-90.7-202.5-202.5-202.5S47.5,242.3,47.5,354.2H452.5z"/>
	<path class="st0" d="M136.2,227.2c-47.1,36.2-46.6,99.1-46.6,99.1h128.7c0,0-62.3-10.8-117.4-10.8c0,0,0.1-28.7,34.4-86.2"/>
	<circle class="st2" cx="250" cy="130" r="31.2"/>
	<path class="st3" d="M250,155.6c0,0-21.2,1.1-25.6-25.6C224.4,130,232.2,145.7,250,155.6"/>
</g>
<g>
	<path class="st0" d="M355.4,232.4c0,0,14.8-37.4,57.4-32.5s53.7,27.2,53.7,27.2s22.6,26.8,1.4,66.2c0,0-13.8,25.6-58.6,35.5
		c-44.7,9.9-55.6,18.4-55.6,18.4s-13.1,8.6-12.2,24.9c0.9,16.8-5.8,20.8-5.8,20.8s-24.4,18.9-35.5-13.8c0,0-25.8-0.2-21.7-27.4
		c0,0,5.3-18.2,24.9-13.1c0,0,16.4,8.5,23.3-15.5C333.7,299,348.9,243.4,355.4,232.4z"/>
	<path class="st3" d="M369,244.2c0,0,12.7-34.8,59-26.3c0,0-35.9,3.2-58.3,25.7"/>
</g>
</svg>
