<svg id="Layer_1" data-name="Layer 1" xmlns="http://www.w3.org/2000/svg" xmlns:xlink="http://www.w3.org/1999/xlink" viewBox="0 0 500 500"><defs><style>.cls-1,.cls-18,.cls-25,.cls-27{fill:none;}.cls-2{fill:url(#radial-gradient);}.cls-3{fill:url(#radial-gradient-2);}.cls-4{fill:url(#radial-gradient-3);}.cls-5{fill:url(#radial-gradient-4);}.cls-6{fill:url(#radial-gradient-5);}.cls-7{fill:url(#radial-gradient-6);}.cls-8{clip-path:url(#clip-path);}.cls-9{fill:url(#radial-gradient-7);}.cls-10{fill:url(#radial-gradient-8);}.cls-11{clip-path:url(#clip-path-2);}.cls-12{fill:url(#radial-gradient-9);}.cls-13{fill:url(#radial-gradient-10);}.cls-14{fill:url(#radial-gradient-11);}.cls-15{fill:url(#radial-gradient-12);}.cls-16{clip-path:url(#clip-path-3);}.cls-17{fill:url(#radial-gradient-14);}.cls-18{stroke:#581274;}.cls-18,.cls-25,.cls-27{stroke-linecap:round;stroke-miterlimit:10;}.cls-18,.cls-27{stroke-width:2px;}.cls-19{fill:url(#radial-gradient-15);}.cls-20{clip-path:url(#clip-path-4);}.cls-21{fill:url(#radial-gradient-17);}.cls-22{fill:url(#radial-gradient-18);}.cls-23{fill:url(#radial-gradient-19);}.cls-24{fill:url(#radial-gradient-20);}.cls-25{stroke:#1b1464;stroke-width:3px;}.cls-26{fill:url(#radial-gradient-21);}.cls-27{stroke:#f50;}.cls-28{fill:url(#radial-gradient-22);}.cls-29{fill:url(#radial-gradient-23);}.cls-30{fill:url(#radial-gradient-24);}.cls-31{fill:url(#radial-gradient-25);}.cls-32{fill:url(#radial-gradient-26);}.cls-33{fill:url(#radial-gradient-27);}.cls-34{fill:url(#radial-gradient-28);}.cls-35{fill:url(#radial-gradient-29);}.cls-36{fill:url(#radial-gradient-30);}.cls-37{fill:url(#radial-gradient-31);}.cls-38{fill:url(#radial-gradient-32);}.cls-39{fill:url(#radial-gradient-33);}.cls-40{fill:url(#radial-gradient-34);}.cls-41{fill:url(#radial-gradient-35);}.cls-42{fill:url(#radial-gradient-36);}.cls-43{fill:url(#radial-gradient-37);}</style><radialGradient id="radial-gradient" cx="170.278" cy="90.942" r="218.474" gradientUnits="userSpaceOnUse"><stop offset="0" stop-color="aqua"/><stop offset="1" stop-color="#1b1464"/></radialGradient><radialGradient id="radial-gradient-2" cx="345.066" cy="64.98" r="91.22" gradientUnits="userSpaceOnUse"><stop offset="0" stop-color="#fec80e"/><stop offset="1" stop-color="#f50"/></radialGradient><radialGradient id="radial-gradient-3" cx="156.068" cy="133.814" r="81.85" gradientUnits="userSpaceOnUse"><stop offset="0" stop-color="#f0f"/><stop offset="1" stop-color="#581274"/></radialGradient><radialGradient id="radial-gradient-4" cx="129.151" cy="170.406" r="36.46" xlink:href="#radial-gradient-3"/><radialGradient id="radial-gradient-5" cx="232.004" cy="125.924" r="91.271" gradientUnits="userSpaceOnUse"><stop offset="0" stop-color="aqua"/><stop offset="0.124" stop-color="#19e6ff"/><stop offset="0.386" stop-color="#58a7ff"/><stop offset="0.763" stop-color="#bc43ff"/><stop offset="1" stop-color="#f0f"/></radialGradient><radialGradient id="radial-gradient-6" cx="141.281" cy="269.999" r="329.84" xlink:href="#radial-gradient"/><clipPath id="clip-path"><path class="cls-1" d="M240.473,217s13.322,17.128,29.974-2.379,28.511-53.949,74.22-44.722c0,0,23.313,4.282,34.255,37.11"/></clipPath><radialGradient id="radial-gradient-7" cx="135.281" cy="253.999" r="329.84" xlink:href="#radial-gradient"/><radialGradient id="radial-gradient-8" cx="183.389" cy="53.531" r="174.42" xlink:href="#radial-gradient-2"/><clipPath id="clip-path-2"><path class="cls-1" d="M185.516,225.286s-5.709,25.067-27.119,2.706S100.828,165.19,68,205.63c0,0-11.418,16.172-4.758,49.584"/></clipPath><radialGradient id="radial-gradient-9" cx="130.279" cy="254.999" r="329.84" xlink:href="#radial-gradient"/><radialGradient id="radial-gradient-10" cx="387.041" cy="107.875" r="63.031" xlink:href="#radial-gradient-3"/><radialGradient id="radial-gradient-11" cx="148.009" cy="113.751" r="41.36" xlink:href="#radial-gradient-2"/><radialGradient id="radial-gradient-12" cx="86.292" cy="189.323" r="263.161" xlink:href="#radial-gradient-3"/><clipPath id="clip-path-3"><path class="cls-1" d="M185.516,225.286s-5.709,25.067-27.119,2.706"/></clipPath><radialGradient id="radial-gradient-14" cx="147.026" cy="258.437" r="56.639" xlink:href="#radial-gradient-2"/><radialGradient id="radial-gradient-15" cx="284.904" cy="249.109" r="48.634" xlink:href="#radial-gradient-2"/><clipPath id="clip-path-4"><path class="cls-1" d="M240.473,217s13.322,17.128,29.974-2.379"/></clipPath><radialGradient id="radial-gradient-17" cx="339.237" cy="82.474" r="42.641" xlink:href="#radial-gradient-5"/><radialGradient id="radial-gradient-18" cx="376.192" cy="135.96" r="40.2" xlink:href="#radial-gradient-3"/><radialGradient id="radial-gradient-19" cx="112.243" cy="338.76" r="218.69" xlink:href="#radial-gradient-3"/><radialGradient id="radial-gradient-20" cx="355.595" cy="127.422" r="21.905" xlink:href="#radial-gradient-2"/><radialGradient id="radial-gradient-21" cx="363.173" cy="144.053" r="20.332" xlink:href="#radial-gradient-2"/><radialGradient id="radial-gradient-22" cx="233.017" cy="137.218" r="50.234" xlink:href="#radial-gradient-2"/><radialGradient id="radial-gradient-23" cx="246.479" cy="141.608" r="50.017" xlink:href="#radial-gradient-2"/><radialGradient id="radial-gradient-24" cx="255.969" cy="400.002" r="48.247" xlink:href="#radial-gradient-2"/><radialGradient id="radial-gradient-25" cx="305.405" cy="392.993" r="40.286" xlink:href="#radial-gradient-2"/><radialGradient id="radial-gradient-26" cx="339.656" cy="377.373" r="39.744" xlink:href="#radial-gradient-2"/><radialGradient id="radial-gradient-27" cx="382.285" cy="366.25" r="32.993" xlink:href="#radial-gradient-2"/><radialGradient id="radial-gradient-28" cx="189.724" cy="89.031" r="51.796" xlink:href="#radial-gradient-5"/><radialGradient id="radial-gradient-29" cx="240.341" cy="73.699" r="147.393" xlink:href="#radial-gradient-5"/><radialGradient id="radial-gradient-30" cx="412.306" cy="350.805" r="26.718" xlink:href="#radial-gradient-2"/><radialGradient id="radial-gradient-31" cx="216.281" cy="407.037" r="45.445" xlink:href="#radial-gradient-2"/><radialGradient id="radial-gradient-32" cx="437.021" cy="331.517" r="27.935" xlink:href="#radial-gradient-2"/><radialGradient id="radial-gradient-33" cx="176.252" cy="412.719" r="31.096" xlink:href="#radial-gradient-2"/><radialGradient id="radial-gradient-34" cx="138.913" cy="405.858" r="31.754" xlink:href="#radial-gradient-2"/><radialGradient id="radial-gradient-35" cx="101.422" cy="395.147" r="30.91" xlink:href="#radial-gradient-2"/><radialGradient id="radial-gradient-36" cx="70.617" cy="385.899" r="25.768" xlink:href="#radial-gradient-2"/><radialGradient id="radial-gradient-37" cx="49.672" cy="377.491" r="19.119" xlink:href="#radial-gradient-2"/></defs><title>cake</title><path class="cls-2" d="M36.248,211.567s4.692-24.782,32.287-35.249A80.667,80.667,0,0,0,91.372,159.19c10.467-11.418,39.013-30.925,55.189-30.925s125.6-96.581,125.6-96.581,126.335,20.5,157,127.506l-7.612,29.974L49.029,228.653Z"/><path class="cls-3" d="M332.588,88.3,373.98,38.344s5.709-5.709,12.846,0a102.142,102.142,0,0,1,13.322,13.322s9.991,9.991,0,20.934-45.2,54.238-45.2,54.238Z"/><polyline class="cls-4" points="129.629 170.271 224.112 111.613 238.861 134.45 148.184 189.164"/><path class="cls-5" d="M136.241,185.2l-15.847,8.091c-.952-23.468,18.555-27.915,18.555-27.915s20.044-2.871,16.176,14.749c-4.282,19.507-22.837,2.266-22.837,2.266"/><path class="cls-6" d="M201.751,142.221l163.506-11.833s-1.481-7.2-10.494-15.762L209.046,126.838A20.842,20.842,0,0,0,201.751,142.221Z"/><path class="cls-7" d="M36.248,211.567V491.306l407.67-52.838s35.207-11.894,12.37-62.8c0,0,18.555-36.634-3.806-68.987,0,0,19.982-40.44-5.233-77.551,0,0,20.934-45.2-18.079-69.938,0,0-18.079,21.41-75.647,16.652,0,0-29.5-7.612-51.383,5.709a61.226,61.226,0,0,1-43.771,7.612s-41.392-6.185-70.89,8.088-53.286,7.137-53.286,7.137-29.5-7.137-52.811,4.282A60.479,60.479,0,0,1,36.248,211.567Z"/><g class="cls-8"><path class="cls-9" d="M30.249,195.567V475.306l407.67-52.838s35.207-11.894,12.37-62.8c0,0,18.555-36.634-3.806-68.987,0,0,19.982-40.44-5.233-77.551,0,0,20.934-45.2-18.079-69.938,0,0-18.079,21.41-75.647,16.652,0,0-29.5-7.612-51.383,5.709a61.226,61.226,0,0,1-43.771,7.612s-41.392-6.185-70.89,8.088-53.286,7.137-53.286,7.137-29.5-7.137-52.811,4.282A60.479,60.479,0,0,1,30.249,195.567Z"/></g><path class="cls-10" d="M134.338,101.9,281.68,14.08s12.321-10.873,20.458,0c0,0,2.855,9.04,10.943,12.37,0,0,20.934,12.37,5.233,23.789s-71.841,48.529-71.841,48.529l-78.447,47.666"/><g class="cls-11"><path class="cls-12" d="M25.247,196.566V476.305l407.67-52.838s35.207-11.894,12.37-62.8c0,0,18.555-36.634-3.806-68.987,0,0,19.982-40.44-5.233-77.551,0,0,20.934-45.2-18.079-69.938,0,0-18.079,21.41-75.647,16.652,0,0-29.5-7.612-51.383,5.709a61.226,61.226,0,0,1-43.771,7.612s-41.392-6.185-70.89,8.088-53.286,7.137-53.286,7.137-29.5-7.137-52.811,4.282A60.479,60.479,0,0,1,25.247,196.566Z"/></g><path class="cls-13" d="M376.359,130.168l21.031-47.846s27.255-2.889,32.013,18.2L406.759,159.19"/><path class="cls-14" d="M147.513,111.613s-27.153,6.185-9.522,28.546c0,0,22.368,20.934,39.972-5.709,0,0,9.04-13.8-14.749-28.07,0,0-17.689-11.418-33.584-2.379l8.362,10.626Z"/><path class="cls-15" d="M36.248,228.653V334.4s70.824,14.749,108.886,2.379,56.141-16.176,74.7-13.8,38.049,1.234,50.907-7.137c21.092-13.731,68.511-6.185,68.511-6.185s25.216,5.418,47.577-8.472,34.731-6.277,34.731-6.277,3.33-38.41-2.379-53.634-4.282-47.828-4.282-47.828-34.731-1.9-54.714,7.612S324.5,221.04,282.156,217.234s-61.374,5.233-61.374,5.233-29.5,14.273-62.326,9.04a101.339,101.339,0,0,0-42.819,2.855C92.8,241.023,49.16,236.741,36.248,228.653Z"/><g class="cls-16"><path class="cls-12" d="M25.247,196.566V476.305l407.67-52.838s35.207-11.894,12.37-62.8c0,0,18.555-36.634-3.806-68.987,0,0,19.982-40.44-5.233-77.551,0,0,20.934-45.2-18.079-69.938,0,0-18.079,21.41-75.647,16.652,0,0-29.5-7.612-51.383,5.709a61.226,61.226,0,0,1-43.771,7.612s-41.392-6.185-70.89,8.088-53.286,7.137-53.286,7.137-29.5-7.137-52.811,4.282A60.479,60.479,0,0,1,25.247,196.566Z"/></g><path class="cls-17" d="M96.073,221.613s17.6-5.233,45.674,26.167c0,0,19.982,21.915,41.868,5.724,0,0-4.282,62.311-38.062,54.7,0,0-19.031,2.221-27.595-43.136S96.073,221.613,96.073,221.613Z"/><path class="cls-18" d="M132.288,182.39s18.555,17.24,22.837-2.266c3.868-17.62-16.176-14.749-16.176-14.749s-19.507,4.447-18.555,27.915"/><path class="cls-19" d="M318.024,245.353c0,32.535-14.273,42.819-14.273,42.819C269.02,310.058,249.989,252.5,249.989,252.5s26.131,14.866,47.1-18.57c0,0,16.772-24.478,33.78-26.643C330.87,207.291,318.024,217.758,318.024,245.353Z"/><g class="cls-20"><path class="cls-9" d="M30.249,195.567V475.306l407.67-52.838s35.207-11.894,12.37-62.8c0,0,18.555-36.634-3.806-68.987,0,0,19.982-40.44-5.233-77.551,0,0,20.934-45.2-18.079-69.938,0,0-18.079,21.41-75.647,16.652,0,0-29.5-7.612-51.383,5.709a61.226,61.226,0,0,1-43.771,7.612s-41.392-6.185-70.89,8.088-53.286,7.137-53.286,7.137-29.5-7.137-52.811,4.282A60.479,60.479,0,0,1,30.249,195.567Z"/></g><path class="cls-21" d="M366.257,132.388,345.684,72.495s-3.739-7.031-7.545-8.934l16.625,51.066S365.147,122.239,366.257,132.388Z"/><path class="cls-22" d="M374.009,160.384s31.371,18.49,35.653-13.951-24.74-22.185-24.74-22.185a14.775,14.775,0,0,0-9.991,7.665A26.809,26.809,0,0,0,374.009,160.384Z"/><path class="cls-23" d="M425.444,328.222s-11.856,38.086-7.061,62.222,12.6,22.555,12.054,49.77L36.248,491.306l-.087-130.087c19.572-.476,25.15.952,54.648,6.661s35.2,2.574,50.432-4.268c31.172-14,73.269-5.247,73.269-5.247s35.4,7.25,51.859-2.379c27.438-16.054,54.714-11.894,54.714-11.894s24.231,7.357,46.625-5.709c22.51-13.134,57.737-10.159,57.737-10.159"/><path class="cls-24" d="M380.433,146.433l-14.066-24.591s-2.83-5.237-6.423-3.806a52.038,52.038,0,0,0-12.132,6.212c-5.709,4.071-1.665,9.379-1.665,9.379l12.294,20.428"/><path class="cls-25" d="M240.473,217s13.322,17.128,29.974-2.379,28.511-53.949,74.22-44.722c0,0,23.313,4.282,34.255,37.11"/><path class="cls-25" d="M185.517,225.286s-5.709,25.067-27.119,2.706S98.75,165.2,68,205.631c0,0-12.752,16.174-4.758,49.584"/><path class="cls-26" d="M366.588,144.173l3.586-9.722c-7.612-3.33-13.991,4.52-13.991,4.52-5.9,12.608,8.52,20.22,8.52,20.22s16.878,5.959,16.88-7.751c0-14.61-15.658-6.522-15.658-6.522"/><path class="cls-27" d="M147.513,111.613s-27.153,6.185-9.522,28.546c0,0,22.368,20.934,39.972-5.709,0,0,9.04-13.8-14.749-28.07,0,0-17.689-11.418-33.584-2.379"/><path class="cls-18" d="M374.009,160.384s31.371,18.49,35.653-13.951-24.74-22.185-24.74-22.185a14.775,14.775,0,0,0-9.991,7.665"/><path class="cls-27" d="M365.925,144.917s15.66-8.088,15.658,6.522c0,13.71-16.88,7.751-16.88,7.751s-14.423-7.612-8.52-20.22c0,0,6.379-7.85,13.991-4.52"/><path class="cls-28" d="M216.638,133.626c-5.219,1.681-10.488,6.129-12.35,16.762a23.1,23.1,0,0,0,11.418,24.819l80.722-4.123-13.48-40.916Z"/><path class="cls-29" d="M216.638,133.627l66.311-3.459s0,13.416-5.392,17.809S270.9,158.368,272.8,165.2l-45.932-1.842s11.484-10.41,10.96-19.19C237.827,144.17,237.869,131.693,216.638,133.627Z"/><path class="cls-27" d="M226.491,163.36s23.629-19.19,2.755-29.733c0,0-20.834-6.789-24.957,16.762a23.1,23.1,0,0,0,11.418,24.819"/><path class="cls-30" d="M246.658,395.753l5.842,35.737s3.152,12.038,13.322,12.053a63.649,63.649,0,0,0,26.326-5.392s7.772-4.3,6.026-18.491S291.83,387.4,291.83,387.4,264.288,393.32,246.658,395.753Z"/><path class="cls-31" d="M331.478,376.3l6.661,26.96s4.441,15.225-8.564,19.348c-10.617,3.366-23.789,4.758-23.789,4.758a8.894,8.894,0,0,1-7.612-7.707c-1.032-7.027-6.344-32.258-6.344-32.258S320.445,380.6,331.478,376.3Z"/><path class="cls-32" d="M368.271,361.71l4.758,20.617s6.026,16.176-7.612,21.251-17.445,6.026-17.445,6.026-8.154.451-9.833-6.344l-6.661-26.96S362.244,364.881,368.271,361.71Z"/><path class="cls-33" d="M401.574,347.119l5.075,23.154s3.806,13.639-6.344,17.128-17.128,5.392-17.128,5.392-7,3.18-10.15-10.467l-4.758-20.617S392.376,351.877,401.574,347.119Z"/><path class="cls-34" d="M209.046,126.838l-17.128-49c-5.075,1.593-9.515,11.412-9.515,11.412l19.348,52.969S203.337,130.8,209.046,126.838Z"/><polygon class="cls-35" points="191.918 77.84 338.138 63.56 354.763 114.626 209.046 126.838 191.918 77.84"/><path class="cls-36" d="M401.574,347.119l28.863-15.542,4.361,21.885s2.934,10.785-7.215,16.654L416.8,374.08s-8.851,2.12-10.15-3.806Z"/><path class="cls-37" d="M199.848,399.636l2.537,33.756s.952,11.1,13.956,13.639,30.317-3.489,30.317-3.489,7.4-2.533,5.842-12.053l-5.842-35.737S208.729,399.5,199.848,399.636Z"/><path class="cls-38" d="M434.8,353.463l-4.361-21.885,26.63-17.121s13.6,20.747-4.427,34.566c0,0-5.8,4.278-11.64,5.644S434.8,353.463,434.8,353.463Z"/><path class="cls-39" d="M162.1,398.82v25.057s0,10.784,7.93,14.907,24.581,1.9,24.581,1.9,8.174-1.933,7.771-7.3l-2.537-33.756S169.4,399.771,162.1,398.82Z"/><path class="cls-40" d="M123.725,394.379v23.154s-.342,11.1,10.613,14.273a68.528,68.528,0,0,0,19.519,2.855s8.247-.634,8.247-10.784V398.82S129.434,395.965,123.725,394.379Z"/><path class="cls-41" d="M87.249,386.45v19.665s-1.586,10.43,6.344,13.937,19.982,5.094,19.982,5.094,10.15.952,10.15-7.612V394.379S95.178,389.622,87.249,386.45Z"/><path class="cls-42" d="M59.337,377.886v17.867s-.634,7.222,5.392,10.061,13,6.328,13,6.328,9.515,2.855,9.515-6.026V386.45S65.681,380.423,59.337,377.886Z"/><path class="cls-43" d="M59.337,395.753V377.886l-23.089-10.15s-2.286,20.308,7.229,25.379l10.15,5.705S59.337,400.932,59.337,395.753Z"/><line class="cls-27" x1="296.429" y1="171.084" x2="283.504" y2="132.627"/><path class="cls-27" d="M272.8,165.2c-1.487-7.014-1.3-11.7,4.758-17.225s5.392-17.809,5.392-17.809"/><path class="cls-25" d="M96.073,221.613s17.6-5.233,45.674,26.167c0,0,21.982,20.915,43.868,4.724"/><path class="cls-25" d="M247.989,252.5s28.131,14.866,49.1-18.57c0,0,17.772-24.478,34.78-26.643"/></svg>