<svg id="Layer_1" data-name="Layer 1" xmlns="http://www.w3.org/2000/svg" xmlns:xlink="http://www.w3.org/1999/xlink" viewBox="0 0 500 500"><defs><style>.cls-1,.cls-28{fill:none;}.cls-2{fill:url(#radial-gradient);}.cls-3{fill:url(#radial-gradient-2);}.cls-4{fill:url(#radial-gradient-3);}.cls-5{fill:url(#radial-gradient-4);}.cls-25,.cls-6{fill:url(#radial-gradient-5);}.cls-7{clip-path:url(#clip-path);}.cls-8{fill:url(#radial-gradient-6);}.cls-12,.cls-13,.cls-14,.cls-15,.cls-16,.cls-17,.cls-18,.cls-9{opacity:0.6;}.cls-9{fill:url(#radial-gradient-7);}.cls-10{clip-path:url(#clip-path-2);}.cls-11{fill:url(#radial-gradient-8);}.cls-12{fill:url(#radial-gradient-9);}.cls-13{fill:url(#radial-gradient-10);}.cls-14{fill:url(#radial-gradient-11);}.cls-15{fill:url(#radial-gradient-12);}.cls-16{fill:url(#radial-gradient-13);}.cls-17{fill:url(#radial-gradient-14);}.cls-18{fill:url(#radial-gradient-15);}.cls-19,.cls-20,.cls-21,.cls-22,.cls-23,.cls-24{opacity:0.5;}.cls-19{fill:url(#radial-gradient-16);}.cls-20{fill:url(#radial-gradient-17);}.cls-21{fill:url(#radial-gradient-18);}.cls-22{fill:url(#radial-gradient-19);}.cls-23{fill:url(#radial-gradient-20);}.cls-24{fill:url(#radial-gradient-21);}.cls-25{opacity:0.2;}.cls-26{fill:url(#radial-gradient-23);}.cls-27{fill:url(#radial-gradient-24);}.cls-28{stroke:#1b1464;stroke-linecap:round;stroke-miterlimit:10;stroke-width:2px;}.cls-29,.cls-30,.cls-31,.cls-32,.cls-33,.cls-34,.cls-35,.cls-36,.cls-37,.cls-39,.cls-40{opacity:0.8;}.cls-29{fill:url(#radial-gradient-25);}.cls-30{fill:url(#radial-gradient-26);}.cls-31{fill:url(#radial-gradient-27);}.cls-32{fill:url(#radial-gradient-28);}.cls-33{fill:url(#radial-gradient-29);}.cls-34{fill:url(#radial-gradient-30);}.cls-35{fill:url(#radial-gradient-31);}.cls-36{fill:url(#radial-gradient-32);}.cls-37{fill:url(#radial-gradient-33);}.cls-38{fill:url(#radial-gradient-34);}.cls-39{fill:url(#radial-gradient-35);}.cls-40{fill:url(#radial-gradient-36);}.cls-41{fill:url(#radial-gradient-37);}.cls-42{fill:url(#radial-gradient-38);}.cls-43{fill:url(#radial-gradient-39);}.cls-44{fill:url(#radial-gradient-40);}.cls-45{fill:url(#radial-gradient-41);}.cls-46{fill:url(#radial-gradient-42);}.cls-47{fill:url(#radial-gradient-43);}.cls-48{fill:url(#radial-gradient-44);}.cls-49{fill:url(#radial-gradient-45);}</style><radialGradient id="radial-gradient" cx="181.31" cy="91.576" r="53.598" gradientTransform="translate(15.271 -14.197) rotate(3.402)" gradientUnits="userSpaceOnUse"><stop offset="0" stop-color="#f0f"/><stop offset="1" stop-color="#1b1464"/></radialGradient><radialGradient id="radial-gradient-2" cx="232.791" cy="64.715" r="58.21" xlink:href="#radial-gradient"/><radialGradient id="radial-gradient-3" cx="307.942" cy="65.663" r="56.484" xlink:href="#radial-gradient"/><radialGradient id="radial-gradient-4" cx="239.206" cy="426.133" r="151.759" xlink:href="#radial-gradient"/><radialGradient id="radial-gradient-5" cx="120.974" cy="74.555" r="316.944" xlink:href="#radial-gradient"/><clipPath id="clip-path"><path class="cls-1" d="M150.753,73.471C145.76,57.116,158.3,46.85,158.3,46.85s26.3-21.836,53.057,10.5,27.171,9.874,27.171,9.874l2.626,15.037"/></clipPath><radialGradient id="radial-gradient-6" cx="121.219" cy="52.853" r="316.944" xlink:href="#radial-gradient"/><radialGradient id="radial-gradient-7" cx="181.31" cy="91.576" r="53.598" gradientTransform="translate(15.271 -14.197) rotate(3.402)" gradientUnits="userSpaceOnUse"><stop offset="0" stop-color="aqua"/><stop offset="1" stop-color="#1b1464"/></radialGradient><clipPath id="clip-path-2"><path class="cls-1" d="M365.468,73.32c-.456-23.2-18.78-31.4-18.78-31.4s-28-11.3-47.277,15.771S269.9,67.868,269.9,67.868l-.642,10.8"/></clipPath><radialGradient id="radial-gradient-8" cx="120.974" cy="52.555" r="316.944" xlink:href="#radial-gradient"/><radialGradient id="radial-gradient-9" cx="232.791" cy="64.715" r="58.21" xlink:href="#radial-gradient-7"/><radialGradient id="radial-gradient-10" cx="307.942" cy="65.663" r="56.484" xlink:href="#radial-gradient-7"/><radialGradient id="radial-gradient-11" cx="170.509" cy="175.474" r="47.006" xlink:href="#radial-gradient-7"/><radialGradient id="radial-gradient-12" cx="239.935" cy="149.217" r="46.551" xlink:href="#radial-gradient-7"/><radialGradient id="radial-gradient-13" cx="338.662" cy="141.044" r="40.386" xlink:href="#radial-gradient-7"/><radialGradient id="radial-gradient-14" cx="302.593" cy="206.493" r="53.849" xlink:href="#radial-gradient-7"/><radialGradient id="radial-gradient-15" cx="217.276" cy="215.042" r="52.925" xlink:href="#radial-gradient-7"/><radialGradient id="radial-gradient-16" cx="196.914" cy="291.272" r="40.681" xlink:href="#radial-gradient-7"/><radialGradient id="radial-gradient-17" cx="253.499" cy="310.196" r="50.68" xlink:href="#radial-gradient-7"/><radialGradient id="radial-gradient-18" cx="298.654" cy="292.408" r="43.599" xlink:href="#radial-gradient-7"/><radialGradient id="radial-gradient-19" cx="222.479" cy="362.176" r="45.171" xlink:href="#radial-gradient-7"/><radialGradient id="radial-gradient-20" cx="292.283" cy="369.552" r="49.723" xlink:href="#radial-gradient-7"/><radialGradient id="radial-gradient-21" cx="260.461" cy="423.819" r="46.964" xlink:href="#radial-gradient-7"/><radialGradient id="radial-gradient-23" cx="194.13" cy="106.087" r="36.648" gradientTransform="translate(15.271 -14.197) rotate(3.402)" gradientUnits="userSpaceOnUse"><stop offset="0" stop-color="#fec80e"/><stop offset="0.168" stop-color="#fec30d"/><stop offset="0.361" stop-color="#feb50c"/><stop offset="0.567" stop-color="#fe9e09"/><stop offset="0.781" stop-color="#ff7e05"/><stop offset="1" stop-color="#f50"/></radialGradient><radialGradient id="radial-gradient-24" cx="293.287" cy="99.062" r="36.859" xlink:href="#radial-gradient-23"/><radialGradient id="radial-gradient-25" cx="201.022" cy="173.192" r="6.892" gradientTransform="translate(378.853 -30.402) rotate(90)" gradientUnits="userSpaceOnUse"><stop offset="0" stop-color="#f0f"/><stop offset="1" stop-color="#581274"/></radialGradient><radialGradient id="radial-gradient-26" cx="231.703" cy="182.057" r="21.124" gradientTransform="translate(417.819 -50.413) rotate(90)" xlink:href="#radial-gradient-25"/><radialGradient id="radial-gradient-27" cx="330.806" cy="149.736" r="18.281" gradientTransform="translate(486.343 -175.899) rotate(90)" xlink:href="#radial-gradient-25"/><radialGradient id="radial-gradient-28" cx="298.585" cy="199.595" r="28.784" gradientTransform="translate(501.08 -95.819) rotate(90)" xlink:href="#radial-gradient-25"/><radialGradient id="radial-gradient-29" cx="344.373" cy="185.419" r="8.105" gradientTransform="translate(533.452 -153.04) rotate(90)" xlink:href="#radial-gradient-25"/><radialGradient id="radial-gradient-30" cx="327.369" cy="102.821" r="7.365" gradientTransform="translate(438.783 -219.498) rotate(90)" xlink:href="#radial-gradient-25"/><radialGradient id="radial-gradient-31" cx="274.812" cy="372.781" r="18.475" gradientTransform="translate(640.256 99.424) rotate(90)" xlink:href="#radial-gradient-25"/><radialGradient id="radial-gradient-32" cx="214.929" cy="335.687" r="13.907" gradientTransform="translate(545.587 118.724) rotate(90)" xlink:href="#radial-gradient-25"/><radialGradient id="radial-gradient-33" cx="235.939" cy="320.649" r="6.496" gradientTransform="translate(552.414 83.951) rotate(90)" xlink:href="#radial-gradient-25"/><radialGradient id="radial-gradient-34" cx="150.065" cy="252.718" r="15.94" xlink:href="#radial-gradient-23"/><radialGradient id="radial-gradient-35" cx="239.343" cy="367.373" r="5.408" gradientTransform="translate(599.763 127.39) rotate(90)" xlink:href="#radial-gradient-25"/><radialGradient id="radial-gradient-36" cx="233.458" cy="411.809" r="22.879" gradientTransform="translate(635.687 177.283) rotate(90)" xlink:href="#radial-gradient-25"/><radialGradient id="radial-gradient-37" cx="350.416" cy="228.746" r="17.499" xlink:href="#radial-gradient-23"/><radialGradient id="radial-gradient-38" cx="237.127" cy="263.142" r="27.472" xlink:href="#radial-gradient-23"/><radialGradient id="radial-gradient-39" cx="167.05" cy="256.493" r="19.821" xlink:href="#radial-gradient-23"/><radialGradient id="radial-gradient-40" cx="336.659" cy="236.367" r="18.839" xlink:href="#radial-gradient-23"/><radialGradient id="radial-gradient-41" cx="185.112" cy="261.328" r="22.142" xlink:href="#radial-gradient-23"/><radialGradient id="radial-gradient-42" cx="207.922" cy="261.239" r="27.224" xlink:href="#radial-gradient-23"/><radialGradient id="radial-gradient-43" cx="316.027" cy="243.658" r="21.329" xlink:href="#radial-gradient-23"/><radialGradient id="radial-gradient-44" cx="292.519" cy="251.013" r="27.276" xlink:href="#radial-gradient-23"/><radialGradient id="radial-gradient-45" cx="268.001" cy="259.777" r="27.808" xlink:href="#radial-gradient-23"/></defs><title>pop</title><path class="cls-2" d="M239.752,119.182c-8.656.791-15.317,6.091-22.964,9.574-1.092.5-2.205.958-3.324,1.371-12.195,2.024-23.232,8.25-35.693,9.917-1.172.262-2.342.477-3.517.643a40.57,40.57,0,0,1-17.685-1.348,6.353,6.353,0,0,1-2.13-1.343,4.434,4.434,0,0,1-1.219-2.163,92.3,92.3,0,0,0-3.6-9.591c-.441-1.03-.887-2.05-1.352-3.063a19.326,19.326,0,0,1-4-6.244,18.406,18.406,0,0,1-.964-3.4,39.235,39.235,0,0,1-.694-11.951c-10.786-27.708.1-59.117,30.172-66.213a53.712,53.712,0,0,1,10.943-.445,22.839,22.839,0,0,1,3.307.588,24.662,24.662,0,0,1,3.308,1.1c1.167.282,2.341.55,3.518.734a17.479,17.479,0,0,0,3.522.23c1.04,0,2.078-.006,3.113-.053a23.713,23.713,0,0,0,9.2-2.031,18.921,18.921,0,0,1,3.03-.566,12.648,12.648,0,0,1,8.982,2.434c5.282,3.755,4.511,10.936,6.176,16.815.2,1.021.407,2.035.616,3.043a63.688,63.688,0,0,0,4.44,14.6c.416,1.21.792,2.418,1.141,3.63,4.379,10.053,7.237,19.858,5.556,30.77a7.68,7.68,0,0,0,1.256,5.9c.316.692.667,1.374,1.06,2.048a7.786,7.786,0,0,1-.265,3.422A2.945,2.945,0,0,1,239.752,119.182Z"/><path class="cls-3" d="M302.533,68.391C296.6,74.5,290.044,80.651,284.273,86.705c-.931.858-1.859,1.683-2.739,2.555-.944.989-1.8,1.994-2.648,3-4.213,5.044-8.4,10.135-12.875,14.927-.833.653-1.713,1.26-2.613,1.85-2.695,1.768-5.562,3.388-7.8,5.634-.817.827-1.552,1.657-2.291,2.428-2.954,3.085-6.006,5.226-9.364,3.822-7.078-2.485-11.027-11.323-16.184-18.065-.761-1.085-1.488-2.109-2.274-3.1a26.305,26.305,0,0,0-8.413-7.276,23.491,23.491,0,0,1-2.846-3.24q-.916-1.179-1.91-2.325a45.43,45.43,0,0,0-6.915-6.485c-1.653-1.131-2.56-3.249-3.486-5.025a27.445,27.445,0,0,0-2.027-2.837c-3.6-4.428-8.164-7.521-12.049-11.775a15.272,15.272,0,0,1-1.925-2.768,8.59,8.59,0,0,1-.655-6.754,12.926,12.926,0,0,1,1.525-2.4,22.708,22.708,0,0,1,4.218-4.057c4.319-3.184,9.262-5.3,12.643-9.463.6-.758,1.172-1.528,1.739-2.3q2.548-3.477,4.974-7.044a17.94,17.94,0,0,1,1.717-2.2c4.353-4.773,10.972-7.219,16.593-10.637.726-.389,1.451-.769,2.182-1.14s1.466-.732,2.209-1.084A25.807,25.807,0,0,1,235.8,9.821a21.22,21.22,0,0,1,5.884-2.167,17.052,17.052,0,0,1,2.851-.325,15.539,15.539,0,0,1,2.868.135,14.36,14.36,0,0,1,2.728.651c9.25,3.612,12.047,14.446,19.257,20.743a23.512,23.512,0,0,0,2.61,2.3c.785.637,1.582,1.263,2.383,1.889,2.4,1.878,4.841,3.748,7.073,5.86.485.682.933,1.364,1.387,2.041a53.6,53.6,0,0,0,4.4,5.814c4.536,4.743,9.112,8.8,12.471,14.266a6.875,6.875,0,0,0,1.933,1.881,6.708,6.708,0,0,1,1.594,3.168A2.918,2.918,0,0,1,302.533,68.391Z"/><path class="cls-4" d="M330.932,127.887a27.17,27.17,0,0,1-7.176-2,33.406,33.406,0,0,1-6.321-3.631,65.571,65.571,0,0,1-7.836-5.987c-.84-.724-1.675-1.457-2.511-2.19-8.541-8.148-19.755-10.535-30.17-14.48q-1.215-.576-2.393-1.223a61.906,61.906,0,0,1-6.776-4.358,17.045,17.045,0,0,1-2.229-2.323,13.033,13.033,0,0,1-2.652-10.658,15.644,15.644,0,0,1,.686-2.615c2.216-5.753,7.281-9.925,11.984-13.775a10.468,10.468,0,0,0,3.069-5.323,44.386,44.386,0,0,1,6.312-13.206c.637-.845,1.286-1.679,1.938-2.506,3.26-4.137,6.6-8.127,8.951-12.752.438-.862.861-1.728,1.28-2.6,1.254-2.607,2.475-5.244,3.793-7.876,1.6-3.69,4.241-7.662,8.805-9.119a25.456,25.456,0,0,1,3.379.447,24.613,24.613,0,0,1,3.172.868,26.993,26.993,0,0,1,2.985,1.242c5.8,2.195,10.4,5.812,14.725,9.777q1.082.991,2.147,2.006c3,3.776,6.988,5.9,11.22,7.608,1.058.428,2.132.83,3.211,1.227A33.179,33.179,0,0,1,366.316,43q1.111,1.04,2.163,2.171c1.671,2.39,3.949,4.59,4.794,7.737.282,1.049,1.592,2.159,1.531,3.188.319,6.213-3.093,11.516-6.174,17q-.577.879-1.183,1.8-.586.889-1.188,1.816-.549,1.652-1.187,3.232t-1.366,3.1C361.243,88,360,93.267,358.34,98.568c-.277.884-.565,1.768-.873,2.654-.338,1.05-.712,2.108-1.127,3.162s-.861,2.121-1.313,3.219a18.745,18.745,0,0,1-.821,3.251,22.332,22.332,0,0,1-1.293,2.936,29.254,29.254,0,0,1-8.256,10.448,20.811,20.811,0,0,1-2.212,1.473c-.706.311-1.39.621-2.065.918-2.15.589-3.946,1.858-6.467,1.655A7.5,7.5,0,0,1,330.932,127.887Z"/><path class="cls-5" d="M143.865,57.852l230.352,3.371s26.58,73.843-14.463,162.247-21.168,240.305-21.168,240.305-56.6,60.639-162.866,7.523c0,0,24.829-93.5-29.424-234.366C146.295,236.932,100.928,143.391,143.865,57.852Z"/><path class="cls-6" d="M224.4,462.837c24.782,3.433,49.924-.473,75.061-6.549s27.355-37.6,27.355-37.6l7.25-59.573c1.328-45.237,7.576-96.624,25.69-135.642,41.043-88.4,14.463-162.247,14.463-162.247L143.865,57.852c-42.937,85.539,2.43,179.08,2.43,179.08,19.565,50.8,28.846,95.443,32.715,131.76q1,9.4,1.544,18.041l6.2,49.434S189.585,458.014,224.4,462.837Z"/><g class="cls-7"><path class="cls-8" d="M225.93,441.187c24.782,3.433,49.924-.473,75.061-6.549s27.355-37.6,27.355-37.6l7.25-59.573c1.328-45.237,7.576-96.624,25.69-135.642,41.043-88.4,14.463-162.247,14.463-162.247L145.4,36.2c-42.937,85.539,2.43,179.08,2.43,179.08,19.565,50.8,28.846,95.443,32.715,131.76q1,9.4,1.544,18.041l6.2,49.434S191.118,436.365,225.93,441.187Z"/></g><path class="cls-9" d="M239.752,119.182c-8.656.791-15.317,6.091-22.964,9.574-1.092.5-2.205.958-3.324,1.371-12.195,2.024-23.232,8.25-35.693,9.917-1.172.262-2.342.477-3.517.643a40.57,40.57,0,0,1-17.685-1.348,6.353,6.353,0,0,1-2.13-1.343,4.434,4.434,0,0,1-1.219-2.163,92.3,92.3,0,0,0-3.6-9.591c-.441-1.03-.887-2.05-1.352-3.063a19.326,19.326,0,0,1-4-6.244,18.406,18.406,0,0,1-.964-3.4,39.235,39.235,0,0,1-.694-11.951c-10.786-27.708.1-59.117,30.172-66.213a53.712,53.712,0,0,1,10.943-.445,22.839,22.839,0,0,1,3.307.588,24.662,24.662,0,0,1,3.308,1.1c1.167.282,2.341.55,3.518.734a17.479,17.479,0,0,0,3.522.23c1.04,0,2.078-.006,3.113-.053a23.713,23.713,0,0,0,9.2-2.031,18.921,18.921,0,0,1,3.03-.566,12.648,12.648,0,0,1,8.982,2.434c5.282,3.755,4.511,10.936,6.176,16.815.2,1.021.407,2.035.616,3.043a63.688,63.688,0,0,0,4.44,14.6c.416,1.21.792,2.418,1.141,3.63,4.379,10.053,7.237,19.858,5.556,30.77a7.68,7.68,0,0,0,1.256,5.9c.316.692.667,1.374,1.06,2.048a7.786,7.786,0,0,1-.265,3.422A2.945,2.945,0,0,1,239.752,119.182Z"/><g class="cls-10"><path class="cls-11" d="M225.7,440.875c24.782,3.433,49.924-.473,75.061-6.549s27.355-37.6,27.355-37.6l7.25-59.573c1.328-45.237,7.576-96.624,25.69-135.642C402.1,113.1,375.522,39.262,375.522,39.262L145.171,35.891c-42.937,85.539,2.43,179.08,2.43,179.08,19.565,50.8,28.846,95.443,32.715,131.76q1,9.4,1.544,18.041l6.2,49.434S190.89,436.053,225.7,440.875Z"/></g><path class="cls-12" d="M302.533,68.391C296.6,74.5,290.044,80.651,284.273,86.705c-.931.858-1.859,1.683-2.739,2.555-.944.989-1.8,1.994-2.648,3-4.213,5.044-8.4,10.135-12.875,14.927-.833.653-1.713,1.26-2.613,1.85-2.695,1.768-5.562,3.388-7.8,5.634-.817.827-1.552,1.657-2.291,2.428-2.954,3.085-6.006,5.226-9.364,3.822-7.078-2.485-11.027-11.323-16.184-18.065-.761-1.085-1.488-2.109-2.274-3.1a26.305,26.305,0,0,0-8.413-7.276,23.491,23.491,0,0,1-2.846-3.24q-.916-1.179-1.91-2.325a45.43,45.43,0,0,0-6.915-6.485c-1.653-1.131-2.56-3.249-3.486-5.025a27.445,27.445,0,0,0-2.027-2.837c-3.6-4.428-8.164-7.521-12.049-11.775a15.272,15.272,0,0,1-1.925-2.768,8.59,8.59,0,0,1-.655-6.754,12.926,12.926,0,0,1,1.525-2.4,22.708,22.708,0,0,1,4.218-4.057c4.319-3.184,9.262-5.3,12.643-9.463.6-.758,1.172-1.528,1.739-2.3q2.548-3.477,4.974-7.044a17.94,17.94,0,0,1,1.717-2.2c4.353-4.773,10.972-7.219,16.593-10.637.726-.389,1.451-.769,2.182-1.14s1.466-.732,2.209-1.084A25.807,25.807,0,0,1,235.8,9.821a21.22,21.22,0,0,1,5.884-2.167,17.052,17.052,0,0,1,2.851-.325,15.539,15.539,0,0,1,2.868.135,14.36,14.36,0,0,1,2.728.651c9.25,3.612,12.047,14.446,19.257,20.743a23.512,23.512,0,0,0,2.61,2.3c.785.637,1.582,1.263,2.383,1.889,2.4,1.878,4.841,3.748,7.073,5.86.485.682.933,1.364,1.387,2.041a53.6,53.6,0,0,0,4.4,5.814c4.536,4.743,9.112,8.8,12.471,14.266a6.875,6.875,0,0,0,1.933,1.881,6.708,6.708,0,0,1,1.594,3.168A2.918,2.918,0,0,1,302.533,68.391Z"/><path class="cls-13" d="M330.932,127.887a27.17,27.17,0,0,1-7.176-2,33.406,33.406,0,0,1-6.321-3.631,65.571,65.571,0,0,1-7.836-5.987c-.84-.724-1.675-1.457-2.511-2.19-8.541-8.148-19.755-10.535-30.17-14.48q-1.215-.576-2.393-1.223a61.906,61.906,0,0,1-6.776-4.358,17.045,17.045,0,0,1-2.229-2.323,13.033,13.033,0,0,1-2.652-10.658,15.644,15.644,0,0,1,.686-2.615c2.216-5.753,7.281-9.925,11.984-13.775a10.468,10.468,0,0,0,3.069-5.323,44.386,44.386,0,0,1,6.312-13.206c.637-.845,1.286-1.679,1.938-2.506,3.26-4.137,6.6-8.127,8.951-12.752.438-.862.861-1.728,1.28-2.6,1.254-2.607,2.475-5.244,3.793-7.876,1.6-3.69,4.241-7.662,8.805-9.119a25.456,25.456,0,0,1,3.379.447,24.613,24.613,0,0,1,3.172.868,26.993,26.993,0,0,1,2.985,1.242c5.8,2.195,10.4,5.812,14.725,9.777q1.082.991,2.147,2.006c3,3.776,6.988,5.9,11.22,7.608,1.058.428,2.132.83,3.211,1.227A33.179,33.179,0,0,1,366.316,43q1.111,1.04,2.163,2.171c1.671,2.39,3.949,4.59,4.794,7.737.282,1.049,1.592,2.159,1.531,3.188.319,6.213-3.093,11.516-6.174,17q-.577.879-1.183,1.8-.586.889-1.188,1.816-.549,1.652-1.187,3.232t-1.366,3.1C361.243,88,360,93.267,358.34,98.568c-.277.884-.565,1.768-.873,2.654-.338,1.05-.712,2.108-1.127,3.162s-.861,2.121-1.313,3.219a18.745,18.745,0,0,1-.821,3.251,22.332,22.332,0,0,1-1.293,2.936,29.254,29.254,0,0,1-8.256,10.448,20.811,20.811,0,0,1-2.212,1.473c-.706.311-1.39.621-2.065.918-2.15.589-3.946,1.858-6.467,1.655A7.5,7.5,0,0,1,330.932,127.887Z"/><path class="cls-14" d="M220.973,174.318c-6.966,3.422-12.08,8.915-17.089,14.5-.835.931-1.667,1.865-2.541,2.77-.846.6-1.717,1.131-2.6,1.631s-1.778.965-2.673,1.425c-2.206.378-3.68,2.011-5.113,2.959-4.566,4.46-7.605,10.355-11.72,14.842a25.476,25.476,0,0,1-2.619,2.5c-4.526,3.6-8.276,2.784-11.661.154a22.667,22.667,0,0,1-2.477-2.276q-1.5-2.322-3.11-4.516-.8-1.1-1.63-2.169c-4.082-6.28-11.14-9.108-16.684-14.255-.541-.548-1.062-1.105-1.569-1.667a25.022,25.022,0,0,0-1.974-2.246c-.7-.716-1.443-1.406-2.192-2.082-6.6-6.438-10.366-18.361-5.339-26.5.583-.736,1.207-1.45,1.856-2.144a55.4,55.4,0,0,1,4.1-3.908c.984-.835,2-1.615,3.019-2.332s2.049-1.371,3.061-1.952q1.61-1.163,3.1-2.285c.989-.749,1.944-1.487,2.844-2.216.981-.8,1.991-1.583,3.039-2.341q1.369-.9,2.747-1.762t2.755-1.721c.964-.714,1.909-1.454,2.885-2.168.794-.577,1.579-1.166,2.352-1.774a50.454,50.454,0,0,0,8.69-8.6,7.3,7.3,0,0,1,3.143-1.589c14.226-1.163,21.4,17.156,30.487,26.3a28.932,28.932,0,0,0,2.711,1.856c4.617,2.82,9.568,4.528,12.379,8.876a29.789,29.789,0,0,1,1.5,3.12,34,34,0,0,1,1.176,3.325,29.759,29.759,0,0,1,.825,3.534A3.869,3.869,0,0,1,220.973,174.318Z"/><path class="cls-15" d="M283.209,190.3s-.807.061-2.242.165a50.927,50.927,0,0,0-10.151-.978q-1.684,0-3.363.1a18.461,18.461,0,0,0-6.92,1.148c-7.006,4.4-13.961,5.1-21.125,4.649-1.023-.064-2.051-.151-3.084-.248-5.512-.893-10.719,2.765-15.99,2.4a9.488,9.488,0,0,1-3.174-.773,12.505,12.505,0,0,1-5.983-6.431,15.022,15.022,0,0,1-.8-2.676c-.04-3.246.087-6.511.213-9.773.042-1.088.083-2.175.118-3.262a80.188,80.188,0,0,0-1.764-25.8q-.368-1.573-.8-3.13c-2.119-10.5-7.558-23.214.7-32.476a26.043,26.043,0,0,1,2.679-2.437,22.235,22.235,0,0,1,2.856-1.921c.964-.513,1.944-.986,2.925-1.421s1.965-.83,2.949-1.183a13.222,13.222,0,0,1,4.4-.926c1.278.205,2.549.35,3.814.444s2.523.134,3.776.137c3.4.116,6.8.6,10.332.694.883.025,1.775.025,2.684-.014,6.16-.013,10.9-4.549,16.794-5.231,5.547-.7,12.144-1.687,17.282.528a4.113,4.113,0,0,1,1.431,2.811s.062.812.186,2.288a58.321,58.321,0,0,1,2.935,9.542q.341,1.6.58,3.2a41.39,41.39,0,0,1,1.56,14.142c-.045,1.185-.119,2.372-.209,3.565q.492,3.359.79,6.735.149,1.688.248,3.389c.1,1.176.156,2.353.177,3.531s.008,2.355-.029,3.532a7.805,7.805,0,0,1-.882,4.942c-3.273,8.752-4.489,17.627.165,26.162.625,1.069.221,2.078-.294,3.152A4.014,4.014,0,0,1,283.209,190.3Z"/><path class="cls-16" d="M368.73,104.636c12.985-1.674,15.153,13.939,14.1,23.44-.026,1.169-.057,2.328-.069,3.467-.084,1.255-.207,2.464-.359,3.605-.071,1.248-.157,2.472-.248,3.656s-.185,2.325-.27,3.411c-.052,1.107-.1,2.216-.135,3.327s-.057,2.226-.06,3.343a26.5,26.5,0,0,1-.457,3.727,22.009,22.009,0,0,1-1.21,3.954c-.24,1.273-.544,2.541-.9,3.8a72.63,72.63,0,0,1-5.843,14.02,13.6,13.6,0,0,1-2.056,2.082,13.176,13.176,0,0,1-5.535,2.644,33.475,33.475,0,0,1-3.311.817c-3.357.665-6.829.982-10.172,1.832-1.232.361-2.379.719-3.429,1.061a32.687,32.687,0,0,0-3.175,1.986q-1.528,1.066-3,2.217a16.877,16.877,0,0,1-2.32,1.382,13.488,13.488,0,0,1-5.379,1.379,12.437,12.437,0,0,1-3.381-.381,17.451,17.451,0,0,1-10.5-8.567A21.3,21.3,0,0,1,319.732,178a26.442,26.442,0,0,1-1.582-9.175c-.086-1.111-.154-2.206-.227-3.261s-.153-2.062-.262-3c-.116-1.309-.25-2.6-.444-3.847a25.653,25.653,0,0,0-.793-3.6c-.314-1.1-.634-2.192-.97-3.279a67.972,67.972,0,0,0-3.626-9.53q-.579-1.757-1.043-3.547a48.325,48.325,0,0,1-1.556-11.122,12.066,12.066,0,0,1,.429-3.283,8.383,8.383,0,0,1,1.447-2.876c4.5-6.27,12.205-2.715,18.8-3.7,6.254-1,11.319-5.177,16.8-7.446q1.541-.636,3.078-1.313c1.025-.45,2.05-.914,3.081-1.409.968-.328,1.933-.624,2.906-.9,3.022-.294,5.888-2.188,9.1-1.821A34.413,34.413,0,0,1,368.73,104.636Z"/><path class="cls-17" d="M358.652,216.253a11.326,11.326,0,0,1,.044,7.184,18.367,18.367,0,0,1-11.562,10.385c-1.083.419-2.168.769-3.286,1.183-10.509,4.445-21.767,8.594-29.649,17.719-.733.874-1.482,1.722-2.256,2.528-3.87,4.032-8.35,7.034-14.381,7.192-6.556.3-11.393-5.151-16.313-9.228a21.971,21.971,0,0,1-2.105-2.31c-3.177-4.014-4.841-8.785-7.113-13.3-.454-.9-.933-1.794-1.458-2.661-2.38-5.221-8.511-6.274-12.422-9.948-6.209-5.531-7.737-14.568-7.455-22.379a19.606,19.606,0,0,1,.818-3.262,18.757,18.757,0,0,1,5.854-8.434c.908-.676,1.81-1.359,2.7-2.069a52.241,52.241,0,0,0,7.553-7.34,26.3,26.3,0,0,1,4.946-3.156c.975-.653,1.911-1.335,2.824-2.045a45.9,45.9,0,0,0,8.574-8.611q.756-1,1.466-2.069a16.946,16.946,0,0,1,17.384-8.867c6.131,1.053,9.961,6.1,13.091,11.069a26.831,26.831,0,0,0,2.2,2.3,54,54,0,0,1,4.48,4.672c5.719,6.6,10.7,14.078,18.935,17.428a27.217,27.217,0,0,1,2.566,2.374c5.6,5.9,9.04,14.061,14.453,20.121A5.341,5.341,0,0,1,358.652,216.253Z"/><path class="cls-18" d="M268.484,243.039c-2.845,4.023-6.678,6.063-10.879,7.359-1.05.324-2.127.6-3.225.852-.9.312-2.276.23-3.345.855-10.05,6.973-19.552,10.537-31.3,10.142-1.044.286-2.1.613-3.156.943s-2.118.661-3.18,1c-8.56,3.932-16.144,1.223-20.741-5.5a28.945,28.945,0,0,1-1.824-3.111,35.93,35.93,0,0,1-13.985-18.664,33.887,33.887,0,0,1-.835-3.349c-.647-11.076-3.787-21.93-8.131-32.093a7.1,7.1,0,0,1-.178-2.27,5.392,5.392,0,0,1,.944-2.577c3.429-4.67,8.443-7.813,13.685-10.106,1.058-.464,2.124-.895,3.2-1.3q1.593-.831,3.212-1.59t3.263-1.452c6.45-1.673,11.933-5.346,17.949-7.875,1-.422,2.02-.811,3.059-1.155,1.091-.314,2.14-.6,3.189-.877,2.784-1.254,5.138-3.4,7.458-5.484.773-.694,1.543-1.38,2.326-2.024,4.323-4.04,10.6-5.388,15.9-1.976a29.525,29.525,0,0,1,10.332,12.8,24.374,24.374,0,0,1,.99,3.141c.336,1.6.637,3.211.92,4.825.141.807.28,1.616.426,2.429a82.822,82.822,0,0,1,5.207,16.074c.214,1.08.4,2.165.552,3.27.06,1.232.1,2.477.148,3.725s.091,2.5.158,3.749a38.5,38.5,0,0,0,1.386,8.869q.409,1.42.954,2.808c1.418,5.716,8.092,9.21,7.385,15.5A6.673,6.673,0,0,1,268.484,243.039Z"/><path class="cls-19" d="M228.37,317.556c-8.829,7-19.662,9.8-30.834,6.73a5.076,5.076,0,0,0-2.225-.148,6.121,6.121,0,0,0-2.254.8c-.96.314-1.915.674-2.864,1.092a27.919,27.919,0,0,0-2.827,1.441,8.921,8.921,0,0,1-8.233.833,8.61,8.61,0,0,1-2.406-1.542c-6.682-8.924-7.319-21.35-11.548-31.781q-.537-1.64-1.054-3.282c-.687-2.192-1.339-4.4-1.927-6.624q-.463-1.729-.875-3.472c-1.385-5.807-2.458-11.7-4.1-17.421a26.3,26.3,0,0,1-.639-2.658,14.83,14.83,0,0,1-.07-5.4,11.884,11.884,0,0,1,5.651-8.226,19.917,19.917,0,0,1,3-1.528,10.089,10.089,0,0,1,6.8-.778,22.193,22.193,0,0,1,2.241.568c5.143,2.031,10.184,4.051,15.65,4.72,6.474,1.073,13.23,3.2,19.972,4.1a29.31,29.31,0,0,0,3.224.128,31.348,31.348,0,0,0,3.407-.24c1.735-.241,2.662,1.535,3.351,2.994a26.628,26.628,0,0,1,.824,2.687c.733,2.81,1.317,5.884,2.881,8.269.285,1.04.537,2.087.771,3.139.936,4.206,1.59,8.5,2.991,12.629q.341,1.141.7,2.28a47.449,47.449,0,0,0,3.44,6.31,18.322,18.322,0,0,1,.993,2.193,22.038,22.038,0,0,1,1.166,9.9,22.545,22.545,0,0,1-.57,3.516A28.364,28.364,0,0,1,231.9,312.3c-.45,1.17-.981,2.354-1.582,3.559A3.326,3.326,0,0,1,228.37,317.556Z"/><path class="cls-20" d="M295.782,347.368a16.32,16.32,0,0,0-9.709-4.41,10.339,10.339,0,0,0-3.323.248c-5.25,2.006-7.976,7.35-12.94,9.807a10.687,10.687,0,0,1-3.186.958q-1.813.185-3.623.3t-3.63.181c-3.67-.631-7.288-1.135-10.886-1.456-1.2-.111-2.4-.2-3.614-.308a31.308,31.308,0,0,0-3.718-.674c-5.673-.358-9.71,3.876-14.955,5.284-13.981,3.642-14.133-11.163-14.015-20.863q-.1-1.187-.213-2.434c-.063-.712-.127-1.438-.2-2.173-.14-1.547.325-3.584-.642-4.674a22.144,22.144,0,0,1-5.139-9.084,25.194,25.194,0,0,1-.7-3.293c-.209-2.081-.465-4.088-.737-6.068-.136-.99-.277-1.974-.418-2.959-.218-4.028-1.637-8.433-3-12.86-.342-1.107-.68-2.215-.963-3.32-1.2-6.839-2.059-15.493,3.411-20.673a5.1,5.1,0,0,1,2.113-1.023,7.991,7.991,0,0,1,2.936-.029,31.3,31.3,0,0,1,3.167.706c7.557,1.285,14.007,8.55,21.755,5.57,2.643-1.047,4.908-2.977,7.28-4.608a23.329,23.329,0,0,1,2.425-1.487,37.65,37.65,0,0,1,12.781-4.763,32.281,32.281,0,0,1,3.292-.417,15.148,15.148,0,0,1,6.542.121c7.119,1.8,13.614,2.53,20.937.9a3.418,3.418,0,0,1,4.308,2.231,9.861,9.861,0,0,1,.692,2.8c-.119,9.42-3.22,18.609-1.806,27.7a25.9,25.9,0,0,0,2.026,6.817c1.874,3.2,3.021,7.049,2.474,10.458q-.179,1.925-.255,3.824c-.434,1.984.15,3.74.37,5.817a28.089,28.089,0,0,0,.938,2.925c.37.988.787,1.987,1.218,2.995,2.678,5.379,5.7,12.441,2,17.809A3.589,3.589,0,0,1,295.782,347.368Z"/><path class="cls-21" d="M334.727,311.483c-.767.634-1.5,1.273-2.2,1.927a18.717,18.717,0,0,0-4.8,6.638c-.545.983-1.1,1.954-1.725,2.876a16.368,16.368,0,0,1-2.118,2.58,10.423,10.423,0,0,1-2.862,2.016,17.1,17.1,0,0,1-3.312,1.158c-8.593-.167-15.414,4.589-22.839,7.933a8.316,8.316,0,0,1-11.05-5.13,17.091,17.091,0,0,1-.963-2.715c-1.239-4.614-.942-9.615-3.544-14.071-3.768-6.074-10.141-8.861-14.188-14.12q-1.081-1.305-2.2-2.571a128.491,128.491,0,0,0-9.68-9.733,11.746,11.746,0,0,1-1.108-2.942,19.179,19.179,0,0,1-.476-3.248c-.3-6.556,6.1-9.961,11.184-12.455q1.3-.555,2.652-.984a31.026,31.026,0,0,1,8.317-1.441,25.538,25.538,0,0,0,5.488-1.514c.867-.348,1.711-.739,2.542-1.107a28.446,28.446,0,0,0,4.437-1.77c.7-.351,1.393-.73,2.072-1.14a9.415,9.415,0,0,0,1.962-1.328c.618-.518,1.208-1.074,1.8-1.563.916-1.079,1.965-1.36,2.631-.977a60.645,60.645,0,0,0,8.5.2c.949-.034,1.9-.079,2.851-.13.844-.137,1.747-.258,2.691-.359s1.929-.178,2.937-.227a24.417,24.417,0,0,0,3.556-.392,38.8,38.8,0,0,1,8.749-1.66,24.675,24.675,0,0,1,2.935,0c12.338-.035,15.382,10.406,15.394,20.629,0,1.136-.038,2.269-.128,3.381-1.841,9.486-2.089,19.45-5.274,29.061A8.984,8.984,0,0,1,334.727,311.483Z"/><path class="cls-22" d="M257.844,356.493c-3.231,9.037-11.182,15.447-14.285,24.427-.324,1.066-.617,2.148-.888,3.242-1.408,9.135-3.069,19.7-12.612,23.954a9.853,9.853,0,0,1-3.453.949c-4.776.285-9.442-.989-14.216-1.764-.958-.155-1.921-.29-2.914-.371-13.327,4.332-26.129-6.064-28.22-19.1-.229-1.04-.414-2.092-.564-3.153s-.263-2.132-.349-3.209-.143-2.161-.19-3.245c-.542-3.485-1.141-6.986-1.557-10.519-.138-1.178-.257-2.359-.345-3.545-.1-1.134-.167-2.259-.255-3.384-1.728-10.146-3.872-20.2-2.269-30.243q.267-1.674.679-3.348c1.808-7.837,7.522-17.132,16.273-16.174a10.742,10.742,0,0,1,2.3.767,13.778,13.778,0,0,1,5.516,4.708c.812.877,1.612,1.782,2.416,2.658a25.119,25.119,0,0,0,4.959,4.465,17.975,17.975,0,0,0,2.791,1.622,14.9,14.9,0,0,0,3.13,1.049c1.21.374,2.362.769,3.446,1.174s2.1.817,3.01,1.207c.967.406,1.936.841,2.912,1.274a37.29,37.29,0,0,0,8.974,3.09c.9.226,1.788.481,2.665.773a44.457,44.457,0,0,1,16.4,9.692q1.148,1.1,2.178,2.279a46.258,46.258,0,0,1,4.955,7.727A5.373,5.373,0,0,1,257.844,356.493Z"/><path class="cls-23" d="M334.082,362.142c-1.971,2.145-.219,7.411-1.263,10.93-.223,1.123-.485,2.24-.756,3.359-.542,2.237-1.116,4.478-1.513,6.778a23.151,23.151,0,0,0-.1,2.792c-.013.922,0,1.825.054,2.7-.035,1.24-.118,2.478-.231,3.7s-.258,2.428-.417,3.6q-.062,1.688-.288,3.378a35.6,35.6,0,0,1-2.891,10.006,5.869,5.869,0,0,0-.066,2.426c.117.8.311,1.63.4,2.58a7.533,7.533,0,0,1-.616,2.716,10.131,10.131,0,0,1-1.839,2.76,11.768,11.768,0,0,1-2.235,1.867c-4.149,2.7-10.212,3.388-15.116,2.667-5.1-.992-9.075-3.636-13.391-6.211q-1.257-.772-2.509-1.541T288.8,415.14a16.92,16.92,0,0,0-2.613-.993,13.57,13.57,0,0,0-2.842-.494,20.425,20.425,0,0,0-3.11.037,12.211,12.211,0,0,1-2.725-.752,11.387,11.387,0,0,1-2.57-1.466,24.012,24.012,0,0,1-5.766-6.628c-.526-.814-1.037-1.638-1.557-2.454-1.283-2.441-3.219-4.62-4.5-6.638q-.783-.992-1.617-1.916t-1.713-1.779a21.513,21.513,0,0,0-2.491-2.115,14.26,14.26,0,0,0-3.37-1.517,30.391,30.391,0,0,0-3.639-.869c-4.153-.851-8.974-.794-11.856-4.406-4.474-5.772-.94-13.132,3.8-17.667,3.633-3.225,6.257-6.854,9.264-10.395.7-1.058,1.4-2.131,2.109-3.2.443-.671.884-1.341,1.332-2,1.061-.646,2.122-1.267,3.169-1.884s2.087-1.228,3.11-1.862c.955-.739,1.958-1.457,2.992-2.17a34.992,34.992,0,0,0,5.5-5.084c.863-.957,1.7-1.952,2.526-2.96,5.113-5.52,9.256-17.317,15.628-14.53q1.512.606,3.05,1.217T294,323.85a27.118,27.118,0,0,1,11.1,3.547,22.7,22.7,0,0,1,2.242,1.528c1.073.528,2.152,1.058,3.228,1.6s2.151,1.089,3.216,1.656a40.028,40.028,0,0,1,6.631,2.9,33.924,33.924,0,0,1,3.046,1.9,25,25,0,0,1,2.484,2,25.891,25.891,0,0,1,2.245,2.329c.655.906,1.286,1.848,1.874,2.821a31.978,31.978,0,0,1,1.614,3.01,33.546,33.546,0,0,1,2.529,13.961A4.5,4.5,0,0,1,334.082,362.142Z"/><path class="cls-24" d="M302.752,437.089c-.926,3.01-.581,5.888-.429,8.787.038.725.064,1.451.054,2.178-1.368,11.079-14.822,11.656-23.351,12.9-1.039.18-2.074.306-3.1.4-2.126.323-4.262.64-6.394.836q-1.6.147-3.2.206a22.062,22.062,0,0,1-3.255.322c-3.6.487-7.435,1.291-10.844.744-7.18-.771-14.079-.493-21-.92a24.836,24.836,0,0,1-2.59-.308,15.246,15.246,0,0,1-5.315-2.138,13.571,13.571,0,0,1-2.389-1.679c-3.053-3.335-6.553-6.43-8.934-10.185a24.2,24.2,0,0,1-1.578-2.921c-2.409-7.878-4.381-15.222-9.843-21.741-1.27-1.8-1.49-3.874-2.477-5.619a16.377,16.377,0,0,1-.766-2.81,11.167,11.167,0,0,1,1.739-8.374,15.836,15.836,0,0,1,1.481-2.307,17.752,17.752,0,0,1,12.011-6.638c1.08-.158,2.159-.269,3.227-.368s2.125-.182,3.153-.287c1.068-.166,2.128-.363,3.171-.621A18.283,18.283,0,0,0,228.081,394q.95-.5,1.877-1.048a41.911,41.911,0,0,0,7.019-5.145c1.046-.594,2.111-1.134,3.188-1.643a15.648,15.648,0,0,1,8.845-1.207c.993.1,1.986.226,2.985.353.984.233,1.983.461,2.989.669.867.165,1.763.354,2.679.549,4.225.365,9.184-.067,13.628.005,1.111.018,2.19.068,3.231.166,12.776,2.1,12.14,18.584,17.964,27.657.682.848,1.354,1.7,1.989,2.576s1.232,1.772,1.774,2.7q.765,1.4,1.528,2.825c1.022,1.894,2.058,3.806,3.14,5.736a14.007,14.007,0,0,1,1.445,3.124,11.786,11.786,0,0,1,.533,3.547A15.166,15.166,0,0,1,302.752,437.089Z"/><path class="cls-25" d="M224.4,462.837c24.782,3.433,49.924-.473,75.061-6.549s27.355-37.6,27.355-37.6l7.25-59.573c1.328-45.237,7.576-96.624,25.69-135.642,41.043-88.4,14.463-162.247,14.463-162.247L143.865,57.852c-42.937,85.539,2.43,179.08,2.43,179.08,19.565,50.8,28.846,95.443,32.715,131.76q1,9.4,1.544,18.041l6.2,49.434S189.585,458.014,224.4,462.837Z"/><path class="cls-26" d="M242.556,99.506s-18.53,11.049-45.9-15.117c0,0-15.562-16.066-31.335-17,0,0,16.952,8.119,16.184,32.62s10.254,32.038,10.254,32.038S222,155.865,242.556,99.506Z"/><path class="cls-27" d="M342.543,69.2s-20.666-3.523-42.1,17.455-36.748,16.168-36.748,16.168,15.8,42.92,41.868,32.771c0,0,15.158-4.146,16.37-28.391S342.543,69.2,342.543,69.2Z"/><path class="cls-28" d="M269.9,67.868s10.236,16.9,29.51-10.175,47.277-15.771,47.277-15.771,18.324,8.2,18.78,31.4"/><path class="cls-28" d="M238.3,66.907s-.417,22.457-27.171-9.874-53.057-10.5-53.057-10.5S145.533,56.8,150.525,73.159"/><circle class="cls-29" cx="205.661" cy="170.62" r="6.892" transform="translate(23.136 365.793) rotate(-86.598)"/><circle class="cls-30" cx="235.762" cy="181.29" r="21.124" transform="translate(40.8 405.877) rotate(-86.598)"/><circle class="cls-31" cx="336.608" cy="154.907" r="18.281" transform="translate(161.997 481.728) rotate(-86.598)"/><circle class="cls-32" cx="301.485" cy="202.766" r="28.784" transform="translate(81.184 491.686) rotate(-86.598)"/><circle class="cls-33" cx="348.033" cy="191.332" r="8.105" transform="translate(136.384 527.398) rotate(-86.598)"/><circle class="cls-34" cx="335.962" cy="107.871" r="7.365" transform="translate(208.343 436.839) rotate(-86.598)"/><circle class="cls-35" cx="267.476" cy="374.236" r="18.475" transform="translate(-121.974 619.031) rotate(-86.598)"/><circle class="cls-36" cx="209.9" cy="333.653" r="13.907" transform="translate(-135.622 523.382) rotate(-86.598)"/><circle class="cls-37" cx="231.765" cy="319.889" r="6.496" transform="translate(-101.315 532.262) rotate(-86.598)"/><path class="cls-38" d="M146.295,236.932s-4.857,18.035,3.021,22.977,8.861.527,8.861.527L159,240.449S148.226,237.735,146.295,236.932Z"/><circle class="cls-39" cx="232.39" cy="366.733" r="5.408" transform="translate(-147.487 576.949) rotate(-86.598)"/><circle class="cls-40" cx="223.878" cy="410.741" r="22.879" transform="translate(-199.425 609.849) rotate(-86.598)"/><path class="cls-41" d="M345.3,229.914l14.451-6.444s2.38,21.706-3.525,24.566c-6.161,2.984-9.753.626-9.95-2.427S345.3,229.914,345.3,229.914Z"/><path class="cls-42" d="M252.873,249.427,254,273.572s2.869,9.621-6.653,11.578-20.05.414-20.05.414-5.6-1.259-5.535-9.964l.183-26.234S244.811,249.834,252.873,249.427Z"/><path class="cls-43" d="M179.613,244.69l-3.486,19.085a6.655,6.655,0,0,1-.447,3.251c-.662,1.9-2.781,2.8-4.859,3.023-4.478.078-9.217-1.236-11.737-5.179a10.548,10.548,0,0,1-.687-2.358,18.768,18.768,0,0,1-.232-3.882c.222-6.869.4-18.3.4-18.3S171.636,243.334,179.613,244.69Z"/><path class="cls-28" d="M344.54,69.323s-22.663-3.641-44.1,17.337S261.7,102.709,261.7,102.709"/><path class="cls-28" d="M244.612,98.627s-20.586,11.929-47.956-14.237c0,0-16.56-16.125-32.333-17.063"/><path class="cls-44" d="M328.9,235.626l1.659,18.419s1.237,5.155,5.35,4.712,8.43-5.233,8.43-5.233a12.734,12.734,0,0,0,1.943-7.915c-.414-4.613-.527-15.9-.527-15.9S338.394,232.506,328.9,235.626Z"/><path class="cls-45" d="M197.915,247.6l-1.038,24.013s-.814,7.967-8.048,6.16c-1.808-.452-3.329-.915-4.594-1.356s-2.275-.859-3.073-1.213c-4.716-1.38-5.055-7.25-5.036-11.429l.243-4.087.917-15.428S190.382,246.881,197.915,247.6Z"/><path class="cls-46" d="M222.651,249.419l-.886,26.182s-.112,5.736-5.41,6.105a78.6,78.6,0,0,1-13.259-.788s-6.5-2.544-6.243-10.743.428-22.641.428-22.641S214.389,249.284,222.651,249.419Z"/><path class="cls-47" d="M307.757,242.1l2.4,20.777s1.394,5.823,5.827,6.166c4.8.371,10.553-2.584,10.553-2.584s3.894-2.435,4.026-9.812-1.11-21.214-1.11-21.214S312.87,241.04,307.757,242.1Z"/><path class="cls-48" d="M284.1,246.551l2.581,25.338s.479,7.369,7.419,6.406a51.406,51.406,0,0,0,13.315-4.026s3.828-.69,2.742-11.392c-.947-9.327-1.969-20.908-1.969-20.908S289.846,245.822,284.1,246.551Z"/><path class="cls-49" d="M252.873,249.427,254,273.572s.058,10.6,11.044,11.024S281.4,283.5,281.4,283.5s6.025-1.018,5.279-11.615-1.463-25.551-1.463-25.551S261.777,249.463,252.873,249.427Z"/></svg>