<?xml version="1.0" encoding="utf-8"?>
<!-- Generator: Adobe Illustrator 21.1.0, SVG Export Plug-In . SVG Version: 6.00 Build 0)  -->
<svg version="1.1" id="Layer_1" xmlns="http://www.w3.org/2000/svg" xmlns:xlink="http://www.w3.org/1999/xlink" x="0px" y="0px"
	 viewBox="0 0 500 500" style="enable-background:new 0 0 500 500;" xml:space="preserve">
<style type="text/css">
	.st0{fill:url(#SVGID_1_);}
	.st1{fill:url(#SVGID_2_);}
	.st2{fill:url(#SVGID_3_);}
	.st3{fill:url(#SVGID_4_);}
	.st4{fill:url(#SVGID_5_);}
	.st5{fill:url(#SVGID_6_);}
	.st6{fill:url(#SVGID_7_);}
	.st7{fill:url(#SVGID_8_);}
	.st8{fill:url(#SVGID_9_);}
	.st9{fill:url(#SVGID_10_);}
	.st10{fill:url(#SVGID_11_);}
	.st11{fill:url(#SVGID_12_);}
	.st12{fill:url(#SVGID_13_);}
	.st13{fill:url(#SVGID_14_);}
	.st14{fill:url(#SVGID_15_);}
	.st15{fill:url(#SVGID_16_);}
	.st16{fill:url(#SVGID_17_);}
	.st17{fill:url(#SVGID_18_);}
	.st18{fill:url(#SVGID_19_);}
	.st19{fill:url(#SVGID_20_);}
	.st20{clip-path:url(#SVGID_22_);fill:url(#SVGID_23_);}
	.st21{clip-path:url(#SVGID_25_);fill:url(#SVGID_26_);}
	.st22{clip-path:url(#SVGID_28_);fill:url(#SVGID_29_);}
	.st23{clip-path:url(#SVGID_31_);fill:url(#SVGID_32_);}
	.st24{clip-path:url(#SVGID_34_);fill:url(#SVGID_35_);}
	.st25{clip-path:url(#SVGID_37_);fill:url(#SVGID_38_);}
	.st26{fill:url(#SVGID_39_);}
	.st27{clip-path:url(#SVGID_41_);fill:url(#SVGID_42_);}
	.st28{clip-path:url(#SVGID_44_);fill:url(#SVGID_45_);}
	.st29{clip-path:url(#SVGID_47_);fill:url(#SVGID_48_);}
	.st30{fill:url(#SVGID_49_);}
	.st31{fill:url(#SVGID_50_);}
	.st32{fill:none;stroke:#000000;stroke-miterlimit:10;}
	.st33{fill:none;stroke:#1B1464;stroke-width:3;stroke-linecap:round;stroke-miterlimit:10;}
	.st34{fill:url(#SVGID_51_);}
	.st35{fill:url(#SVGID_52_);}
	.st36{fill:url(#SVGID_53_);}
	.st37{fill:url(#SVGID_54_);}
	.st38{fill:url(#SVGID_55_);}
	.st39{fill:url(#SVGID_56_);}
	.st40{fill:url(#SVGID_57_);}
	.st41{fill:url(#SVGID_58_);}
	.st42{fill:url(#SVGID_59_);}
	.st43{fill:url(#SVGID_60_);}
	.st44{fill:url(#SVGID_61_);}
	.st45{fill:url(#SVGID_62_);}
	.st46{fill:url(#SVGID_63_);}
	.st47{fill:url(#SVGID_64_);}
	.st48{fill:#00FFFF;}
	.st49{fill:#FF00FF;}
	.st50{fill:#375EF0;}
	.st51{fill:#1B1464;}
	.st52{fill:#FEC80E;}
	.st53{fill:#581274;}
	.st54{fill:#FF5500;}
	.st55{clip-path:url(#SVGID_66_);fill:url(#SVGID_67_);}
</style>
<radialGradient id="SVGID_1_" cx="146.8314" cy="112.973" r="69.5904" gradientUnits="userSpaceOnUse">
	<stop  offset="0" style="stop-color:#375EF0"/>
	<stop  offset="0.5081" style="stop-color:#581274"/>
	<stop  offset="1" style="stop-color:#1B1464"/>
</radialGradient>
<path class="st0" d="M176.3,103.9c0,0-33.4-10.5-36.9,30.3l26.1-6L176.3,103.9z"/>
<radialGradient id="SVGID_2_" cx="437.2917" cy="222.5908" r="37.2009" gradientUnits="userSpaceOnUse">
	<stop  offset="0" style="stop-color:#FEC80E"/>
	<stop  offset="1" style="stop-color:#FF5500"/>
</radialGradient>
<path class="st1" d="M478,249.8c0,0-6.3-36.9-19.4-50.7l-35.8,8.3l27.6,49.8L478,249.8z"/>
<radialGradient id="SVGID_3_" cx="421.7147" cy="269.2333" r="73.1085" gradientUnits="userSpaceOnUse">
	<stop  offset="0" style="stop-color:#FF00FF"/>
	<stop  offset="1" style="stop-color:#581274"/>
</radialGradient>
<path class="st2" d="M398.7,253.2c0,0,36.2-17.3,69.4-11.5c0,0,35.3,7.3,18,31.8c0,0-7.3,8.1-3,21.7c4.2,13.1-3.4,23.1-3.4,23.1
	s-6.2,7.7-8.1,11.7c-1.7,3.4-6.5,14-26.9,14.8l-36.9,0.5L398.7,253.2z"/>
<radialGradient id="SVGID_4_" cx="413.0607" cy="219.5035" r="41.431" gradientUnits="userSpaceOnUse">
	<stop  offset="0" style="stop-color:#00FFFF"/>
	<stop  offset="1" style="stop-color:#375EF0"/>
</radialGradient>
<path class="st3" d="M380.2,217h72.9c0,0,23.7,11.5,10.7,21.6c0,0-6.4,5.3-15.6,4.7c-14.5-0.8-6.9,9.5-6.9,9.5s14.2,23.2,2.4,28
	c-16.4,6.7-16.6-8.7-16.6-8.7s-1.3-31.4-26.9-4.8l-22-50.4H380.2z"/>
<radialGradient id="SVGID_5_" cx="175.1818" cy="112.1622" r="312.4617" gradientUnits="userSpaceOnUse">
	<stop  offset="0" style="stop-color:#375EF0"/>
	<stop  offset="0.5081" style="stop-color:#581274"/>
	<stop  offset="1" style="stop-color:#1B1464"/>
</radialGradient>
<path class="st4" d="M378.1,226.7c0,0,37.5,20.9,42.7-4.7c0,0,23.7,9.5,36.7-10.3c0,0,7.9-8.7,0-20.5c0,0,0.8-17.8-19.4-22.9
	c0,0-8.7-17-28.8-18.2c0,0,2-32.8-31.2-34.4c0,0-6.3-21.7-36.7-22.5c0,0-24.1-24.5-47-3.6c0,0-14.2-19.4-39.9-11.8
	c0,0-21.7-10.7-47,15.4c0,0-41.5-1.6-46.6,31.2c0,0-26.1,3.6-35.5,24.1c0,0-37.1-5.9-54.5,38.3c0,0-29.2,20.1-21.7,41.3L378.1,226.7
	z"/>
<linearGradient id="SVGID_6_" gradientUnits="userSpaceOnUse" x1="392.3348" y1="205.7236" x2="420.7694" y2="205.7236">
	<stop  offset="0" style="stop-color:#FF5500"/>
	<stop  offset="1" style="stop-color:#FEC80E"/>
</linearGradient>
<path class="st5" d="M417.9,229c0,0-16.5-12-16.5-25.6c0,0-2.7-12.6-9.1-19l9.1-2c0,0,5.1,6.7,5.9,16.6c0,0-0.1,15.6,13.4,22.9
	C420.8,222,420.8,226.5,417.9,229z"/>
<linearGradient id="SVGID_7_" gradientUnits="userSpaceOnUse" x1="292.8237" y1="122.8786" x2="334.2271" y2="136.5295">
	<stop  offset="0" style="stop-color:#FF5500"/>
	<stop  offset="1" style="stop-color:#FEC80E"/>
</linearGradient>
<path class="st6" d="M326.8,105.5l9.5,2.4c0,0-0.4,7.1-18.6,20.5s-14.2,26.8-14.2,26.8c-2,0.8-10.7-3.9-10.7-3.9s-3.2-18,19.7-29.6
	C312.6,121.7,324.8,115.7,326.8,105.5z"/>
<linearGradient id="SVGID_8_" gradientUnits="userSpaceOnUse" x1="92.3873" y1="168.4955" x2="120.2363" y2="168.4955">
	<stop  offset="0" style="stop-color:#FF5500"/>
	<stop  offset="1" style="stop-color:#FEC80E"/>
</linearGradient>
<path class="st7" d="M85.5,165.9c0,0-4.3-2.8,0-6.1c4.3-3.4,7.1,0,7.1,0s6.6,11.3,18.8,9.3l-9.5,9.7c0,0-6.7-4.7-10.3-8.9
	C88,165.7,85.5,165.9,85.5,165.9z"/>
<linearGradient id="SVGID_9_" gradientUnits="userSpaceOnUse" x1="167.315" y1="123.2066" x2="234.909" y2="139.4007">
	<stop  offset="0" style="stop-color:#FF5500"/>
	<stop  offset="1" style="stop-color:#FEC80E"/>
</linearGradient>
<path class="st8" d="M226.7,110.2l3.7,9.1c0,0-8.3,9.2-25.7,11.1c-17.4,1.9-26.9,13.8-26.9,13.8l-17,4.7c0,0,10.7-28.4,37.9-27.2
	C198.8,121.7,213.1,125.2,226.7,110.2z"/>
<radialGradient id="SVGID_10_" cx="142.0728" cy="252.6587" r="277.4378" gradientUnits="userSpaceOnUse">
	<stop  offset="0" style="stop-color:#FEC80E"/>
	<stop  offset="1" style="stop-color:#FF5500"/>
</radialGradient>
<path class="st9" d="M10,391.4c0,0-33.4-237,212.7-255.5c0,0,158-11.1,190.3,168.6c0,0,12.2,43.8,31.8,40.3L47.2,418.6
	C47.2,418.6,11.4,429.7,10,391.4z"/>
<radialGradient id="SVGID_11_" cx="64.4445" cy="176.6063" r="23.7518" gradientUnits="userSpaceOnUse">
	<stop  offset="0" style="stop-color:#FF00FF"/>
	<stop  offset="1" style="stop-color:#FF5500"/>
</radialGradient>
<polygon class="st10" points="58.7,183.9 76.4,170.8 82.4,181.5 68.5,200.1 "/>
<radialGradient id="SVGID_12_" cx="126.004" cy="129.0052" r="29.0473" gradientUnits="userSpaceOnUse">
	<stop  offset="0" style="stop-color:#FF00FF"/>
	<stop  offset="1" style="stop-color:#FF5500"/>
</radialGradient>
<polygon class="st11" points="121,134.6 141.2,124.4 148.7,144.2 126.6,151.3 "/>
<radialGradient id="SVGID_13_" cx="193.336" cy="82.9839" r="32.9848" gradientUnits="userSpaceOnUse">
	<stop  offset="0" style="stop-color:#FF00FF"/>
	<stop  offset="1" style="stop-color:#FF5500"/>
</radialGradient>
<polygon class="st12" points="190.9,87.7 213,75.7 226.7,98 203.6,110.2 "/>
<radialGradient id="SVGID_14_" cx="250.9538" cy="108.4691" r="30.0776" gradientUnits="userSpaceOnUse">
	<stop  offset="0" style="stop-color:#FF00FF"/>
	<stop  offset="1" style="stop-color:#FF5500"/>
</radialGradient>
<polygon class="st13" points="243.8,102.7 270.7,108.2 267.1,131.9 236.7,128 "/>
<linearGradient id="SVGID_15_" gradientUnits="userSpaceOnUse" x1="351.2626" y1="147.3111" x2="406.1572" y2="147.3111">
	<stop  offset="0" style="stop-color:#FF5500"/>
	<stop  offset="1" style="stop-color:#FEC80E"/>
</linearGradient>
<path class="st14" d="M406.2,145.3c0,0-13-21.7-33.6-4.3c0,0-6.7,8.3-21.3,10.3l4.7,9.1c0,0,14.6-5.6,22.7-13
	c8.1-7.5,27.4,5.1,27.4,5.1V145.3z"/>
<radialGradient id="SVGID_16_" cx="329.51" cy="118.7033" r="32.7178" gradientUnits="userSpaceOnUse">
	<stop  offset="0" style="stop-color:#FF00FF"/>
	<stop  offset="1" style="stop-color:#FF5500"/>
</radialGradient>
<polygon class="st15" points="324,128.8 348.5,121.7 356,142.6 330.7,148.9 "/>
<radialGradient id="SVGID_17_" cx="362.4105" cy="160.9083" r="42.3604" gradientUnits="userSpaceOnUse">
	<stop  offset="0" style="stop-color:#FF00FF"/>
	<stop  offset="1" style="stop-color:#FF5500"/>
</radialGradient>
<polygon class="st16" points="375,155.2 395.5,167.1 378.1,193.1 359.2,180.1 "/>
<radialGradient id="SVGID_18_" cx="407.1884" cy="132.5257" r="27.4149" gradientUnits="userSpaceOnUse">
	<stop  offset="0" style="stop-color:#FF00FF"/>
	<stop  offset="1" style="stop-color:#FF5500"/>
</radialGradient>
<polygon class="st17" points="403,137.8 425.1,142.2 422.9,160.4 401.4,155.2 "/>
<radialGradient id="SVGID_19_" cx="423.5266" cy="175.0538" r="24.9255" gradientUnits="userSpaceOnUse">
	<stop  offset="0" style="stop-color:#FF00FF"/>
	<stop  offset="1" style="stop-color:#FF5500"/>
</radialGradient>
<polygon class="st18" points="428.7,169.8 444.8,182.9 432.2,199.1 413.3,188.4 "/>
<linearGradient id="SVGID_20_" gradientUnits="userSpaceOnUse" x1="266.6825" y1="93.1629" x2="290.0493" y2="93.1629">
	<stop  offset="0" style="stop-color:#FF5500"/>
	<stop  offset="1" style="stop-color:#FEC80E"/>
</linearGradient>
<path class="st19" d="M290,108.2l-5.1,7.1c0,0-16.1-11.8-16.2-27.2c0,0,0.3-3.8-1.7-10.4c-1.9-6.1,4.7-6.6,4.7-6.6s2-0.8,3.4,1.8
	s1.3,5,4.5,17.5C282.8,103,290,108.2,290,108.2z"/>
<g>
	<defs>
		<path id="SVGID_21_" d="M164.9,188.8c0,0-6.7,25.7-30,0s-49.8-13.3-56.5-6.3c-6.7,7-15,22.5-11.8,39.5"/>
	</defs>
	<clipPath id="SVGID_22_">
		<use xlink:href="#SVGID_21_"  style="overflow:visible;"/>
	</clipPath>
	<radialGradient id="SVGID_23_" cx="142.0728" cy="242.6587" r="277.4378" gradientUnits="userSpaceOnUse">
		<stop  offset="0" style="stop-color:#FEC80E"/>
		<stop  offset="1" style="stop-color:#FF5500"/>
	</radialGradient>
	<path class="st20" d="M10,381.4c0,0-33.4-237,212.7-255.5c0,0,158-11.1,190.3,168.6c0,0,12.2,43.8,31.8,40.3L47.2,408.6
		C47.2,408.6,11.4,419.7,10,381.4z"/>
</g>
<g>
	<defs>
		<path id="SVGID_24_" d="M210.3,174.2c0,0,14,18,38.3-13.8c0,0,28.4-36.7,68.3-11.3c0,0,14.6,8.9,13.4,33.4"/>
	</defs>
	<clipPath id="SVGID_25_">
		<use xlink:href="#SVGID_24_"  style="overflow:visible;"/>
	</clipPath>
	<radialGradient id="SVGID_26_" cx="142.0728" cy="242.6587" r="277.4378" gradientUnits="userSpaceOnUse">
		<stop  offset="0" style="stop-color:#FEC80E"/>
		<stop  offset="1" style="stop-color:#FF5500"/>
	</radialGradient>
	<path class="st21" d="M10,381.4c0,0-33.4-237,212.7-255.5c0,0,158-11.1,190.3,168.6c0,0,12.2,43.8,31.8,40.3L47.2,408.6
		C47.2,408.6,11.4,419.7,10,381.4z"/>
</g>
<g>
	<defs>
		<path id="SVGID_27_" d="M406.2,186.2c0,0,24-3.4,31.1,15.5l-8.2,8.1L406.2,186.2z"/>
	</defs>
	<clipPath id="SVGID_28_">
		<use xlink:href="#SVGID_27_"  style="overflow:visible;"/>
	</clipPath>
	<radialGradient id="SVGID_29_" cx="175.1818" cy="112.1622" r="312.4617" gradientUnits="userSpaceOnUse">
		<stop  offset="0" style="stop-color:#375EF0"/>
		<stop  offset="0.5081" style="stop-color:#581274"/>
		<stop  offset="1" style="stop-color:#1B1464"/>
	</radialGradient>
	<path class="st22" d="M378.1,226.7c0,0,37.5,20.9,42.7-4.7c0,0,23.7,9.5,36.7-10.3c0,0,7.9-8.7,0-20.5c0,0,0.8-17.8-19.4-22.9
		c0,0-8.7-17-28.8-18.2c0,0,2-32.8-31.2-34.4c0,0-6.3-21.7-36.7-22.5c0,0-24.1-24.5-47-3.6c0,0-14.2-19.4-39.9-11.8
		c0,0-21.7-10.7-47,15.4c0,0-41.5-1.6-46.6,31.2c0,0-26.1,3.6-35.5,24.1c0,0-37.1-5.9-54.5,38.3c0,0-29.2,20.1-21.7,41.3
		L378.1,226.7z"/>
</g>
<g>
	<defs>
		<path id="SVGID_30_" d="M375.4,195.4c-6.6-18.2,20.1-36.6,20.1-36.6l10.7,9.5l-13.8,10.5l-8.2,19L375.4,195.4z"/>
	</defs>
	<clipPath id="SVGID_31_">
		<use xlink:href="#SVGID_30_"  style="overflow:visible;"/>
	</clipPath>
	<radialGradient id="SVGID_32_" cx="175.1818" cy="112.1622" r="312.4617" gradientUnits="userSpaceOnUse">
		<stop  offset="0" style="stop-color:#375EF0"/>
		<stop  offset="0.5081" style="stop-color:#581274"/>
		<stop  offset="1" style="stop-color:#1B1464"/>
	</radialGradient>
	<path class="st23" d="M378.1,226.7c0,0,37.5,20.9,42.7-4.7c0,0,23.7,9.5,36.7-10.3c0,0,7.9-8.7,0-20.5c0,0,0.8-17.8-19.4-22.9
		c0,0-8.7-17-28.8-18.2c0,0,2-32.8-31.2-34.4c0,0-6.3-21.7-36.7-22.5c0,0-24.1-24.5-47-3.6c0,0-14.2-19.4-39.9-11.8
		c0,0-21.7-10.7-47,15.4c0,0-41.5-1.6-46.6,31.2c0,0-26.1,3.6-35.5,24.1c0,0-37.1-5.9-54.5,38.3c0,0-29.2,20.1-21.7,41.3
		L378.1,226.7z"/>
</g>
<g>
	<defs>
		<path id="SVGID_33_" d="M438.1,168.3c0,0-14.9-26.1-42.7-16.1l3.2,6.1L438.1,168.3z"/>
	</defs>
	<clipPath id="SVGID_34_">
		<use xlink:href="#SVGID_33_"  style="overflow:visible;"/>
	</clipPath>
	<radialGradient id="SVGID_35_" cx="175.1818" cy="112.1622" r="312.4617" gradientUnits="userSpaceOnUse">
		<stop  offset="0" style="stop-color:#375EF0"/>
		<stop  offset="0.5081" style="stop-color:#581274"/>
		<stop  offset="1" style="stop-color:#1B1464"/>
	</radialGradient>
	<path class="st24" d="M378.1,226.7c0,0,37.5,20.9,42.7-4.7c0,0,23.7,9.5,36.7-10.3c0,0,7.9-8.7,0-20.5c0,0,0.8-17.8-19.4-22.9
		c0,0-8.7-17-28.8-18.2c0,0,2-32.8-31.2-34.4c0,0-6.3-21.7-36.7-22.5c0,0-24.1-24.5-47-3.6c0,0-14.2-19.4-39.9-11.8
		c0,0-21.7-10.7-47,15.4c0,0-41.5-1.6-46.6,31.2c0,0-26.1,3.6-35.5,24.1c0,0-37.1-5.9-54.5,38.3c0,0-29.2,20.1-21.7,41.3
		L378.1,226.7z"/>
</g>
<g>
	<defs>
		<path id="SVGID_36_" d="M321.6,147.3c16.6-19.9,38.7-6.4,38.7-6.4l-1.2,5.1l-28.8,7.3L321.6,147.3z"/>
	</defs>
	<clipPath id="SVGID_37_">
		<use xlink:href="#SVGID_36_"  style="overflow:visible;"/>
	</clipPath>
	<radialGradient id="SVGID_38_" cx="175.1818" cy="112.1622" r="312.4617" gradientUnits="userSpaceOnUse">
		<stop  offset="0" style="stop-color:#375EF0"/>
		<stop  offset="0.5081" style="stop-color:#581274"/>
		<stop  offset="1" style="stop-color:#1B1464"/>
	</radialGradient>
	<path class="st25" d="M378.1,226.7c0,0,37.5,20.9,42.7-4.7c0,0,23.7,9.5,36.7-10.3c0,0,7.9-8.7,0-20.5c0,0,0.8-17.8-19.4-22.9
		c0,0-8.7-17-28.8-18.2c0,0,2-32.8-31.2-34.4c0,0-6.3-21.7-36.7-22.5c0,0-24.1-24.5-47-3.6c0,0-14.2-19.4-39.9-11.8
		c0,0-21.7-10.7-47,15.4c0,0-41.5-1.6-46.6,31.2c0,0-26.1,3.6-35.5,24.1c0,0-37.1-5.9-54.5,38.3c0,0-29.2,20.1-21.7,41.3
		L378.1,226.7z"/>
</g>
<radialGradient id="SVGID_39_" cx="298.4545" cy="91.3277" r="24.552" gradientUnits="userSpaceOnUse">
	<stop  offset="0" style="stop-color:#FF00FF"/>
	<stop  offset="1" style="stop-color:#FF5500"/>
</radialGradient>
<polygon class="st26" points="320.3,99.8 316.6,86.9 294.3,93.4 298.5,109 "/>
<g>
	<defs>
		<path id="SVGID_40_" d="M232.4,126.7c0,0,28.7-8.6,42.9,3.7l3.1,7.5l-46-5.9V126.7z"/>
	</defs>
	<clipPath id="SVGID_41_">
		<use xlink:href="#SVGID_40_"  style="overflow:visible;"/>
	</clipPath>
	<radialGradient id="SVGID_42_" cx="175.1818" cy="112.1622" r="312.4617" gradientUnits="userSpaceOnUse">
		<stop  offset="0" style="stop-color:#375EF0"/>
		<stop  offset="0.5081" style="stop-color:#581274"/>
		<stop  offset="1" style="stop-color:#1B1464"/>
	</radialGradient>
	<path class="st27" d="M378.1,226.7c0,0,37.5,20.9,42.7-4.7c0,0,23.7,9.5,36.7-10.3c0,0,7.9-8.7,0-20.5c0,0,0.8-17.8-19.4-22.9
		c0,0-8.7-17-28.8-18.2c0,0,2-32.8-31.2-34.4c0,0-6.3-21.7-36.7-22.5c0,0-24.1-24.5-47-3.6c0,0-14.2-19.4-39.9-11.8
		c0,0-21.7-10.7-47,15.4c0,0-41.5-1.6-46.6,31.2c0,0-26.1,3.6-35.5,24.1c0,0-37.1-5.9-54.5,38.3c0,0-29.2,20.1-21.7,41.3
		L378.1,226.7z"/>
</g>
<g>
	<defs>
		<path id="SVGID_43_" d="M196.8,110.2c0,0,12.6-19.9,33.6-17.3l5.1,8.5l-34,15.9L196.8,110.2z"/>
	</defs>
	<clipPath id="SVGID_44_">
		<use xlink:href="#SVGID_43_"  style="overflow:visible;"/>
	</clipPath>
	<radialGradient id="SVGID_45_" cx="175.1818" cy="112.1622" r="312.4617" gradientUnits="userSpaceOnUse">
		<stop  offset="0" style="stop-color:#375EF0"/>
		<stop  offset="0.5081" style="stop-color:#581274"/>
		<stop  offset="1" style="stop-color:#1B1464"/>
	</radialGradient>
	<path class="st28" d="M378.1,226.7c0,0,37.5,20.9,42.7-4.7c0,0,23.7,9.5,36.7-10.3c0,0,7.9-8.7,0-20.5c0,0,0.8-17.8-19.4-22.9
		c0,0-8.7-17-28.8-18.2c0,0,2-32.8-31.2-34.4c0,0-6.3-21.7-36.7-22.5c0,0-24.1-24.5-47-3.6c0,0-14.2-19.4-39.9-11.8
		c0,0-21.7-10.7-47,15.4c0,0-41.5-1.6-46.6,31.2c0,0-26.1,3.6-35.5,24.1c0,0-37.1-5.9-54.5,38.3c0,0-29.2,20.1-21.7,41.3
		L378.1,226.7z"/>
</g>
<g>
	<defs>
		<path id="SVGID_46_" d="M114.7,153.2c14.5-17.9,39.2-14.2,39.2-14.2l1.7,7l-37,12.3L114.7,153.2z"/>
	</defs>
	<clipPath id="SVGID_47_">
		<use xlink:href="#SVGID_46_"  style="overflow:visible;"/>
	</clipPath>
	<radialGradient id="SVGID_48_" cx="175.1818" cy="107.1622" r="312.4617" gradientUnits="userSpaceOnUse">
		<stop  offset="0" style="stop-color:#375EF0"/>
		<stop  offset="0.5081" style="stop-color:#581274"/>
		<stop  offset="1" style="stop-color:#1B1464"/>
	</radialGradient>
	<path class="st29" d="M378.1,221.7c0,0,37.5,20.9,42.7-4.7c0,0,23.7,9.5,36.7-10.3c0,0,7.9-8.7,0-20.5c0,0,0.8-17.8-19.4-22.9
		c0,0-8.7-17-28.8-18.2c0,0,2-32.8-31.2-34.4c0,0-6.3-21.7-36.7-22.5c0,0-24.1-24.5-47-3.6c0,0-14.2-19.4-39.9-11.8
		c0,0-21.7-10.7-47,15.4c0,0-41.5-1.6-46.6,31.2c0,0-26.1,3.6-35.5,24.1c0,0-37.1-5.9-54.5,38.3c0,0-29.2,20.1-21.7,41.3
		L378.1,221.7z"/>
</g>
<radialGradient id="SVGID_49_" cx="245.2807" cy="209.786" r="36.0491" gradientUnits="userSpaceOnUse">
	<stop  offset="0" style="stop-color:#00FFFF"/>
	<stop  offset="9.387377e-02" style="stop-color:#05F3F8"/>
	<stop  offset="0.2654" style="stop-color:#11D2E4"/>
	<stop  offset="0.4953" style="stop-color:#259CC5"/>
	<stop  offset="0.7714" style="stop-color:#40549A"/>
	<stop  offset="1" style="stop-color:#581274"/>
</radialGradient>
<path class="st30" d="M208.8,210.5c0,0,22.4,18.7,41-15.1c0,0,11.1-20,32-21.2c0,0-15.1,2-15.1,41.5c0,0,0.2,27.6-21.4,29.6
	S212.1,227.9,208.8,210.5z"/>
<radialGradient id="SVGID_50_" cx="129.9729" cy="227.3863" r="39.7234" gradientUnits="userSpaceOnUse">
	<stop  offset="0" style="stop-color:#00FFFF"/>
	<stop  offset="9.387377e-02" style="stop-color:#05F3F8"/>
	<stop  offset="0.2654" style="stop-color:#11D2E4"/>
	<stop  offset="0.4953" style="stop-color:#259CC5"/>
	<stop  offset="0.7714" style="stop-color:#40549A"/>
	<stop  offset="1" style="stop-color:#581274"/>
</radialGradient>
<path class="st31" d="M111.1,240.5c4,19.2,16.6,22.1,16.6,22.1c43.9,11.2,40.3-43.8,40.3-43.8s-15,25.7-39.1,3.9
	c0,0-13-12.6-41.5-8.7C87.5,214.1,105.6,214.1,111.1,240.5z"/>
<path class="st32" d="M210.3,174.2c0,0,14,18,38.3-13.8c0,0,28.4-36.7,68.3-11.3c0,0,14.6,8.9,13.4,33.4"/>
<path class="st33" d="M164.9,188.8c0,0-6.7,25.7-30,0s-49.8-13.3-56.5-6.3c-6.7,7-15,22.5-11.8,39.5"/>
<radialGradient id="SVGID_51_" cx="205.6352" cy="327.5401" r="37.2795" gradientUnits="userSpaceOnUse">
	<stop  offset="0" style="stop-color:#00FFFF"/>
	<stop  offset="9.387377e-02" style="stop-color:#05F3F8"/>
	<stop  offset="0.2654" style="stop-color:#11D2E4"/>
	<stop  offset="0.4953" style="stop-color:#259CC5"/>
	<stop  offset="0.7714" style="stop-color:#40549A"/>
	<stop  offset="1" style="stop-color:#581274"/>
</radialGradient>
<path class="st34" d="M192.9,325.7l2.1,27.9c0,0,0,10.5,11.6,9.5s24-4.5,24-4.5s7.1-2,6.6-13.4l-1.6-25.7L192.9,325.7"/>
<radialGradient id="SVGID_52_" cx="249.0981" cy="324.7943" r="25.9099" gradientUnits="userSpaceOnUse">
	<stop  offset="0" style="stop-color:#00FFFF"/>
	<stop  offset="9.387377e-02" style="stop-color:#05F3F8"/>
	<stop  offset="0.2654" style="stop-color:#11D2E4"/>
	<stop  offset="0.4953" style="stop-color:#259CC5"/>
	<stop  offset="0.7714" style="stop-color:#40549A"/>
	<stop  offset="1" style="stop-color:#581274"/>
</radialGradient>
<path class="st35" d="M235.5,319.5l1.6,25.7c0,0,0,6.3,5.8,5.5c5.8-0.8,25.5-5.5,25.5-5.5s5.8-2.2,5.3-10.1
	c-0.5-7.9-1.8-23.1-1.8-23.1L235.5,319.5z"/>
<radialGradient id="SVGID_53_" cx="284.7661" cy="315.5669" r="25.5269" gradientUnits="userSpaceOnUse">
	<stop  offset="0" style="stop-color:#00FFFF"/>
	<stop  offset="9.387377e-02" style="stop-color:#05F3F8"/>
	<stop  offset="0.2654" style="stop-color:#11D2E4"/>
	<stop  offset="0.4953" style="stop-color:#259CC5"/>
	<stop  offset="0.7714" style="stop-color:#40549A"/>
	<stop  offset="1" style="stop-color:#581274"/>
</radialGradient>
<path class="st36" d="M272,312.1l1.8,23.1c0,0,0.3,6.1,8,4.8c7.8-1.3,22-3.9,22-3.9s5.8-1.3,4.7-9.9s-3.1-22.9-3.1-22.9L272,312.1z"
	/>
<radialGradient id="SVGID_54_" cx="314.9084" cy="303.0769" r="25.2375" gradientUnits="userSpaceOnUse">
	<stop  offset="0" style="stop-color:#00FFFF"/>
	<stop  offset="9.387377e-02" style="stop-color:#05F3F8"/>
	<stop  offset="0.2654" style="stop-color:#11D2E4"/>
	<stop  offset="0.4953" style="stop-color:#259CC5"/>
	<stop  offset="0.7714" style="stop-color:#40549A"/>
	<stop  offset="1" style="stop-color:#581274"/>
</radialGradient>
<path class="st37" d="M305.4,303.2l3.1,22.9c0,0,0.3,4.4,8.2,3c7.9-1.3,17.4-7.5,17.4-7.5s3.7-2,3.7-7.5c0-5.5-2.9-20.8-2.9-20.8
	L305.4,303.2z"/>
<radialGradient id="SVGID_55_" cx="344.0148" cy="293.7693" r="23.2288" gradientUnits="userSpaceOnUse">
	<stop  offset="0" style="stop-color:#00FFFF"/>
	<stop  offset="9.387377e-02" style="stop-color:#05F3F8"/>
	<stop  offset="0.2654" style="stop-color:#11D2E4"/>
	<stop  offset="0.4953" style="stop-color:#259CC5"/>
	<stop  offset="0.7714" style="stop-color:#40549A"/>
	<stop  offset="1" style="stop-color:#581274"/>
</radialGradient>
<path class="st38" d="M334.8,293.4l2.9,20.8c0,0,1.1,4.5,8.2,2.6c7.1-1.8,16.1-6.2,16.1-6.2s3.7-2,3.4-8.2s-3.5-19.9-3.5-19.9
	L334.8,293.4z"/>
<radialGradient id="SVGID_56_" cx="165.6101" cy="337.2767" r="33.0806" gradientUnits="userSpaceOnUse">
	<stop  offset="0" style="stop-color:#00FFFF"/>
	<stop  offset="9.387377e-02" style="stop-color:#05F3F8"/>
	<stop  offset="0.2654" style="stop-color:#11D2E4"/>
	<stop  offset="0.4953" style="stop-color:#259CC5"/>
	<stop  offset="0.7714" style="stop-color:#40549A"/>
	<stop  offset="1" style="stop-color:#581274"/>
</radialGradient>
<path class="st39" d="M192.9,325.7l2.1,27.9c0,0,3.4,9.5-7.4,11.3c-10.8,1.8-22.8,2.6-22.8,2.6s-6.7,1.6-7.5-9.2
	c-0.8-10.8-1.8-29-1.8-29L192.9,325.7z"/>
<radialGradient id="SVGID_57_" cx="132.3671" cy="341.7137" r="29.3244" gradientUnits="userSpaceOnUse">
	<stop  offset="0" style="stop-color:#00FFFF"/>
	<stop  offset="9.387377e-02" style="stop-color:#05F3F8"/>
	<stop  offset="0.2654" style="stop-color:#11D2E4"/>
	<stop  offset="0.4953" style="stop-color:#259CC5"/>
	<stop  offset="0.7714" style="stop-color:#40549A"/>
	<stop  offset="1" style="stop-color:#581274"/>
</radialGradient>
<path class="st40" d="M157.4,358.3c0,0,1.6,7.1-10,7.6c-11.6,0.5-16.9,0-16.9,0s-6.6-0.3-7.4-7.6c-0.8-7.4,0-27.1,0-27.1l32.5-1.9
	L157.4,358.3z"/>
<radialGradient id="SVGID_58_" cx="103.4374" cy="341.2227" r="25.1054" gradientUnits="userSpaceOnUse">
	<stop  offset="0" style="stop-color:#00FFFF"/>
	<stop  offset="9.387377e-02" style="stop-color:#05F3F8"/>
	<stop  offset="0.2654" style="stop-color:#11D2E4"/>
	<stop  offset="0.4953" style="stop-color:#259CC5"/>
	<stop  offset="0.7714" style="stop-color:#40549A"/>
	<stop  offset="1" style="stop-color:#581274"/>
</radialGradient>
<path class="st41" d="M123.1,358.3c0,0-0.6,4.4-7.8,4.8c-7.2,0.5-16.2,0-16.2,0s-6.6-2.2-6.6-7.7c0-5.5,0-23.5,0-23.5l30.5-0.7
	V358.3z"/>
<radialGradient id="SVGID_59_" cx="74.1093" cy="338.6034" r="24.5961" gradientUnits="userSpaceOnUse">
	<stop  offset="0" style="stop-color:#00FFFF"/>
	<stop  offset="9.387377e-02" style="stop-color:#05F3F8"/>
	<stop  offset="0.2654" style="stop-color:#11D2E4"/>
	<stop  offset="0.4953" style="stop-color:#259CC5"/>
	<stop  offset="0.7714" style="stop-color:#40549A"/>
	<stop  offset="1" style="stop-color:#581274"/>
</radialGradient>
<path class="st42" d="M92.6,332v23.5c0,0-0.3,5-5.1,5.3c-4.9,0.3-12.5,0-12.5,0s-6.1-2.4-6.1-7.4s0-21.5,0-21.5L92.6,332z"/>
<radialGradient id="SVGID_60_" cx="49.7523" cy="336.7642" r="24.7705" gradientUnits="userSpaceOnUse">
	<stop  offset="0" style="stop-color:#00FFFF"/>
	<stop  offset="9.387377e-02" style="stop-color:#05F3F8"/>
	<stop  offset="0.2654" style="stop-color:#11D2E4"/>
	<stop  offset="0.4953" style="stop-color:#259CC5"/>
	<stop  offset="0.7714" style="stop-color:#40549A"/>
	<stop  offset="1" style="stop-color:#581274"/>
</radialGradient>
<path class="st43" d="M68.9,331.8v21.5c0,0-0.8,4.5-4.2,4.5c-3.4,0-14.5-1.6-14.5-1.6s-3.7-0.1-3.9-5.5c-0.3-5.3-0.1-19.6-0.1-19.6
	L68.9,331.8z"/>
<radialGradient id="SVGID_61_" cx="31.4296" cy="335.2876" r="19.7655" gradientUnits="userSpaceOnUse">
	<stop  offset="0" style="stop-color:#00FFFF"/>
	<stop  offset="9.387377e-02" style="stop-color:#05F3F8"/>
	<stop  offset="0.2654" style="stop-color:#11D2E4"/>
	<stop  offset="0.4953" style="stop-color:#259CC5"/>
	<stop  offset="0.7714" style="stop-color:#40549A"/>
	<stop  offset="1" style="stop-color:#581274"/>
</radialGradient>
<path class="st44" d="M46.1,331.2l0.1,19.6c0,0,0.2,3.2-4,3c-4.2-0.2-12.9-1.7-12.9-1.7s-3.9-1.3-3.9-5.8c0.1-4.4,0-16.3,0-16.3
	L46.1,331.2z"/>
<radialGradient id="SVGID_62_" cx="9.9288" cy="332.4476" r="19.2515" gradientUnits="userSpaceOnUse">
	<stop  offset="0" style="stop-color:#00FFFF"/>
	<stop  offset="9.387377e-02" style="stop-color:#05F3F8"/>
	<stop  offset="0.2654" style="stop-color:#11D2E4"/>
	<stop  offset="0.4953" style="stop-color:#259CC5"/>
	<stop  offset="0.7714" style="stop-color:#40549A"/>
	<stop  offset="1" style="stop-color:#581274"/>
</radialGradient>
<path class="st45" d="M10.5,328.8c-2.8,18.7,4,18.8,9.1,19.3s5.8-1.8,5.8-1.8l0-16.3L10.5,328.8"/>
<radialGradient id="SVGID_63_" cx="367.4205" cy="285.3636" r="18.0778" gradientUnits="userSpaceOnUse">
	<stop  offset="0" style="stop-color:#00FFFF"/>
	<stop  offset="9.387377e-02" style="stop-color:#05F3F8"/>
	<stop  offset="0.2654" style="stop-color:#11D2E4"/>
	<stop  offset="0.4953" style="stop-color:#259CC5"/>
	<stop  offset="0.7714" style="stop-color:#40549A"/>
	<stop  offset="1" style="stop-color:#581274"/>
</radialGradient>
<path class="st46" d="M361.8,282.5l3.5,19.9c0,0,1.5,3.6,6.1,1.6c4.5-2,10.1-5.6,10.1-5.6s3.8-2.9,2.3-9.5s-3.7-15-3.7-15
	L361.8,282.5z"/>
<radialGradient id="SVGID_64_" cx="387.2616" cy="271.8753" r="16.9676" gradientUnits="userSpaceOnUse">
	<stop  offset="0" style="stop-color:#00FFFF"/>
	<stop  offset="9.387377e-02" style="stop-color:#05F3F8"/>
	<stop  offset="0.2654" style="stop-color:#11D2E4"/>
	<stop  offset="0.4953" style="stop-color:#259CC5"/>
	<stop  offset="0.7714" style="stop-color:#40549A"/>
	<stop  offset="1" style="stop-color:#581274"/>
</radialGradient>
<path class="st47" d="M380,273.9l3.7,15c0,0,1.2,4,6.9,0.3c5.7-3.7,10-6.9,10-6.9s7.6-5.9,1.3-20.5L380,273.9z"/>
<g>
	<defs>
		<path id="SVGID_65_" d="M333,102.7c0,0-17.4-15.3-38.7,7.5"/>
	</defs>
	<clipPath id="SVGID_66_">
		<use xlink:href="#SVGID_65_"  style="overflow:visible;"/>
	</clipPath>
	<radialGradient id="SVGID_67_" cx="175.1818" cy="112.1622" r="312.4617" gradientUnits="userSpaceOnUse">
		<stop  offset="0" style="stop-color:#375EF0"/>
		<stop  offset="0.5081" style="stop-color:#581274"/>
		<stop  offset="1" style="stop-color:#1B1464"/>
	</radialGradient>
	<path class="st55" d="M378.1,226.7c0,0,37.5,20.9,42.7-4.7c0,0,23.7,9.5,36.7-10.3c0,0,7.9-8.7,0-20.5c0,0,0.8-17.8-19.4-22.9
		c0,0-8.7-17-28.8-18.2c0,0,2-32.8-31.2-34.4c0,0-6.3-21.7-36.7-22.5c0,0-24.1-24.5-47-3.6c0,0-14.2-19.4-39.9-11.8
		c0,0-21.7-10.7-47,15.4c0,0-41.5-1.6-46.6,31.2c0,0-26.1,3.6-35.5,24.1c0,0-37.1-5.9-54.5,38.3c0,0-29.2,20.1-21.7,41.3
		L378.1,226.7z"/>
</g>
<path class="st33" d="M210.3,174.2c0,0,14,18,38.3-13.8c0,0,28.4-36.7,68.3-11.3c0,0,14.6,8.9,13.4,33.4"/>
<path class="st33" d="M208.8,210.5c0,0,22.4,18.7,41-15.1c0,0,11.1-20,32-21.2"/>
<path class="st33" d="M168,218.8c0,0-15,25.7-39.1,3.9c0,0-13-12.6-41.5-8.7"/>
</svg>
