<?xml version="1.0" encoding="utf-8"?>
<!-- Generator: Adobe Illustrator 21.1.0, SVG Export Plug-In . SVG Version: 6.00 Build 0)  -->
<svg version="1.1" id="Layer_1" xmlns="http://www.w3.org/2000/svg" xmlns:xlink="http://www.w3.org/1999/xlink" x="0px" y="0px"
	 viewBox="0 0 2048 1536" style="enable-background:new 0 0 2048 1536;" xml:space="preserve" preserveAspectRatio="none">
<style type="text/css">
	.st0{fill:#00FFFF;}
	.st1{fill:#FF00FF;}
	.st2{fill:#375EF0;}
	.st3{fill:#1B1464;}
	.st4{fill:#FEC80E;}
	.st5{fill:#581274;}
	.st6{fill:#FF5500;}
	.st7{opacity:0.45;fill:url(#SVGID_1_);}
	.st8{opacity:0.45;fill:url(#SVGID_2_);}
	.st9{opacity:0.45;fill:url(#SVGID_3_);}
	.st10{opacity:0.45;fill:url(#SVGID_4_);}
	.st11{opacity:0.45;fill:url(#SVGID_5_);}
	.st12{opacity:0.45;fill:url(#SVGID_6_);}
	.st13{opacity:0.45;fill:url(#SVGID_7_);}
	.st14{opacity:0.6;fill:url(#SVGID_8_);}
	.st15{opacity:0.4;fill:url(#SVGID_9_);}
	.st16{opacity:0.5;fill:url(#SVGID_10_);}
	.st17{opacity:0.4;fill:url(#SVGID_11_);}
	.st18{opacity:0.5;fill:url(#SVGID_12_);}
	.st19{opacity:0.6;fill:url(#SVGID_13_);}
	.st20{opacity:0.4;fill:url(#SVGID_14_);}
	.st21{opacity:0.5;fill:url(#SVGID_15_);}
	.st22{opacity:0.6;fill:url(#SVGID_16_);}
	.st23{opacity:0.4;fill:url(#SVGID_17_);}
	.st24{opacity:0.5;fill:url(#SVGID_18_);}
</style>
<g>
	<linearGradient id="SVGID_1_" gradientUnits="userSpaceOnUse" x1="85.6398" y1="180.7759" x2="400.5848" y2="180.7759">
		<stop  offset="0" style="stop-color:#FFFFFF"/>
		<stop  offset="0.4045" style="stop-color:#F9F9F9"/>
		<stop  offset="0.9424" style="stop-color:#E8E8E8"/>
		<stop  offset="1" style="stop-color:#E6E6E6"/>
	</linearGradient>
	<polygon class="st7" points="299,-6.5 -16,368.1 -16,-6.5 	"/>
	<linearGradient id="SVGID_2_" gradientUnits="userSpaceOnUse" x1="1366.4562" y1="1805.9037" x2="1129.0186" y2="634.6005">
		<stop  offset="0" style="stop-color:#FFFFFF"/>
		<stop  offset="0.4045" style="stop-color:#F9F9F9"/>
		<stop  offset="0.9424" style="stop-color:#E8E8E8"/>
		<stop  offset="1" style="stop-color:#E6E6E6"/>
	</linearGradient>
	<polygon class="st8" points="1777.5,1542.5 1272.5,891.1 848.7,1542.5 	"/>
	<linearGradient id="SVGID_3_" gradientUnits="userSpaceOnUse" x1="258.423" y1="1170.106" x2="318.0073" y2="1948.6173">
		<stop  offset="0" style="stop-color:#FFFFFF"/>
		<stop  offset="0.9797" style="stop-color:#E7E7E7"/>
		<stop  offset="1" style="stop-color:#E6E6E6"/>
	</linearGradient>
	<polygon class="st9" points="-16,1535.5 -16,860.2 588.7,1535.5 	"/>
	<linearGradient id="SVGID_4_" gradientUnits="userSpaceOnUse" x1="671.1649" y1="445.2572" x2="-445.5898" y2="1504.2872">
		<stop  offset="0" style="stop-color:#FFFFFF"/>
		<stop  offset="0.9797" style="stop-color:#E7E7E7"/>
		<stop  offset="1" style="stop-color:#E6E6E6"/>
	</linearGradient>
	<polygon class="st10" points="489.4,1423.3 1163.2,767.5 1145,-7.5 299,-7.5 -16,368.1 -16,860.2 	"/>
	<linearGradient id="SVGID_5_" gradientUnits="userSpaceOnUse" x1="1750.5054" y1="410.5179" x2="2365.3379" y2="928.3159">
		<stop  offset="0" style="stop-color:#FFFFFF"/>
		<stop  offset="0.4045" style="stop-color:#F9F9F9"/>
		<stop  offset="0.9424" style="stop-color:#E8E8E8"/>
		<stop  offset="1" style="stop-color:#E6E6E6"/>
	</linearGradient>
	<polygon class="st11" points="2049,767.5 1264.6,663.7 1913.2,-0.5 2049,-0.5 	"/>
	<linearGradient id="SVGID_6_" gradientUnits="userSpaceOnUse" x1="1287.7118" y1="545.9242" x2="1246.8955" y2="2614.7578">
		<stop  offset="0" style="stop-color:#FFFFFF"/>
		<stop  offset="0.4045" style="stop-color:#F9F9F9"/>
		<stop  offset="0.9424" style="stop-color:#E8E8E8"/>
		<stop  offset="1" style="stop-color:#E6E6E6"/>
	</linearGradient>
	<polygon class="st12" points="489.4,1423.3 1264.6,663.7 2049,767.5 2049,1541.5 1777.5,1541.5 1272.5,891.1 848.7,1541.5 
		588.7,1541.5 	"/>
	<linearGradient id="SVGID_7_" gradientUnits="userSpaceOnUse" x1="1417.6136" y1="364.7083" x2="656.7231" y2="246.1589">
		<stop  offset="0" style="stop-color:#FFFFFF"/>
		<stop  offset="0.4045" style="stop-color:#F9F9F9"/>
		<stop  offset="0.9424" style="stop-color:#E8E8E8"/>
		<stop  offset="1" style="stop-color:#E6E6E6"/>
	</linearGradient>
	<polygon class="st13" points="1145,-0.5 1163.2,767.5 1913.2,-0.5 	"/>
	<g>
		
			<linearGradient id="SVGID_8_" gradientUnits="userSpaceOnUse" x1="498.8822" y1="1820.5149" x2="481.2873" y2="1316.6621" gradientTransform="matrix(0.9917 0.1284 -0.1284 0.9917 190.3754 64.0927)">
			<stop  offset="0" style="stop-color:#375EF0"/>
			<stop  offset="9.064460e-02" style="stop-color:#2F75F2"/>
			<stop  offset="0.3101" style="stop-color:#1FA6F7"/>
			<stop  offset="0.5179" style="stop-color:#11CCFA"/>
			<stop  offset="0.7081" style="stop-color:#08E8FD"/>
			<stop  offset="0.8749" style="stop-color:#02F9FE"/>
			<stop  offset="1" style="stop-color:#00FFFF"/>
		</linearGradient>
		<path class="st14" d="M-541,1593.2c0,0,207.4,57.1,835.9-93.4s969.2,115.4,969.2,115.4s127.4,107.2,228.2,231.2l-21.2,155.4
			c0,0-289.7-387-616.1-420.3c-326.4-33.3-556.3,59.9-556.3,59.9s-655.4,217.6-871.4,195.7L-541,1593.2z"/>
		
			<linearGradient id="SVGID_9_" gradientUnits="userSpaceOnUse" x1="498.787" y1="1720.1418" x2="486.1494" y2="1358.2498" gradientTransform="matrix(0.9917 0.1284 -0.1284 0.9917 190.3754 64.0927)">
			<stop  offset="0" style="stop-color:#375EF0"/>
			<stop  offset="9.064460e-02" style="stop-color:#2F75F2"/>
			<stop  offset="0.3101" style="stop-color:#1FA6F7"/>
			<stop  offset="0.5179" style="stop-color:#11CCFA"/>
			<stop  offset="0.7081" style="stop-color:#08E8FD"/>
			<stop  offset="0.8749" style="stop-color:#02F9FE"/>
			<stop  offset="1" style="stop-color:#00FFFF"/>
		</linearGradient>
		<path class="st15" d="M-553,1666.4l21.1-162.6c0,0,356.1-203.9,1338.1,62.4c0,0,463.9,108.9,708.5,80.9l-35.5,282.6
			c0,0-488.5-121.7-666.2-197.2C635,1657-59.9,1385.5-553,1666.4z"/>
		
			<linearGradient id="SVGID_10_" gradientUnits="userSpaceOnUse" x1="495.6771" y1="1596.8101" x2="482.9142" y2="1231.3291" gradientTransform="matrix(0.9917 0.1284 -0.1284 0.9917 190.3754 64.0927)">
			<stop  offset="0" style="stop-color:#375EF0"/>
			<stop  offset="9.064460e-02" style="stop-color:#2F75F2"/>
			<stop  offset="0.3101" style="stop-color:#1FA6F7"/>
			<stop  offset="0.5179" style="stop-color:#11CCFA"/>
			<stop  offset="0.7081" style="stop-color:#08E8FD"/>
			<stop  offset="0.8749" style="stop-color:#02F9FE"/>
			<stop  offset="1" style="stop-color:#00FFFF"/>
		</linearGradient>
		<path class="st16" d="M-534.3,1521.7l23.4-180.5c0,0,306.5-194.2,1208.2,146.4c0,0,521.8,190.6,810,207.8l-12.4,111.9
			c0,0-397.1-76.2-863.8-227.4S-221.9,1390.7-534.3,1521.7z"/>
		
			<linearGradient id="SVGID_11_" gradientUnits="userSpaceOnUse" x1="1563.9789" y1="646.9152" x2="1551.3413" y2="285.0231" gradientTransform="matrix(-0.9917 -0.1284 0.1284 -0.9917 1975.0673 2229.126)">
			<stop  offset="0" style="stop-color:#375EF0"/>
			<stop  offset="9.064460e-02" style="stop-color:#2F75F2"/>
			<stop  offset="0.3101" style="stop-color:#1FA6F7"/>
			<stop  offset="0.5179" style="stop-color:#11CCFA"/>
			<stop  offset="0.7081" style="stop-color:#08E8FD"/>
			<stop  offset="0.8749" style="stop-color:#02F9FE"/>
			<stop  offset="1" style="stop-color:#00FFFF"/>
		</linearGradient>
		<path class="st17" d="M1506,1717.2c0,0-356.1,203.9-1338.1-62.4c0,0-463.9-108.9-708.5-80.9l35.5-282.6
			c0,0,488.5,121.7,666.2,197.2"/>
		
			<linearGradient id="SVGID_12_" gradientUnits="userSpaceOnUse" x1="1558.0089" y1="523.6833" x2="1545.2461" y2="158.2024" gradientTransform="matrix(-0.9917 -0.1284 0.1284 -0.9917 1975.0673 2229.126)">
			<stop  offset="0" style="stop-color:#375EF0"/>
			<stop  offset="9.064460e-02" style="stop-color:#2F75F2"/>
			<stop  offset="0.3101" style="stop-color:#1FA6F7"/>
			<stop  offset="0.5179" style="stop-color:#11CCFA"/>
			<stop  offset="0.7081" style="stop-color:#08E8FD"/>
			<stop  offset="0.8749" style="stop-color:#02F9FE"/>
			<stop  offset="1" style="stop-color:#00FFFF"/>
		</linearGradient>
		<path class="st18" d="M1508.3,1699.4l-23.4,180.5c0,0-306.5,194.2-1208.2-146.4c0,0-521.8-190.6-810-207.8l12.4-111.9
			c0,0,397.1,76.2,863.8,227.4S1195.9,1830.3,1508.3,1699.4z"/>
	</g>
	<g>
		
			<linearGradient id="SVGID_13_" gradientUnits="userSpaceOnUse" x1="664.0798" y1="-83.0543" x2="647.4491" y2="-559.2966" gradientTransform="matrix(0.9884 0.1519 -0.1519 0.9884 489.3771 143.5033)">
			<stop  offset="0" style="stop-color:#375EF0"/>
			<stop  offset="9.064460e-02" style="stop-color:#2F75F2"/>
			<stop  offset="0.3101" style="stop-color:#1FA6F7"/>
			<stop  offset="0.5179" style="stop-color:#11CCFA"/>
			<stop  offset="0.7081" style="stop-color:#08E8FD"/>
			<stop  offset="0.8749" style="stop-color:#02F9FE"/>
			<stop  offset="1" style="stop-color:#00FFFF"/>
		</linearGradient>
		<path class="st19" d="M167-174.6c0,0,206,62,837.9-73.6s966.2,138.4,966.2,138.4s124.8,110.2,222.7,236.6l-24.9,154.9
			c0,0-280.4-393.7-606-434.8s-557.6,46.7-557.6,46.7"/>
		
			<linearGradient id="SVGID_14_" gradientUnits="userSpaceOnUse" x1="663.2277" y1="-135.8327" x2="650.5901" y2="-497.7249" gradientTransform="matrix(0.9884 0.1519 -0.1519 0.9884 489.3771 143.5033)">
			<stop  offset="0" style="stop-color:#375EF0"/>
			<stop  offset="9.064460e-02" style="stop-color:#2F75F2"/>
			<stop  offset="0.3101" style="stop-color:#1FA6F7"/>
			<stop  offset="0.5179" style="stop-color:#11CCFA"/>
			<stop  offset="0.7081" style="stop-color:#08E8FD"/>
			<stop  offset="0.8749" style="stop-color:#02F9FE"/>
			<stop  offset="1" style="stop-color:#00FFFF"/>
		</linearGradient>
		<path class="st20" d="M152.7-81.7l24.9-162.1c0,0,360.9-195.4,1336.2,94.1c0,0,461.1,119.8,706.4,97.6L2178,229.6
			c0,0-485.4-133.3-661.4-212.9S652.4-350.9,152.7-81.7z"/>
		
			<linearGradient id="SVGID_15_" gradientUnits="userSpaceOnUse" x1="660.1178" y1="-259.1646" x2="647.3549" y2="-624.6454" gradientTransform="matrix(0.9884 0.1519 -0.1519 0.9884 489.3771 143.5033)">
			<stop  offset="0" style="stop-color:#375EF0"/>
			<stop  offset="9.064460e-02" style="stop-color:#2F75F2"/>
			<stop  offset="0.3101" style="stop-color:#1FA6F7"/>
			<stop  offset="0.5179" style="stop-color:#11CCFA"/>
			<stop  offset="0.7081" style="stop-color:#08E8FD"/>
			<stop  offset="0.8749" style="stop-color:#02F9FE"/>
			<stop  offset="1" style="stop-color:#00FFFF"/>
		</linearGradient>
		<path class="st21" d="M174.9-226l27.6-179.9c0,0,311-186.9,1204.4,175c0,0,517.2,202.9,804.9,226.9l-15.1,111.6
			c0,0-395.2-85.6-858.1-247.8S490.3-349.5,174.9-226z"/>
		
			<linearGradient id="SVGID_16_" gradientUnits="userSpaceOnUse" x1="1394.2045" y1="2583.5283" x2="1376.6095" y2="2079.6755" gradientTransform="matrix(-0.9884 -0.1519 0.1519 -0.9884 2222.2634 2350.2202)">
			<stop  offset="0" style="stop-color:#375EF0"/>
			<stop  offset="9.064460e-02" style="stop-color:#2F75F2"/>
			<stop  offset="0.3101" style="stop-color:#1FA6F7"/>
			<stop  offset="0.5179" style="stop-color:#11CCFA"/>
			<stop  offset="0.7081" style="stop-color:#08E8FD"/>
			<stop  offset="0.8749" style="stop-color:#02F9FE"/>
			<stop  offset="1" style="stop-color:#00FFFF"/>
		</linearGradient>
		<path class="st22" d="M2220.6-51.3c0,0-206-62-837.9,73.6S416.5-116.1,416.5-116.1S291.7-226.4,193.8-352.7l24.9-154.9
			c0,0,280.4,393.7,606,434.8s557.6-46.7,557.6-46.7s660.4-202,875.7-175L2220.6-51.3z"/>
		
			<linearGradient id="SVGID_17_" gradientUnits="userSpaceOnUse" x1="1396.6781" y1="2502.9897" x2="1384.0405" y2="2141.0977" gradientTransform="matrix(-0.9884 -0.1519 0.1519 -0.9884 2222.2634 2350.2202)">
			<stop  offset="0" style="stop-color:#375EF0"/>
			<stop  offset="9.064460e-02" style="stop-color:#2F75F2"/>
			<stop  offset="0.3101" style="stop-color:#1FA6F7"/>
			<stop  offset="0.5179" style="stop-color:#11CCFA"/>
			<stop  offset="0.7081" style="stop-color:#08E8FD"/>
			<stop  offset="0.8749" style="stop-color:#02F9FE"/>
			<stop  offset="1" style="stop-color:#00FFFF"/>
		</linearGradient>
		<path class="st23" d="M2234.9-144.2L2210,17.9c0,0-360.9,195.4-1336.2-94.1c0,0-461.1-119.8-706.4-97.6l42.2-281.7
			c0,0,485.4,133.3,661.4,212.9S1735.2,125,2234.9-144.2z"/>
		
			<linearGradient id="SVGID_18_" gradientUnits="userSpaceOnUse" x1="1393.5682" y1="2379.658" x2="1380.8054" y2="2014.177" gradientTransform="matrix(-0.9884 -0.1519 0.1519 -0.9884 2222.2634 2350.2202)">
			<stop  offset="0" style="stop-color:#375EF0"/>
			<stop  offset="9.064460e-02" style="stop-color:#2F75F2"/>
			<stop  offset="0.3101" style="stop-color:#1FA6F7"/>
			<stop  offset="0.5179" style="stop-color:#11CCFA"/>
			<stop  offset="0.7081" style="stop-color:#08E8FD"/>
			<stop  offset="0.8749" style="stop-color:#02F9FE"/>
			<stop  offset="1" style="stop-color:#00FFFF"/>
		</linearGradient>
		<path class="st24" d="M2212.7,0.1L2185.1,180c0,0-311,186.9-1204.4-175c0,0-517.2-202.9-804.9-226.9l15.1-111.6
			c0,0,395.2,85.6,858.1,247.8S1897.3,123.6,2212.7,0.1z"/>
	</g>
</g>
</svg>
