<svg id="Layer_1" data-name="Layer 1" xmlns="http://www.w3.org/2000/svg" xmlns:xlink="http://www.w3.org/1999/xlink" viewBox="0 0 2048 1536" preserveAspectRatio="none"><defs><style>.cls-1,.cls-2,.cls-3,.cls-4,.cls-5,.cls-6,.cls-7{opacity:0.45;}.cls-1{fill:url(#linear-gradient);}.cls-2{fill:url(#linear-gradient-2);}.cls-3{fill:url(#linear-gradient-3);}.cls-4{fill:url(#linear-gradient-4);}.cls-5{fill:url(#linear-gradient-5);}.cls-6{fill:url(#linear-gradient-6);}.cls-7{fill:url(#linear-gradient-7);}.cls-13,.cls-16,.cls-8{opacity:0.6;}.cls-8{fill:url(#linear-gradient-8);}.cls-11,.cls-14,.cls-17,.cls-9{opacity:0.4;}.cls-9{fill:url(#linear-gradient-9);}.cls-10,.cls-12,.cls-15,.cls-18{opacity:0.5;}.cls-10{fill:url(#linear-gradient-10);}.cls-11{fill:url(#linear-gradient-11);}.cls-12{fill:url(#linear-gradient-12);}.cls-13{fill:url(#linear-gradient-13);}.cls-14{fill:url(#linear-gradient-14);}.cls-15{fill:url(#linear-gradient-15);}.cls-16{fill:url(#linear-gradient-16);}.cls-17{fill:url(#linear-gradient-17);}.cls-18{fill:url(#linear-gradient-18);}</style><linearGradient id="linear-gradient" x1="85.64" y1="180.776" x2="400.585" y2="180.776" gradientUnits="userSpaceOnUse"><stop offset="0" stop-color="#fff"/><stop offset="0.404" stop-color="#f9f9f9"/><stop offset="0.942" stop-color="#e8e8e8"/><stop offset="1" stop-color="#e6e6e6"/></linearGradient><linearGradient id="linear-gradient-2" x1="1366.456" y1="1805.904" x2="1129.019" y2="634.6" xlink:href="#linear-gradient"/><linearGradient id="linear-gradient-3" x1="258.423" y1="1170.106" x2="318.007" y2="1948.617" gradientUnits="userSpaceOnUse"><stop offset="0" stop-color="#fff"/><stop offset="0.98" stop-color="#e7e7e7"/><stop offset="1" stop-color="#e6e6e6"/></linearGradient><linearGradient id="linear-gradient-4" x1="671.165" y1="445.257" x2="-445.59" y2="1504.287" xlink:href="#linear-gradient-3"/><linearGradient id="linear-gradient-5" x1="1750.505" y1="410.518" x2="2365.338" y2="928.316" xlink:href="#linear-gradient"/><linearGradient id="linear-gradient-6" x1="1287.712" y1="545.924" x2="1246.896" y2="2614.758" xlink:href="#linear-gradient"/><linearGradient id="linear-gradient-7" x1="1374.956" y1="477.24" x2="570.49" y2="351.902" xlink:href="#linear-gradient"/><linearGradient id="linear-gradient-8" x1="498.882" y1="1820.515" x2="481.287" y2="1316.662" gradientTransform="translate(190.375 64.093) rotate(7.38)" gradientUnits="userSpaceOnUse"><stop offset="0" stop-color="#375ef0"/><stop offset="0.091" stop-color="#2f75f2"/><stop offset="0.31" stop-color="#1fa6f7"/><stop offset="0.518" stop-color="#11ccfa"/><stop offset="0.708" stop-color="#08e8fd"/><stop offset="0.875" stop-color="#02f9fe"/><stop offset="1" stop-color="aqua"/></linearGradient><linearGradient id="linear-gradient-9" x1="498.787" y1="1720.142" x2="486.149" y2="1358.25" xlink:href="#linear-gradient-8"/><linearGradient id="linear-gradient-10" x1="495.677" y1="1596.81" x2="482.914" y2="1231.329" xlink:href="#linear-gradient-8"/><linearGradient id="linear-gradient-11" x1="1563.979" y1="646.915" x2="1551.341" y2="285.023" gradientTransform="translate(1975.067 2229.126) rotate(-172.62)" xlink:href="#linear-gradient-8"/><linearGradient id="linear-gradient-12" x1="1558.009" y1="523.683" x2="1545.246" y2="158.202" gradientTransform="translate(1975.067 2229.126) rotate(-172.62)" xlink:href="#linear-gradient-8"/><linearGradient id="linear-gradient-13" x1="664.08" y1="-83.054" x2="647.449" y2="-559.297" gradientTransform="translate(489.377 143.503) rotate(8.738)" xlink:href="#linear-gradient-8"/><linearGradient id="linear-gradient-14" x1="663.228" y1="-135.833" x2="650.59" y2="-497.725" gradientTransform="translate(489.377 143.503) rotate(8.738)" xlink:href="#linear-gradient-8"/><linearGradient id="linear-gradient-15" x1="660.118" y1="-259.165" x2="647.355" y2="-624.645" gradientTransform="translate(489.377 143.503) rotate(8.738)" xlink:href="#linear-gradient-8"/><linearGradient id="linear-gradient-16" x1="1394.204" y1="2583.528" x2="1376.61" y2="2079.676" gradientTransform="translate(2222.263 2350.22) rotate(-171.262)" xlink:href="#linear-gradient-8"/><linearGradient id="linear-gradient-17" x1="1396.678" y1="2502.99" x2="1384.041" y2="2141.098" gradientTransform="translate(2222.263 2350.22) rotate(-171.262)" xlink:href="#linear-gradient-8"/><linearGradient id="linear-gradient-18" x1="1393.568" y1="2379.658" x2="1380.805" y2="2014.177" gradientTransform="translate(2222.263 2350.22) rotate(-171.262)" xlink:href="#linear-gradient-8"/></defs><title>background</title><polygon class="cls-1" points="298.995 -6.5 -15.95 368.052 -15.95 -6.5 298.995 -6.5"/><polygon class="cls-2" points="1777.462 1542.5 1272.498 891.086 848.66 1542.5 1777.462 1542.5"/><polygon class="cls-3" points="-15.95 1535.5 -15.95 860.19 588.728 1535.5 -15.95 1535.5"/><polygon class="cls-4" points="489.422 1423.296 1163.228 767.5 1145.016 -7.5 298.995 -7.5 -15.95 368.052 -15.95 860.19 489.422 1423.296"/><polygon class="cls-5" points="2049.05 767.5 1264.573 663.722 1913.223 -0.5 2049.05 -0.5 2049.05 767.5"/><polygon class="cls-6" points="489.422 1423.296 1264.573 663.722 2049.05 767.5 2049.05 1541.5 1777.462 1541.5 1272.498 891.086 848.66 1541.5 588.728 1541.5 489.422 1423.296"/><polygon class="cls-7" points="1145.016 -0.5 949.418 972.544 1913.223 -0.5 1145.016 -0.5"/><path class="cls-8" d="M-540.954,1593.22s207.382,57.111,835.922-93.4,969.2,115.447,969.2,115.447,127.379,107.25,228.239,231.232l-21.187,155.411s-289.7-386.964-616.121-420.275-556.3,59.852-556.3,59.852-655.382,217.621-871.355,195.7Z"/><path class="cls-9" d="M-553.028,1666.441l21.065-162.641s356.146-203.944,1338.071,62.388c0,0,463.859,108.862,708.482,80.862l-35.542,282.586s-488.458-121.749-666.238-197.21S-59.851,1385.461-553.028,1666.441Z"/><path class="cls-10" d="M-534.275,1521.651l23.377-180.492s306.489-194.242,1208.2,146.4c0,0,521.84,190.608,810.023,207.766l-12.425,111.89s-397.1-76.2-863.77-227.392S-221.866,1390.694-534.275,1521.651Z"/><path class="cls-11" d="M1506.033,1717.2s-356.146,203.944-1338.071-62.388c0,0-463.859-108.862-708.482-80.862l35.542-282.586s488.458,121.749,666.238,197.21"/><path class="cls-12" d="M1508.345,1699.352l-23.377,180.492s-306.489,194.242-1208.2-146.4c0,0-521.84-190.608-810.023-207.766l12.425-111.89s397.1,76.2,863.77,227.392S1195.937,1830.309,1508.345,1699.352Z"/><path class="cls-13" d="M166.968-174.577s205.971,62.009,837.9-73.567S1971.06-109.763,1971.06-109.763s124.8,110.238,222.7,236.576l-24.864,154.865S1888.447-112.043,1562.9-153.08s-557.558,46.652-557.558,46.652"/><path class="cls-14" d="M152.688-81.668l24.913-162.1S538.48-439.211,1513.818-149.686c0,0,461.149,119.824,706.367,97.628l-42.228,281.664S1692.521,96.316,1516.579,16.664,652.384-350.883,152.688-81.668Z"/><path class="cls-15" d="M174.867-225.974l27.648-179.888S513.52-592.786,1406.91-230.869c0,0,517.176,202.92,804.872,226.9L2196.709,107.6s-395.18-85.585-858.139-247.8S490.291-349.491,174.867-225.974Z"/><path class="cls-16" d="M2220.6-51.315s-205.971-62.009-837.9,73.567S416.51-116.13,416.51-116.13s-124.8-110.238-222.7-236.576L218.678-507.57S499.123-113.85,824.667-72.813s557.558-46.652,557.558-46.652,660.355-202.029,875.748-174.995Z"/><path class="cls-17" d="M2234.882-144.224l-24.913,162.1S1849.089,213.319,873.752-76.206c0,0-461.149-119.824-706.367-97.628L209.613-455.5S695.048-322.208,870.99-242.556,1735.185,124.99,2234.882-144.224Z"/><path class="cls-18" d="M2212.7.081l-27.648,179.888S1874.049,366.893,980.66,4.977c0,0-517.176-202.92-804.872-226.9l15.073-111.565S586.041-247.905,1049-85.694,1897.278,123.6,2212.7.081Z"/></svg>