<?xml version="1.0" encoding="utf-8"?>
<!-- Generator: Adobe Illustrator 21.1.0, SVG Export Plug-In . SVG Version: 6.00 Build 0)  -->
<svg version="1.1" id="Layer_1" xmlns="http://www.w3.org/2000/svg" xmlns:xlink="http://www.w3.org/1999/xlink" x="0px" y="0px"
	 viewBox="0 0 2048 1536" style="enable-background:new 0 0 2048 1536;" xml:space="preserve">
<style type="text/css">
	.st0{fill:#00FFFF;}
	.st1{fill:#FF00FF;}
	.st2{fill:#375EF0;}
	.st3{fill:#1B1464;}
	.st4{fill:#FEC80E;}
	.st5{fill:#581274;}
	.st6{fill:#FF5500;}
	.st7{fill:url(#SVGID_1_);}
	.st8{fill:url(#SVGID_2_);}
	.st9{fill:url(#SVGID_3_);}
	.st10{fill:url(#SVGID_4_);}
	.st11{fill:url(#SVGID_5_);}
	.st12{fill:url(#SVGID_6_);}
	.st13{fill:url(#SVGID_7_);}
	.st14{opacity:0.6;fill:url(#SVGID_8_);}
	.st15{opacity:0.4;fill:url(#SVGID_9_);}
	.st16{opacity:0.5;fill:url(#SVGID_10_);}
	.st17{opacity:0.4;fill:url(#SVGID_11_);}
	.st18{opacity:0.5;fill:url(#SVGID_12_);}
	.st19{opacity:0.6;fill:url(#SVGID_13_);}
	.st20{opacity:0.4;fill:url(#SVGID_14_);}
	.st21{opacity:0.5;fill:url(#SVGID_15_);}
	.st22{opacity:0.6;fill:url(#SVGID_16_);}
	.st23{opacity:0.4;fill:url(#SVGID_17_);}
	.st24{opacity:0.5;fill:url(#SVGID_18_);}
	.st25{opacity:0.6;fill:url(#SVGID_19_);}
	.st26{opacity:0.4;fill:url(#SVGID_20_);}
	.st27{opacity:0.5;fill:url(#SVGID_21_);}
	.st28{opacity:0.4;fill:url(#SVGID_22_);}
	.st29{opacity:0.5;fill:url(#SVGID_23_);}
	.st30{opacity:0.6;fill:url(#SVGID_24_);}
	.st31{opacity:0.4;fill:url(#SVGID_25_);}
	.st32{opacity:0.5;fill:url(#SVGID_26_);}
	.st33{opacity:0.6;fill:url(#SVGID_27_);}
	.st34{opacity:0.4;fill:url(#SVGID_28_);}
	.st35{opacity:0.5;fill:url(#SVGID_29_);}
</style>
<rect x="-225.2" y="350.3" class="st0" width="26.5" height="26.5"/>
<rect x="-179.2" y="350.3" class="st1" width="26.5" height="26.5"/>
<rect x="-225.2" y="394.3" class="st2" width="26.5" height="26.5"/>
<rect x="-225.2" y="438.3" class="st3" width="26.5" height="26.5"/>
<rect x="-132.2" y="350.3" class="st4" width="26.5" height="26.5"/>
<rect x="-179.2" y="394.3" class="st5" width="26.5" height="26.5"/>
<rect x="-132.4" y="394.3" class="st6" width="26.5" height="26.5"/>
<linearGradient id="SVGID_1_" gradientUnits="userSpaceOnUse" x1="85.6398" y1="180.7759" x2="400.5848" y2="180.7759">
	<stop  offset="0" style="stop-color:#1B1464"/>
	<stop  offset="0.1312" style="stop-color:#1C186B"/>
	<stop  offset="0.3284" style="stop-color:#212380"/>
	<stop  offset="0.5671" style="stop-color:#2735A2"/>
	<stop  offset="0.8359" style="stop-color:#314DD0"/>
	<stop  offset="1" style="stop-color:#375EF0"/>
</linearGradient>
<polygon class="st7" points="299,-6.5 -16,368.1 -16,-6.5 "/>
<linearGradient id="SVGID_2_" gradientUnits="userSpaceOnUse" x1="1367.5145" y1="1806.1914" x2="1129.9492" y2="634.2582">
	<stop  offset="0" style="stop-color:#1B1464"/>
	<stop  offset="0.279" style="stop-color:#1B1566"/>
	<stop  offset="0.4439" style="stop-color:#1D1A6F"/>
	<stop  offset="0.5792" style="stop-color:#20217D"/>
	<stop  offset="0.6984" style="stop-color:#242C91"/>
	<stop  offset="0.8071" style="stop-color:#293AAB"/>
	<stop  offset="0.9066" style="stop-color:#304ACB"/>
	<stop  offset="1" style="stop-color:#375EF0"/>
</linearGradient>
<polygon class="st8" points="1779.5,1542.5 1272.5,891.1 848.7,1542.5 "/>
<linearGradient id="SVGID_3_" gradientUnits="userSpaceOnUse" x1="260.9684" y1="1164.1663" x2="321.4989" y2="1955.0408">
	<stop  offset="0" style="stop-color:#1B1464"/>
	<stop  offset="0.1311" style="stop-color:#1D186C"/>
	<stop  offset="0.3375" style="stop-color:#212483"/>
	<stop  offset="0.5934" style="stop-color:#2938A8"/>
	<stop  offset="0.8863" style="stop-color:#3353DA"/>
	<stop  offset="1" style="stop-color:#375EF0"/>
</linearGradient>
<polygon class="st9" points="-16,1535.5 -16,849.2 594.7,1535.5 "/>
<linearGradient id="SVGID_4_" gradientUnits="userSpaceOnUse" x1="672.1959" y1="442.857" x2="-447.8883" y2="1505.0444">
	<stop  offset="0" style="stop-color:#1B1464"/>
	<stop  offset="0.2127" style="stop-color:#1C1667"/>
	<stop  offset="0.3798" style="stop-color:#1E1B71"/>
	<stop  offset="0.5315" style="stop-color:#212482"/>
	<stop  offset="0.674" style="stop-color:#263099"/>
	<stop  offset="0.81" style="stop-color:#2C40B7"/>
	<stop  offset="0.9395" style="stop-color:#3353DC"/>
	<stop  offset="1" style="stop-color:#375EF0"/>
</linearGradient>
<polygon class="st10" points="489.4,1423.3 1163.2,767.5 1151,-7.5 296,-7.5 -16,364.1 -16,860.2 "/>
<linearGradient id="SVGID_5_" gradientUnits="userSpaceOnUse" x1="1738.2172" y1="411.1388" x2="2371.1714" y2="944.1985">
	<stop  offset="0" style="stop-color:#1B1464"/>
	<stop  offset="0.1738" style="stop-color:#1C1668"/>
	<stop  offset="0.3427" style="stop-color:#1E1C74"/>
	<stop  offset="0.5095" style="stop-color:#222787"/>
	<stop  offset="0.6752" style="stop-color:#2835A3"/>
	<stop  offset="0.8383" style="stop-color:#2E48C6"/>
	<stop  offset="1" style="stop-color:#375EF0"/>
</linearGradient>
<polygon class="st11" points="2049,774.5 1242.2,666.8 1913.2,-0.5 2049,-0.5 "/>
<linearGradient id="SVGID_6_" gradientUnits="userSpaceOnUse" x1="1287.9626" y1="533.2083" x2="1246.632" y2="2628.115">
	<stop  offset="0" style="stop-color:#1B1464"/>
	<stop  offset="0.1569" style="stop-color:#1C1668"/>
	<stop  offset="0.3281" style="stop-color:#1F1D76"/>
	<stop  offset="0.5062" style="stop-color:#23298B"/>
	<stop  offset="0.6889" style="stop-color:#2939AA"/>
	<stop  offset="0.8734" style="stop-color:#314ED1"/>
	<stop  offset="1" style="stop-color:#375EF0"/>
</linearGradient>
<polygon class="st12" points="489.4,1423.3 1256.6,652.3 2049,767.5 2049,1541.5 1777.5,1541.5 1272.5,899.1 854.7,1541.5 
	588.7,1541.5 "/>
<linearGradient id="SVGID_7_" gradientUnits="userSpaceOnUse" x1="1368.3491" y1="481.1743" x2="553.4867" y2="354.2158">
	<stop  offset="0" style="stop-color:#1B1464"/>
	<stop  offset="0.1807" style="stop-color:#1C1668"/>
	<stop  offset="0.349" style="stop-color:#1E1C73"/>
	<stop  offset="0.5124" style="stop-color:#222686"/>
	<stop  offset="0.6728" style="stop-color:#2734A0"/>
	<stop  offset="0.8311" style="stop-color:#2E46C2"/>
	<stop  offset="0.9856" style="stop-color:#365CEC"/>
	<stop  offset="1" style="stop-color:#375EF0"/>
</linearGradient>
<polygon class="st13" points="1145,-0.5 937.7,980.6 1913.2,-0.5 "/>
<g>
	
		<linearGradient id="SVGID_8_" gradientUnits="userSpaceOnUse" x1="498.8822" y1="1820.5149" x2="481.2873" y2="1316.6621" gradientTransform="matrix(0.9917 0.1284 -0.1284 0.9917 190.3754 64.0927)">
		<stop  offset="0" style="stop-color:#1B1464"/>
		<stop  offset="0.1569" style="stop-color:#1C1668"/>
		<stop  offset="0.3281" style="stop-color:#1F1D76"/>
		<stop  offset="0.5062" style="stop-color:#23298B"/>
		<stop  offset="0.6889" style="stop-color:#2939AA"/>
		<stop  offset="0.8734" style="stop-color:#314ED1"/>
		<stop  offset="1" style="stop-color:#375EF0"/>
	</linearGradient>
	<path class="st14" d="M-541,1593.2c0,0,207.4,57.1,835.9-93.4s969.2,115.4,969.2,115.4s127.4,107.2,228.2,231.2l-21.2,155.4
		c0,0-289.7-387-616.1-420.3c-326.4-33.3-556.3,59.9-556.3,59.9s-655.4,217.6-871.4,195.7L-541,1593.2z"/>
	
		<linearGradient id="SVGID_9_" gradientUnits="userSpaceOnUse" x1="498.787" y1="1720.1418" x2="486.1494" y2="1358.2498" gradientTransform="matrix(0.9917 0.1284 -0.1284 0.9917 190.3754 64.0927)">
		<stop  offset="0" style="stop-color:#1B1464"/>
		<stop  offset="0.1569" style="stop-color:#1C1668"/>
		<stop  offset="0.3281" style="stop-color:#1F1D76"/>
		<stop  offset="0.5062" style="stop-color:#23298B"/>
		<stop  offset="0.6889" style="stop-color:#2939AA"/>
		<stop  offset="0.8734" style="stop-color:#314ED1"/>
		<stop  offset="1" style="stop-color:#375EF0"/>
	</linearGradient>
	<path class="st15" d="M-553,1666.4l21.1-162.6c0,0,356.1-203.9,1338.1,62.4c0,0,463.9,108.9,708.5,80.9l-35.5,282.6
		c0,0-488.5-121.7-666.2-197.2C635,1657-59.9,1385.5-553,1666.4z"/>
	
		<linearGradient id="SVGID_10_" gradientUnits="userSpaceOnUse" x1="495.6771" y1="1596.8101" x2="482.9142" y2="1231.3291" gradientTransform="matrix(0.9917 0.1284 -0.1284 0.9917 190.3754 64.0927)">
		<stop  offset="0" style="stop-color:#1B1464"/>
		<stop  offset="0.1569" style="stop-color:#1C1668"/>
		<stop  offset="0.3281" style="stop-color:#1F1D76"/>
		<stop  offset="0.5062" style="stop-color:#23298B"/>
		<stop  offset="0.6889" style="stop-color:#2939AA"/>
		<stop  offset="0.8734" style="stop-color:#314ED1"/>
		<stop  offset="1" style="stop-color:#375EF0"/>
	</linearGradient>
	<path class="st16" d="M-534.3,1521.7l23.4-180.5c0,0,306.5-194.2,1208.2,146.4c0,0,521.8,190.6,810,207.8l-12.4,111.9
		c0,0-397.1-76.2-863.8-227.4S-221.9,1390.7-534.3,1521.7z"/>
	
		<linearGradient id="SVGID_11_" gradientUnits="userSpaceOnUse" x1="1563.9789" y1="646.9152" x2="1551.3413" y2="285.0231" gradientTransform="matrix(-0.9917 -0.1284 0.1284 -0.9917 1975.0673 2229.126)">
		<stop  offset="0" style="stop-color:#1B1464"/>
		<stop  offset="0.1569" style="stop-color:#1C1668"/>
		<stop  offset="0.3281" style="stop-color:#1F1D76"/>
		<stop  offset="0.5062" style="stop-color:#23298B"/>
		<stop  offset="0.6889" style="stop-color:#2939AA"/>
		<stop  offset="0.8734" style="stop-color:#314ED1"/>
		<stop  offset="1" style="stop-color:#375EF0"/>
	</linearGradient>
	<path class="st17" d="M1506,1717.2c0,0-356.1,203.9-1338.1-62.4c0,0-463.9-108.9-708.5-80.9l35.5-282.6
		c0,0,488.5,121.7,666.2,197.2"/>
	
		<linearGradient id="SVGID_12_" gradientUnits="userSpaceOnUse" x1="1558.0089" y1="523.6833" x2="1545.2461" y2="158.2024" gradientTransform="matrix(-0.9917 -0.1284 0.1284 -0.9917 1975.0673 2229.126)">
		<stop  offset="0" style="stop-color:#1B1464"/>
		<stop  offset="0.1569" style="stop-color:#1C1668"/>
		<stop  offset="0.3281" style="stop-color:#1F1D76"/>
		<stop  offset="0.5062" style="stop-color:#23298B"/>
		<stop  offset="0.6889" style="stop-color:#2939AA"/>
		<stop  offset="0.8734" style="stop-color:#314ED1"/>
		<stop  offset="1" style="stop-color:#375EF0"/>
	</linearGradient>
	<path class="st18" d="M1508.3,1699.4l-23.4,180.5c0,0-306.5,194.2-1208.2-146.4c0,0-521.8-190.6-810-207.8l12.4-111.9
		c0,0,397.1,76.2,863.8,227.4S1195.9,1830.3,1508.3,1699.4z"/>
</g>
<g>
	
		<linearGradient id="SVGID_13_" gradientUnits="userSpaceOnUse" x1="664.0798" y1="-83.0543" x2="647.4491" y2="-559.2966" gradientTransform="matrix(0.9884 0.1519 -0.1519 0.9884 489.3771 143.5033)">
		<stop  offset="0" style="stop-color:#1B1464"/>
		<stop  offset="0.1326" style="stop-color:#1C186B"/>
		<stop  offset="0.3226" style="stop-color:#20227E"/>
		<stop  offset="0.5472" style="stop-color:#26329D"/>
		<stop  offset="0.7961" style="stop-color:#2F49C7"/>
		<stop  offset="1" style="stop-color:#375EF0"/>
	</linearGradient>
	<path class="st19" d="M167-174.6c0,0,206,62,837.9-73.6s966.2,138.4,966.2,138.4s124.8,110.2,222.7,236.6l-24.9,154.9
		c0,0-280.4-393.7-606-434.8s-557.6,46.7-557.6,46.7"/>
	
		<linearGradient id="SVGID_14_" gradientUnits="userSpaceOnUse" x1="663.2277" y1="-135.8327" x2="650.5901" y2="-497.7249" gradientTransform="matrix(0.9884 0.1519 -0.1519 0.9884 489.3771 143.5033)">
		<stop  offset="0" style="stop-color:#1B1464"/>
		<stop  offset="0.1326" style="stop-color:#1C186B"/>
		<stop  offset="0.3226" style="stop-color:#20227E"/>
		<stop  offset="0.5472" style="stop-color:#26329D"/>
		<stop  offset="0.7961" style="stop-color:#2F49C7"/>
		<stop  offset="1" style="stop-color:#375EF0"/>
	</linearGradient>
	<path class="st20" d="M152.7-81.7l24.9-162.1c0,0,360.9-195.4,1336.2,94.1c0,0,461.1,119.8,706.4,97.6L2178,229.6
		c0,0-485.4-133.3-661.4-212.9S652.4-350.9,152.7-81.7z"/>
	
		<linearGradient id="SVGID_15_" gradientUnits="userSpaceOnUse" x1="660.1178" y1="-259.1646" x2="647.3549" y2="-624.6454" gradientTransform="matrix(0.9884 0.1519 -0.1519 0.9884 489.3771 143.5033)">
		<stop  offset="0" style="stop-color:#1B1464"/>
		<stop  offset="0.1326" style="stop-color:#1C186B"/>
		<stop  offset="0.3226" style="stop-color:#20227E"/>
		<stop  offset="0.5472" style="stop-color:#26329D"/>
		<stop  offset="0.7961" style="stop-color:#2F49C7"/>
		<stop  offset="1" style="stop-color:#375EF0"/>
	</linearGradient>
	<path class="st21" d="M174.9-226l27.6-179.9c0,0,311-186.9,1204.4,175c0,0,517.2,202.9,804.9,226.9l-15.1,111.6
		c0,0-395.2-85.6-858.1-247.8S490.3-349.5,174.9-226z"/>
	
		<linearGradient id="SVGID_16_" gradientUnits="userSpaceOnUse" x1="1394.2045" y1="2583.5283" x2="1376.6095" y2="2079.6755" gradientTransform="matrix(-0.9884 -0.1519 0.1519 -0.9884 2222.2634 2350.2202)">
		<stop  offset="0" style="stop-color:#1B1464"/>
		<stop  offset="0.1326" style="stop-color:#1C186B"/>
		<stop  offset="0.3226" style="stop-color:#20227E"/>
		<stop  offset="0.5472" style="stop-color:#26329D"/>
		<stop  offset="0.7961" style="stop-color:#2F49C7"/>
		<stop  offset="1" style="stop-color:#375EF0"/>
	</linearGradient>
	<path class="st22" d="M2220.6-51.3c0,0-206-62-837.9,73.6S416.5-116.1,416.5-116.1S291.7-226.4,193.8-352.7l24.9-154.9
		c0,0,280.4,393.7,606,434.8s557.6-46.7,557.6-46.7s660.4-202,875.7-175L2220.6-51.3z"/>
	
		<linearGradient id="SVGID_17_" gradientUnits="userSpaceOnUse" x1="1396.6781" y1="2502.9897" x2="1384.0405" y2="2141.0977" gradientTransform="matrix(-0.9884 -0.1519 0.1519 -0.9884 2222.2634 2350.2202)">
		<stop  offset="0" style="stop-color:#1B1464"/>
		<stop  offset="0.1326" style="stop-color:#1C186B"/>
		<stop  offset="0.3226" style="stop-color:#20227E"/>
		<stop  offset="0.5472" style="stop-color:#26329D"/>
		<stop  offset="0.7961" style="stop-color:#2F49C7"/>
		<stop  offset="1" style="stop-color:#375EF0"/>
	</linearGradient>
	<path class="st23" d="M2234.9-144.2L2210,17.9c0,0-360.9,195.4-1336.2-94.1c0,0-461.1-119.8-706.4-97.6l42.2-281.7
		c0,0,485.4,133.3,661.4,212.9S1735.2,125,2234.9-144.2z"/>
	
		<linearGradient id="SVGID_18_" gradientUnits="userSpaceOnUse" x1="1393.5682" y1="2379.658" x2="1380.8054" y2="2014.177" gradientTransform="matrix(-0.9884 -0.1519 0.1519 -0.9884 2222.2634 2350.2202)">
		<stop  offset="0" style="stop-color:#1B1464"/>
		<stop  offset="0.1326" style="stop-color:#1C186B"/>
		<stop  offset="0.3226" style="stop-color:#20227E"/>
		<stop  offset="0.5472" style="stop-color:#26329D"/>
		<stop  offset="0.7961" style="stop-color:#2F49C7"/>
		<stop  offset="1" style="stop-color:#375EF0"/>
	</linearGradient>
	<path class="st24" d="M2212.7,0.1L2185.1,180c0,0-311,186.9-1204.4-175c0,0-517.2-202.9-804.9-226.9l15.1-111.6
		c0,0,395.2,85.6,858.1,247.8S1897.3,123.6,2212.7,0.1z"/>
</g>
<g>
	
		<linearGradient id="SVGID_19_" gradientUnits="userSpaceOnUse" x1="2828.3284" y1="2190.99" x2="2810.7334" y2="1687.1372" gradientTransform="matrix(0.9917 0.1284 -0.1284 0.9917 190.3754 64.0927)">
		<stop  offset="0" style="stop-color:#375EF0"/>
		<stop  offset="9.064460e-02" style="stop-color:#2F75F2"/>
		<stop  offset="0.3101" style="stop-color:#1FA6F7"/>
		<stop  offset="0.5179" style="stop-color:#11CCFA"/>
		<stop  offset="0.7081" style="stop-color:#08E8FD"/>
		<stop  offset="0.8749" style="stop-color:#02F9FE"/>
		<stop  offset="1" style="stop-color:#00FFFF"/>
	</linearGradient>
	<path class="st25" d="M1721.6,2259.8c0,0,207.4,57.1,835.9-93.4c628.5-150.5,969.2,115.4,969.2,115.4s127.4,107.3,228.2,231.2
		l-21.2,155.4c0,0-289.7-387-616.1-420.3c-326.4-33.3-556.3,59.9-556.3,59.9S1906,2525.7,1690,2503.8L1721.6,2259.8z"/>
	
		<linearGradient id="SVGID_20_" gradientUnits="userSpaceOnUse" x1="2828.2332" y1="2090.6169" x2="2815.5955" y2="1728.7249" gradientTransform="matrix(0.9917 0.1284 -0.1284 0.9917 190.3754 64.0927)">
		<stop  offset="0" style="stop-color:#375EF0"/>
		<stop  offset="9.064460e-02" style="stop-color:#2F75F2"/>
		<stop  offset="0.3101" style="stop-color:#1FA6F7"/>
		<stop  offset="0.5179" style="stop-color:#11CCFA"/>
		<stop  offset="0.7081" style="stop-color:#08E8FD"/>
		<stop  offset="0.8749" style="stop-color:#02F9FE"/>
		<stop  offset="1" style="stop-color:#00FFFF"/>
	</linearGradient>
	<path class="st26" d="M1709.5,2333.1l21.1-162.6c0,0,356.1-203.9,1338.1,62.4c0,0,463.9,108.9,708.5,80.9l-35.5,282.6
		c0,0-488.5-121.7-666.2-197.2S2202.7,2052.1,1709.5,2333.1z"/>
	
		<linearGradient id="SVGID_21_" gradientUnits="userSpaceOnUse" x1="2825.1233" y1="1967.2852" x2="2812.3604" y2="1601.8042" gradientTransform="matrix(0.9917 0.1284 -0.1284 0.9917 190.3754 64.0927)">
		<stop  offset="0" style="stop-color:#375EF0"/>
		<stop  offset="9.064460e-02" style="stop-color:#2F75F2"/>
		<stop  offset="0.3101" style="stop-color:#1FA6F7"/>
		<stop  offset="0.5179" style="stop-color:#11CCFA"/>
		<stop  offset="0.7081" style="stop-color:#08E8FD"/>
		<stop  offset="0.8749" style="stop-color:#02F9FE"/>
		<stop  offset="1" style="stop-color:#00FFFF"/>
	</linearGradient>
	<path class="st27" d="M1728.3,2188.3l23.4-180.5c0,0,306.5-194.2,1208.2,146.4c0,0,521.8,190.6,810,207.8l-12.4,111.9
		c0,0-397.1-76.2-863.8-227.4S2040.7,2057.3,1728.3,2188.3z"/>
	
		<linearGradient id="SVGID_22_" gradientUnits="userSpaceOnUse" x1="-765.4673" y1="276.4402" x2="-778.1049" y2="-85.452" gradientTransform="matrix(-0.9917 -0.1284 0.1284 -0.9917 1975.0673 2229.126)">
		<stop  offset="0" style="stop-color:#375EF0"/>
		<stop  offset="9.064460e-02" style="stop-color:#2F75F2"/>
		<stop  offset="0.3101" style="stop-color:#1FA6F7"/>
		<stop  offset="0.5179" style="stop-color:#11CCFA"/>
		<stop  offset="0.7081" style="stop-color:#08E8FD"/>
		<stop  offset="0.8749" style="stop-color:#02F9FE"/>
		<stop  offset="1" style="stop-color:#00FFFF"/>
	</linearGradient>
	<path class="st28" d="M3768.6,2383.8c0,0-356.1,203.9-1338.1-62.4c0,0-463.9-108.9-708.5-80.9l35.5-282.6
		c0,0,488.5,121.7,666.2,197.2"/>
	
		<linearGradient id="SVGID_23_" gradientUnits="userSpaceOnUse" x1="-771.4372" y1="153.2082" x2="-784.2001" y2="-212.2727" gradientTransform="matrix(-0.9917 -0.1284 0.1284 -0.9917 1975.0673 2229.126)">
		<stop  offset="0" style="stop-color:#375EF0"/>
		<stop  offset="9.064460e-02" style="stop-color:#2F75F2"/>
		<stop  offset="0.3101" style="stop-color:#1FA6F7"/>
		<stop  offset="0.5179" style="stop-color:#11CCFA"/>
		<stop  offset="0.7081" style="stop-color:#08E8FD"/>
		<stop  offset="0.8749" style="stop-color:#02F9FE"/>
		<stop  offset="1" style="stop-color:#00FFFF"/>
	</linearGradient>
	<path class="st29" d="M3770.9,2366l-23.4,180.5c0,0-306.5,194.2-1208.2-146.4c0,0-521.8-190.6-810-207.8l12.4-111.9
		c0,0,397.1,76.2,863.8,227.4C3072.2,2459,3458.5,2496.9,3770.9,2366z"/>
</g>
<g>
	
		<linearGradient id="SVGID_24_" gradientUnits="userSpaceOnUse" x1="3001.6509" y1="232.1163" x2="2985.0203" y2="-244.126" gradientTransform="matrix(0.9884 0.1519 -0.1519 0.9884 489.3771 143.5033)">
		<stop  offset="0" style="stop-color:#375EF0"/>
		<stop  offset="9.064460e-02" style="stop-color:#2F75F2"/>
		<stop  offset="0.3101" style="stop-color:#1FA6F7"/>
		<stop  offset="0.5179" style="stop-color:#11CCFA"/>
		<stop  offset="0.7081" style="stop-color:#08E8FD"/>
		<stop  offset="0.8749" style="stop-color:#02F9FE"/>
		<stop  offset="1" style="stop-color:#00FFFF"/>
	</linearGradient>
	<path class="st30" d="M2429.5,492c0,0,206,62,837.9-73.6s966.2,138.4,966.2,138.4s124.8,110.2,222.7,236.6l-24.9,154.9
		c0,0-280.4-393.7-606-434.8c-325.5-41-557.6,46.7-557.6,46.7"/>
	
		<linearGradient id="SVGID_25_" gradientUnits="userSpaceOnUse" x1="3000.7988" y1="179.3379" x2="2988.1611" y2="-182.5542" gradientTransform="matrix(0.9884 0.1519 -0.1519 0.9884 489.3771 143.5033)">
		<stop  offset="0" style="stop-color:#375EF0"/>
		<stop  offset="9.064460e-02" style="stop-color:#2F75F2"/>
		<stop  offset="0.3101" style="stop-color:#1FA6F7"/>
		<stop  offset="0.5179" style="stop-color:#11CCFA"/>
		<stop  offset="0.7081" style="stop-color:#08E8FD"/>
		<stop  offset="0.8749" style="stop-color:#02F9FE"/>
		<stop  offset="1" style="stop-color:#00FFFF"/>
	</linearGradient>
	<path class="st31" d="M2415.3,584.9l24.9-162.1c0,0,360.9-195.4,1336.2,94.1c0,0,461.1,119.8,706.4,97.6l-42.2,281.7
		c0,0-485.4-133.3-661.4-212.9C3603.2,603.6,2914.9,315.7,2415.3,584.9z"/>
	
		<linearGradient id="SVGID_26_" gradientUnits="userSpaceOnUse" x1="2997.689" y1="56.0061" x2="2984.926" y2="-309.4748" gradientTransform="matrix(0.9884 0.1519 -0.1519 0.9884 489.3771 143.5033)">
		<stop  offset="0" style="stop-color:#375EF0"/>
		<stop  offset="9.064460e-02" style="stop-color:#2F75F2"/>
		<stop  offset="0.3101" style="stop-color:#1FA6F7"/>
		<stop  offset="0.5179" style="stop-color:#11CCFA"/>
		<stop  offset="0.7081" style="stop-color:#08E8FD"/>
		<stop  offset="0.8749" style="stop-color:#02F9FE"/>
		<stop  offset="1" style="stop-color:#00FFFF"/>
	</linearGradient>
	<path class="st32" d="M2437.4,440.6l27.6-179.9c0,0,311-186.9,1204.4,175c0,0,517.2,202.9,804.9,226.9l-15.1,111.6
		c0,0-395.2-85.6-858.1-247.8S2752.9,317.1,2437.4,440.6z"/>
	
		<linearGradient id="SVGID_27_" gradientUnits="userSpaceOnUse" x1="-943.3666" y1="2268.3577" x2="-960.9615" y2="1764.505" gradientTransform="matrix(-0.9884 -0.1519 0.1519 -0.9884 2222.2634 2350.2202)">
		<stop  offset="0" style="stop-color:#375EF0"/>
		<stop  offset="9.064460e-02" style="stop-color:#2F75F2"/>
		<stop  offset="0.3101" style="stop-color:#1FA6F7"/>
		<stop  offset="0.5179" style="stop-color:#11CCFA"/>
		<stop  offset="0.7081" style="stop-color:#08E8FD"/>
		<stop  offset="0.8749" style="stop-color:#02F9FE"/>
		<stop  offset="1" style="stop-color:#00FFFF"/>
	</linearGradient>
	<path class="st33" d="M4483.2,615.3c0,0-206-62-837.9,73.6s-966.2-138.4-966.2-138.4s-124.8-110.2-222.7-236.6l24.9-154.9
		c0,0,280.4,393.7,606,434.8s557.6-46.7,557.6-46.7s660.4-202,875.7-175L4483.2,615.3z"/>
	
		<linearGradient id="SVGID_28_" gradientUnits="userSpaceOnUse" x1="-940.8929" y1="2187.8191" x2="-953.5305" y2="1825.9269" gradientTransform="matrix(-0.9884 -0.1519 0.1519 -0.9884 2222.2634 2350.2202)">
		<stop  offset="0" style="stop-color:#375EF0"/>
		<stop  offset="9.064460e-02" style="stop-color:#2F75F2"/>
		<stop  offset="0.3101" style="stop-color:#1FA6F7"/>
		<stop  offset="0.5179" style="stop-color:#11CCFA"/>
		<stop  offset="0.7081" style="stop-color:#08E8FD"/>
		<stop  offset="0.8749" style="stop-color:#02F9FE"/>
		<stop  offset="1" style="stop-color:#00FFFF"/>
	</linearGradient>
	<path class="st34" d="M4497.4,522.4l-24.9,162.1c0,0-360.9,195.4-1336.2-94.1c0,0-461.1-119.8-706.4-97.6l42.2-281.7
		c0,0,485.4,133.3,661.4,212.9S3997.7,791.6,4497.4,522.4z"/>
	
		<linearGradient id="SVGID_29_" gradientUnits="userSpaceOnUse" x1="-944.0028" y1="2064.4873" x2="-956.7657" y2="1699.0063" gradientTransform="matrix(-0.9884 -0.1519 0.1519 -0.9884 2222.2634 2350.2202)">
		<stop  offset="0" style="stop-color:#375EF0"/>
		<stop  offset="9.064460e-02" style="stop-color:#2F75F2"/>
		<stop  offset="0.3101" style="stop-color:#1FA6F7"/>
		<stop  offset="0.5179" style="stop-color:#11CCFA"/>
		<stop  offset="0.7081" style="stop-color:#08E8FD"/>
		<stop  offset="0.8749" style="stop-color:#02F9FE"/>
		<stop  offset="1" style="stop-color:#00FFFF"/>
	</linearGradient>
	<path class="st35" d="M4475.3,666.7l-27.6,179.9c0,0-311,186.9-1204.4-175c0,0-517.2-202.9-804.9-226.9l15.1-111.6
		c0,0,395.2,85.6,858.1,247.8S4159.8,790.2,4475.3,666.7z"/>
</g>
</svg>
