<svg id="Layer_1" data-name="Layer 1" xmlns="http://www.w3.org/2000/svg" xmlns:xlink="http://www.w3.org/1999/xlink" viewBox="0 0 635.739 277.468"><defs><style>.cls-1{fill:#989898;}.cls-2{fill:#cccbcb;}.cls-3{fill:#b2b3b3;}.cls-4{fill:none;stroke:gray;stroke-miterlimit:10;stroke-width:3px;}.cls-5{fill:#1b1464;}.cls-6{fill:url(#linear-gradient);}.cls-7{fill:#fff;}.cls-8{fill:#f50;}.cls-9{fill:url(#linear-gradient-2);}.cls-10{fill:url(#linear-gradient-3);}.cls-11{fill:url(#linear-gradient-4);}.cls-12{fill:url(#linear-gradient-5);}.cls-13{fill:url(#linear-gradient-6);}.cls-14{fill:url(#linear-gradient-7);}.cls-15{fill:url(#linear-gradient-8);}.cls-16{fill:aqua;}.cls-17{fill:#f0f;}.cls-18{fill:#375ef0;}.cls-19{fill:#fec80e;}.cls-20{fill:#581274;}</style><linearGradient id="linear-gradient" x1="348.313" y1="277.22" x2="506.271" y2="334.712" gradientTransform="matrix(1.075, 0.072, -0.077, 1.151, -72.249, -155.837)" gradientUnits="userSpaceOnUse"><stop offset="0" stop-color="#f0f"/><stop offset="0.217" stop-color="#fc00fd"/><stop offset="0.373" stop-color="#f301f5"/><stop offset="0.51" stop-color="#e303e8"/><stop offset="0.636" stop-color="#cd05d5"/><stop offset="0.754" stop-color="#b009bd"/><stop offset="0.867" stop-color="#8d0ca0"/><stop offset="0.973" stop-color="#64117e"/><stop offset="1" stop-color="#581274"/></linearGradient><linearGradient id="linear-gradient-2" x1="54.276" y1="69.519" x2="127.299" y2="96.097" gradientUnits="userSpaceOnUse"><stop offset="0" stop-color="#fec80e"/><stop offset="0.174" stop-color="#fec40d"/><stop offset="0.365" stop-color="#feb60c"/><stop offset="0.562" stop-color="#fea109"/><stop offset="0.766" stop-color="#ff8205"/><stop offset="0.971" stop-color="#ff5b01"/><stop offset="1" stop-color="#f50"/></linearGradient><linearGradient id="linear-gradient-3" x1="104.966" y1="91.914" x2="165.034" y2="102.506" gradientUnits="userSpaceOnUse"><stop offset="0" stop-color="#fec80e"/><stop offset="0.315" stop-color="#fec60e"/><stop offset="0.489" stop-color="#febe0d"/><stop offset="0.628" stop-color="#feb00b"/><stop offset="0.75" stop-color="#fe9c09"/><stop offset="0.859" stop-color="#ff8306"/><stop offset="0.958" stop-color="#ff6402"/><stop offset="1" stop-color="#f50"/></linearGradient><linearGradient id="linear-gradient-4" x1="152.607" y1="105.282" x2="230.747" y2="119.06" gradientUnits="userSpaceOnUse"><stop offset="0" stop-color="#fec80e"/><stop offset="0.243" stop-color="#fec50e"/><stop offset="0.423" stop-color="#febc0c"/><stop offset="0.583" stop-color="#feac0b"/><stop offset="0.731" stop-color="#fe9508"/><stop offset="0.869" stop-color="#ff7804"/><stop offset="1" stop-color="#f50"/></linearGradient><linearGradient id="linear-gradient-5" x1="224.326" y1="110.5" x2="276.365" y2="119.676" gradientUnits="userSpaceOnUse"><stop offset="0" stop-color="#fec80e"/><stop offset="0.272" stop-color="#fec50e"/><stop offset="0.45" stop-color="#febd0d"/><stop offset="0.6" stop-color="#feae0b"/><stop offset="0.736" stop-color="#fe9908"/><stop offset="0.862" stop-color="#ff7d05"/><stop offset="0.978" stop-color="#ff5c01"/><stop offset="1" stop-color="#f50"/></linearGradient><linearGradient id="linear-gradient-6" x1="262.394" y1="125.986" x2="325.08" y2="131.471" gradientUnits="userSpaceOnUse"><stop offset="0" stop-color="#fec80e"/><stop offset="0.28" stop-color="#fec50e"/><stop offset="0.457" stop-color="#febd0d"/><stop offset="0.605" stop-color="#feae0b"/><stop offset="0.738" stop-color="#fe9908"/><stop offset="0.86" stop-color="#ff7e05"/><stop offset="0.973" stop-color="#ff5e01"/><stop offset="1" stop-color="#f50"/></linearGradient><linearGradient id="linear-gradient-7" x1="320.907" y1="127.479" x2="386.479" y2="133.216" gradientUnits="userSpaceOnUse"><stop offset="0" stop-color="#fec80e"/><stop offset="0.203" stop-color="#fec40e"/><stop offset="0.387" stop-color="#feb90c"/><stop offset="0.564" stop-color="#fea70a"/><stop offset="0.735" stop-color="#ff8d07"/><stop offset="0.903" stop-color="#ff6c03"/><stop offset="1" stop-color="#f50"/></linearGradient><linearGradient id="linear-gradient-8" x1="372.739" y1="139.837" x2="454.567" y2="146.996" gradientUnits="userSpaceOnUse"><stop offset="0" stop-color="#fec80e"/><stop offset="0.152" stop-color="#fec20d"/><stop offset="0.365" stop-color="#feaf0b"/><stop offset="0.613" stop-color="#fe9207"/><stop offset="0.886" stop-color="#ff6802"/><stop offset="1" stop-color="#f50"/></linearGradient></defs><title>logo</title><path class="cls-1" d="M463.08,227.238l23.289-110.65S496,86.7,467.933,88.682c-29.819,2.105-150.916-3.454-268.286-41.146L193.7,86.7s23.995,7.309,20.118,32.828l-9.5,46.531S290.777,209.969,463.08,227.238Z" transform="translate(147.774 -8.5)"/><path class="cls-2" d="M307.021,201.679,361.094,82.421s-2.283-.243-7.792-.954L299.274,199.692S302.666,200.595,307.021,201.679Z" transform="translate(147.774 -8.5)"/><path class="cls-3" d="M315.032,203.653,369.189,83.348s8.268,1.07,22.382,2.244l-53.16,123.393S326.682,206.552,315.032,203.653Z" transform="translate(147.774 -8.5)"/><path class="cls-4" d="M467.718,205.2S298.4,191.9,209.106,142.594" transform="translate(147.774 -8.5)"/><path class="cls-5" d="M199.647,47.536,20.123,8.5S4.541,41.766,16.043,72.668c0,0,72.114-10.91,177.653,14.033Z" transform="translate(147.774 -8.5)"/><path class="cls-6" d="M462.279,227.238s.545,1.4-14.557-6.324c-18.7-9.57-25.452-6.645-54.845-9.9s-37.312-9.864-51.8-16.866-62.429-.637-62.429-.637.359,2,10.625,13.11,34.825,9.063,34.825,9.063,19.464.667,28.771,13.022,38.437,5.064,37.447,20.414c0,0,1.14,11.947-5.555,17.279s-2.821,13.685-2.821,13.685,7.726,12.313,19.554,1.315c0,0,5.7-9.329,1.9-18.835s9.179-23.433,9.179-23.433,6.126-6.294,21.7,2.384S462.279,227.238,462.279,227.238Z" transform="translate(147.774 -8.5)"/><circle class="cls-7" cx="463.265" cy="108.184" r="9.408" transform="translate(434.499 541.444) rotate(-81.361)"/><path class="cls-8" d="M135.722,55.456q4.446.833,10.08,6.153l-.885.89.168-.9q1.323.375.987,2.169-.411.388-.219-.632-.041-.008.9,1.983l-.41.388.229.127q-2.391,6.9-16.867,17.912a5.3,5.3,0,0,0-2.794.49l-1.1-.206q-1.918-.359-1.78-1.093l1.346.252-3.465,1.589a2.327,2.327,0,0,0-1.818-2.916l-.059-.138.089-.026-4.2-.787q.138-.734-1.821-1.777l-2.028-6.08q1.509.283,2.327-2.055a1.891,1.891,0,0,0,1.713-.355l2.162.4a69.606,69.606,0,0,0-11.577,3.87Q104.94,74.393,88.826,84q-14.4,12.843-17.679,22.024l.046-.245q.678.212.266,2.414-.709-.048-.426-1.558.775.145,1.146,5.155.122-.652-.408-.752,1.305.244,12.676-1.849a97.653,97.653,0,0,0,17.566-2.031l3.345.626-1.2.747-2.692-.5,1.1-.258,1.877.351q-.42,2.244.854,1.3l-1.527.263-.4,2.121.1-.107-2.325-.435,1.484-.482,2.448.458q-5.872,9.034-29.725,13.519a35.144,35.144,0,0,1-11.386-.528q-11.423-2.139-13.817-14.157a18.433,18.433,0,0,1,.32-5.767l.359-1.917q3.56-19.01,39.9-38.553,18.482-7.6,34.456-8.79A48.951,48.951,0,0,1,135.722,55.456Z" transform="translate(147.774 -8.5)"/><path class="cls-8" d="M171.1,67.233q.051.855-.724.709a4.674,4.674,0,0,1,1.548.079,8.135,8.135,0,0,1,2.368,7.875l-.092.49q-8.08,24.2-9.022,28.333a19.121,19.121,0,0,1,4.041.292q-.351,1.877,2.2,1.341l-5.222-.978a19.38,19.38,0,0,1,4.8.519,23.253,23.253,0,0,1-7.424,3.339q-1.4,5.016-2.013,7.815l-.245-.046q.351-1.876.759-1.8-9.028,26.558-9.4,28.557l-3.019-.565.252-1.346q.168-.9.247-1.769l2,.374-.662,3.085-2.978-.558.107-.571q1.591.3.85,3.579l-2.9-.542.209-2.241,2.04.382-.464,2.024-2.448-.458a22.031,22.031,0,0,1-1.687-6.776l1.795.336-.148.563-2.937-.55.632-2.922,2.04.382-.441,1.226-.206,1.1-2.692-.5a25.812,25.812,0,0,1,.307-9.528l.214-1.142,1.917.359-.1.53-3.3-.619,1.063-2.292.14-.523,2.121.4q.124-.441-1.3,2.417l-2.774-.52.283-1.509a6.036,6.036,0,0,0-.123-2.05q2.784-9.908,2.644-9.386-10.392,2.952-15.322,2.451a42.671,42.671,0,0,1-11.173,7.577l-3.8-.881-.9-.168-1.374.123q-.7-1.44-.862-.584l.39-.054q-3.043-3.821-2.729-5.494l.115-.612q1.412-6.407,31.83-30.395,2.011-1.945,17.533-13.353,1.151-5.02,8.086-3.722l.842,1.593.612-.561-2.325-.435q.3-1.168,3.686-2.1.836.495-.347.273A29.576,29.576,0,0,0,171.1,67.233ZM153.141,93.893q-.076.408-11.287,10.892a33.322,33.322,0,0,1,4.492-.088l-.107.571,4.931-12.8-.436.974ZM158,76.266q.084-.449-1.461,1.035l.214-1.142-2.162-.4q-.038.2,1.377-.587l-.171.686Z" transform="translate(147.774 -8.5)"/><path class="cls-8" d="M189.155,63.479l1.685.7,2.315.94a2.588,2.588,0,0,0,.4.117,3.743,3.743,0,0,0,.635-.008l.518.393.286.053a12.977,12.977,0,0,1,1.923.782l.048-.033,3.455.943q27.466,10.718,40.839,25.214a12.329,12.329,0,0,1,.383,4.717,4.093,4.093,0,0,1-.306.956q-2.62,5.421-11.321,6.114-3.319,2.841-20.052,3.8l11.128,21.3q6.072,9.963,6.657,25.1a1.369,1.369,0,0,1-1.721,1.071q-2.081-.39-5.881-18.2l8.287,29.252-3.591-4.051q-1.875-4.87-1.974-4.339l-.267,1.428-2.389-1q-1.931-1.417-17.9-24.8a265.023,265.023,0,0,1-11.5-24.28l1.39.471a174.77,174.77,0,0,1-18.7,30.617q-1.828,2.318-7.618,11.368l-2.659-1.131,1.922-3.947,1.8,1.012-.535.829-1.272,2.506-1.377-.765q-2.789-1.114-2.409-9.91a12.419,12.419,0,0,1,3.517-6.6l1.708-2.129q.174-1.149,1.234-.951.9.168-2.877,7.7l1.475-7.873q1.754.328-16.935,32.256,12.536-27.928,12.681-28.7l-.168.9q2,.374.758,2.042l-1.636-5.922q9.739-16.375,9.96-16.883l-.048.033,1.933.953q-2.9,5.538-7.478,12.872l-2.694,3.338q-1.644,1.339-2.623,1.156a1.376,1.376,0,0,1-1.219-1.833q.512-2.733,9.838-16.906,3.16-6.5,7.655-18.328a36.322,36.322,0,0,1,3.589-6.084l-.031.163q-.138.734-.8.441A89.569,89.569,0,0,0,188.8,75.067q-4.08-2.115-10-10.655l8.839-1.427ZM210.329,84.8l.351-1.877a18.593,18.593,0,0,1,2.3,1.022l-.917,2.193A15.573,15.573,0,0,0,208,84.828l-2.761-.813.831.071.076-.408q-.092.49-.217.931l-4.251,7.818q.122.023.459-1.772l-.908-.339q11.142,1.158,13.429.446,7.159-.348,7.276-.749l-.2.385a66.309,66.309,0,0,0-12.372-5.864Z" transform="translate(147.774 -8.5)"/><path class="cls-8" d="M284.767,90.464l2.815.527-.591,1.578-2.041-.382.049-.033.441-1.226,1.549.29q1.428.267,1,2.552-.649,3.468-4.534,15.872-2.5,6.584-9.556,23.968l.57.107-.28-.981q-.26,1.387-.5,1.341l.183-.979q.168-.9.658-.806-1.619,3.455-2.036,4.559l-.245.63a2,2,0,0,1-.527.788l.061-.326q.168-.9.7-.8-1.621,3.243-1.975,4.233l-1.829,4.809-.368.607.077.268a23.528,23.528,0,0,1-3.469,5.22l.065,5.966q-3.161-2.281-3.272-3.273l1.795.336.291-.874a2.71,2.71,0,0,1,.174,1.553,8.025,8.025,0,0,1-1.183,1.805q-2.256-2.619-2.444-2.738l-2.2.263q-5.794-1.085-5.761-7.117.1-.742.218-1.395a14.044,14.044,0,0,1,.583-2.213l1.127-3.083-3.761-15.99,1.672.313a.865.865,0,0,1-.314.321l.069-.367q.168-.9.494-.836-.728,2.313-1.055,2.252-1.387,3.119-2.238,5.408l-2.089,5.52a6.56,6.56,0,0,1-.772,1.418l.023-.122q.168-.9.9-.76l-1.328,1.9-.109.36q-2.767,7.336-5.99,6.732-.122-.023-2.338-.142l-.051-.178.39-.054a2.478,2.478,0,0,1-1.476-.91l1.338-1.058,1.079,1.68a5.612,5.612,0,0,0-4.125,1.508l-2.567.406-2.325-.435q-4.722-2.067-4.027-5.779a6.849,6.849,0,0,1,.273-1l1.608-4.3.477-.966q-.351,1.877-1,1.754Q247.775,101.524,252.1,94.65c.082.015.026.23-.164.645a8.886,8.886,0,0,1,.2-3.763l.26-1.387a2.634,2.634,0,0,0,2.183-.6q.57.107.214.885l.133-1.833q1.224.229,2.4-1.747l2.774.52-.173.474-2-.374.1-.319,1.755.329.931.892-.023.122,2.692.5q-.145,1.451-.222,1.859t.192-.344l-2.2-.413q.52-1.423,2.56-1.041,1.494,1.716-.014,10.216,1.4,20.488,1.265,22.785l-1.713-.321.056-.074,4.277-9.08-.183.979q-.168.9-.821.775A158.082,158.082,0,0,0,274.4,99.163l.448.084q-.079.2,2.069-3.835l2.857.535-.655,1.693-.1.53-2.081-.39.316-.785a1.673,1.673,0,0,1,1.927-.821l1.264.237a19.571,19.571,0,0,1-.221,3.886l-.206,1.1-2-.374Q279.274,99.274,284.767,90.464Z" transform="translate(147.774 -8.5)"/><path class="cls-8" d="M330.606,97.106q.05.854-.724.709a4.669,4.669,0,0,1,1.547.079,8.135,8.135,0,0,1,2.368,7.875l-.092.49q-8.08,24.2-9.022,28.333a19.121,19.121,0,0,1,4.041.292q-.351,1.877,2.2,1.341l-5.222-.978a19.372,19.372,0,0,1,4.8.519,23.27,23.27,0,0,1-7.424,3.339q-1.4,5.016-2.013,7.815l-.244-.046q.351-1.876.758-1.8-9.028,26.558-9.4,28.557l-3.018-.565.252-1.346q.168-.9.246-1.77l2,.374L311,173.409l-2.978-.558.107-.571q1.59.3.85,3.579l-2.9-.543.209-2.241,2.039.382-.463,2.025-2.448-.458a22.019,22.019,0,0,1-1.688-6.777l1.795.336-.147.564-2.937-.55.632-2.922,2.04.382-.44,1.227-.206,1.1-2.693-.5a25.813,25.813,0,0,1,.307-9.528l.214-1.142,1.917.359-.1.53-3.3-.619,1.063-2.292.14-.523,2.121.4q.124-.441-1.3,2.417l-2.774-.52.283-1.509a6.036,6.036,0,0,0-.123-2.05q2.784-9.908,2.644-9.386-10.392,2.952-15.322,2.451a42.67,42.67,0,0,1-11.173,7.577l-3.8-.881-.9-.168-1.374.123q-.7-1.44-.861-.584l.39-.054q-3.043-3.821-2.729-5.494l.115-.612q1.412-6.407,31.83-30.4,2.011-1.945,17.533-13.353,1.15-5.02,8.086-3.722l.842,1.593.612-.561-2.325-.435q.3-1.168,3.685-2.1.836.495-.346.273A29.576,29.576,0,0,0,330.606,97.106Zm-17.956,26.66q-.076.408-11.288,10.891a33.322,33.322,0,0,1,4.492-.088l-.107.571,4.931-12.8-.436.974Zm4.863-17.626q.084-.449-1.461,1.035l.214-1.142-2.163-.405q-.038.2,1.378-.587l-.171.686Z" transform="translate(147.774 -8.5)"/><path class="cls-8" d="M387.2,107.2l-.435,2.325a6.822,6.822,0,0,0-2.629.057l.283-1.509-1.264-.237a11.969,11.969,0,0,1,4.313-.037q-.344,1.836-5.623,4.1l-3.631-.68q3.684-.957,16.6-.9l-.26,1.387q-.191,1.02-2.233,1.1l.313-1.673-1.184-.222a15.686,15.686,0,0,1,3.381.211l-.283,1.509q-1.212.829-7.948,2.987l.237-1.265,5.425,1.016-.4,2.121-1.213-.058.329-1.754-.9-.168,2.338.142-.382,2.04a60.786,60.786,0,0,0-6.281,1.526q-.115.612-6.682,1.409a153.662,153.662,0,0,0-15.225,3.736q-2.448-.458-11.174,6.226a7.228,7.228,0,0,0-.293,1.338q-.407-.076-.239-.974l.433.841q-1.715,2.171-6.861,7.329-5,5.947-5.38,7.986a8.363,8.363,0,0,1-.186,2.119q-.417-.036-.217-1.1l.332.484-.313,1.673q-.939-.176-1.618,2.1-.164,2-.156,1.955c.135.025.193.093.173.2q.124.023,14.413-4.352a42.156,42.156,0,0,1,7.553-2.006q1.252-.821,2.325-1.591-.212,0-9.436-.8a24.108,24.108,0,0,1-7.5.157,8.2,8.2,0,0,1-4.4-2.681q.751-.619.551.441.245.046-1.247-3.485a3.537,3.537,0,0,0,2.867-.434,4.6,4.6,0,0,0,2.152-.441q4.734-.253,19.252-3.362a52.4,52.4,0,0,0,15.786-3.124q1.316-.26,6.543-2.026l2.421.158q.664,1.18.711.935l-2.04-.382.053-.286,2.815.527a1.277,1.277,0,0,0,.742,1.448q-.069.367.984,1.282a5.778,5.778,0,0,0-1.845,1.512l.053.39q-.054.286.358,5.3A79.9,79.9,0,0,1,384.5,154.07q-5.565,3.561-9.556,6.043t-14.133,5.228a56.869,56.869,0,0,1-13.625,1.5,45.419,45.419,0,0,1-9.433-.584c-.015.082-.568.02-1.655-.183q-5.019-.94-8.52-6.367l-2.162-2.432-.63.431q.612.115.879-1.313.214-1.142-.519-1.28l.517,1.068.456-1.308a17.7,17.7,0,0,1-.021-5.071l.451-2.407q.229-1.224,1.9-8.6,13.844-26.12,25.681-31.378A75.305,75.305,0,0,1,374.9,105.7Q384.627,106.718,387.2,107.2Z" transform="translate(147.774 -8.5)"/><path class="cls-8" d="M419.219,115.687a12.229,12.229,0,0,1,4.87,2.179q10.284,1,17.618,2.2,11.175,2.558,19.578,4.131l-.142,2.338-2.764-.349.336-1.795,4.284.8q-3.026,2.178-8.406,2.268a32.553,32.553,0,0,1-5.815.389l-.1-1.708,8.808,2.114.137,2.432-3.59-.672a.692.692,0,0,0,.831-.6l.183-.979,2.407.451.155,2.1q-5,.542-23.533-.607-5.163-.84-8.468-1.459l-.779.107a3.955,3.955,0,0,0-1.056-.451l-2.04-.382a7.4,7.4,0,0,1-1.023,1.624q-.006-.423,2.593,2.386-2.69.383-1.629.582l-.214-1.56,1.1,1.094q-5.394,9.631-5.476,10.08l.206-1.1,3.765.41.008-.041q.17-.01,3.8.67l1.346.252q1.631.306,13.48,4l1.142.214.169,2.481-1.632-.306-.121-1.838,2,.374-.112,2.175q-6.9.1-8.895.825-3.4-.129-5.944-.057l-.109-1.667.53.1.128,1.8q-10.21,2.648-14.573,1.831a68.119,68.119,0,0,1-9.027,16.635l.02-1.01a67.462,67.462,0,0,1,6.956.965q14.509,3.013,17.121,3.5l3.386.634.168,2.481q-1.836-.344-2.708-.423l-.113-1.879,2.121.4.08,1.155-.023.122q-.237,1.265-.971,1.127l.329-1.754,1.52.454-.134,2.3-1.632-.306c-.191-.036-.658-.095-1.4-.178l.336-1.795q2.775.52,7.387,1.595l-.127,2.256q-3.637-.428-2.779-.267l.351-1.877,2.57.481-.145,2.126q-4.865.272-15.109-.043-.615.35-12.732.571-3.336.9-20.154-.608-1.1-.207-1.048-.492l-.046.245a1.994,1.994,0,0,1-2.152,1.117l-1.305-.244L383,179l1.836.344-.268.752-2.244-.42a9.272,9.272,0,0,1-1.231-2.891l-.018-.806-.488-.556-.083-.9-.65.765q-.572-.107-2.035-1.986-.367-.069-1.352-1.351l.056-.75.038-.2q.244-1.305,2.954-2.7a5.848,5.848,0,0,1,3.707-1.755q4.2-8.208,8.861-19.58,7.394-12.423,14.9-22.967l1.427.267q-2.477-.971-2.549-2.166l-.079.2q-.654-.122-.753-1.619l.046-.245a2.116,2.116,0,0,1,.676-1.351,16.174,16.174,0,0,0,.165-1.785l-.49-.092.895,1.308.077-1.083q3.09-2.081,8.6-1.05.971-1.127,4.684-.432-.031.163-2.193-.242Q417.546,115.374,419.219,115.687Zm-21.531,52.508.176-.938c-.1.517-.06.693.113.528l-1.388-.26a.66.66,0,0,0-.871.6l-.008.041-.021-.342Z" transform="translate(147.774 -8.5)"/><path class="cls-9" d="M129.722,49.456q4.446.833,10.08,6.153l-.885.89.168-.9q1.323.375.987,2.169-.411.388-.219-.632-.041-.008.9,1.983l-.41.388.229.127q-2.391,6.9-16.867,17.912a5.3,5.3,0,0,0-2.794.49l-1.1-.206q-1.918-.359-1.78-1.093l1.346.252-3.465,1.589a2.327,2.327,0,0,0-1.818-2.916l-.059-.138.089-.026-4.2-.787q.138-.734-1.821-1.777l-2.028-6.08q1.509.283,2.327-2.055a1.891,1.891,0,0,0,1.713-.355l2.162.4a69.606,69.606,0,0,0-11.577,3.87Q98.94,68.393,82.826,78q-14.4,12.843-17.679,22.024l.046-.245q.678.212.266,2.414-.709-.048-.426-1.558.775.145,1.146,5.155.122-.652-.408-.752,1.305.244,12.676-1.849a97.653,97.653,0,0,0,17.566-2.031l3.345.626-1.2.747-2.692-.5,1.1-.258,1.877.351q-.42,2.244.854,1.3l-1.527.263-.4,2.121.1-.107-2.325-.435,1.484-.482,2.448.458q-5.872,9.034-29.725,13.519a35.144,35.144,0,0,1-11.386-.528q-11.423-2.139-13.817-14.157a18.433,18.433,0,0,1,.32-5.767l.359-1.917q3.56-19.01,39.9-38.553,18.482-7.6,34.456-8.79A48.951,48.951,0,0,1,129.722,49.456Z" transform="translate(147.774 -8.5)"/><path class="cls-10" d="M165.1,61.233q.051.855-.724.709a4.674,4.674,0,0,1,1.548.079,8.135,8.135,0,0,1,2.368,7.875l-.092.49q-8.08,24.2-9.022,28.333a19.121,19.121,0,0,1,4.041.292q-.351,1.877,2.2,1.341l-5.222-.978a19.38,19.38,0,0,1,4.8.519,23.253,23.253,0,0,1-7.424,3.339q-1.4,5.016-2.013,7.815l-.245-.046q.351-1.876.759-1.8-9.028,26.558-9.4,28.557l-3.019-.565.252-1.346q.168-.9.247-1.769l2,.374-.662,3.085-2.978-.558.107-.571q1.591.3.85,3.579l-2.9-.542.209-2.241,2.04.382-.464,2.024-2.448-.458a22.031,22.031,0,0,1-1.687-6.776l1.795.336-.148.563-2.937-.55.632-2.922,2.04.382-.441,1.226-.206,1.1-2.692-.5a25.812,25.812,0,0,1,.307-9.528l.214-1.142,1.917.359-.1.53-3.3-.619,1.063-2.292.14-.523,2.121.4q.124-.441-1.3,2.417l-2.774-.52.283-1.509a6.036,6.036,0,0,0-.123-2.05q2.784-9.908,2.644-9.386-10.392,2.952-15.322,2.451a42.671,42.671,0,0,1-11.173,7.577l-3.8-.881-.9-.168-1.374.123q-.7-1.44-.862-.584l.39-.054q-3.043-3.821-2.729-5.494l.115-.612q1.412-6.407,31.83-30.395,2.011-1.945,17.533-13.353,1.151-5.02,8.086-3.722l.842,1.593.612-.561-2.325-.435q.3-1.168,3.686-2.1.836.495-.347.273A29.576,29.576,0,0,0,165.1,61.233ZM147.141,87.893q-.076.408-11.287,10.892a33.322,33.322,0,0,1,4.492-.088l-.107.571,4.931-12.8-.436.974ZM152,70.266q.084-.449-1.461,1.035l.214-1.142-2.162-.4q-.038.2,1.377-.587l-.171.686Z" transform="translate(147.774 -8.5)"/><path class="cls-11" d="M183.155,57.479l1.685.7,2.315.94a2.588,2.588,0,0,0,.4.117,3.743,3.743,0,0,0,.635-.008l.518.393.286.053a12.977,12.977,0,0,1,1.923.782l.048-.033,3.455.943q27.466,10.718,40.839,25.214a12.329,12.329,0,0,1,.383,4.717,4.093,4.093,0,0,1-.306.956q-2.62,5.421-11.321,6.114-3.319,2.841-20.052,3.8l11.128,21.3q6.072,9.963,6.657,25.1a1.369,1.369,0,0,1-1.721,1.071q-2.081-.39-5.881-18.2l8.287,29.252-3.591-4.051q-1.875-4.87-1.974-4.339l-.267,1.428-2.389-1q-1.931-1.417-17.9-24.8a265.023,265.023,0,0,1-11.5-24.28l1.39.471a174.77,174.77,0,0,1-18.7,30.617q-1.828,2.318-7.618,11.368l-2.659-1.131,1.922-3.947,1.8,1.012-.535.829-1.272,2.506-1.377-.765q-2.789-1.114-2.409-9.91a12.419,12.419,0,0,1,3.517-6.6l1.708-2.129q.174-1.149,1.234-.951.9.168-2.877,7.7l1.475-7.873q1.754.328-16.935,32.256,12.536-27.928,12.681-28.7l-.168.9q2,.374.758,2.042l-1.636-5.922q9.739-16.375,9.96-16.883l-.048.033,1.933.953q-2.9,5.538-7.478,12.872l-2.694,3.338q-1.644,1.339-2.623,1.156a1.376,1.376,0,0,1-1.219-1.833q.512-2.733,9.838-16.906,3.16-6.5,7.655-18.328a36.322,36.322,0,0,1,3.589-6.084l-.031.163q-.138.734-.8.441A89.569,89.569,0,0,0,182.8,69.067q-4.08-2.115-10-10.655l8.839-1.427ZM204.329,78.8l.351-1.877a18.593,18.593,0,0,1,2.3,1.022l-.917,2.193A15.573,15.573,0,0,0,202,78.828l-2.761-.813.831.071.076-.408q-.092.49-.217.931l-4.251,7.818q.122.023.459-1.772l-.908-.339q11.142,1.158,13.429.446,7.159-.348,7.276-.749l-.2.385a66.309,66.309,0,0,0-12.372-5.864Z" transform="translate(147.774 -8.5)"/><path class="cls-12" d="M278.767,84.464l2.815.527-.591,1.578-2.041-.382.049-.033.441-1.226,1.549.29q1.428.267,1,2.552-.649,3.468-4.534,15.872-2.5,6.584-9.556,23.968l.57.107-.28-.981q-.26,1.387-.5,1.341l.183-.979q.168-.9.658-.806-1.619,3.455-2.036,4.559l-.245.63a2,2,0,0,1-.527.788l.061-.326q.168-.9.7-.8-1.621,3.243-1.975,4.233l-1.829,4.809-.368.607.077.268a23.528,23.528,0,0,1-3.469,5.22l.065,5.966q-3.161-2.281-3.272-3.273l1.795.336.291-.874a2.71,2.71,0,0,1,.174,1.553,8.025,8.025,0,0,1-1.183,1.805q-2.256-2.619-2.444-2.738l-2.2.263q-5.794-1.085-5.761-7.117.1-.742.218-1.395a14.044,14.044,0,0,1,.583-2.213l1.127-3.083-3.761-15.99,1.672.313a.865.865,0,0,1-.314.321l.069-.367q.168-.9.494-.836-.728,2.313-1.055,2.252-1.387,3.119-2.238,5.408l-2.089,5.52a6.56,6.56,0,0,1-.772,1.418l.023-.122q.168-.9.9-.76l-1.328,1.9-.109.36q-2.767,7.336-5.99,6.732-.122-.023-2.338-.142l-.051-.178.39-.054a2.478,2.478,0,0,1-1.476-.91l1.338-1.058,1.079,1.68a5.612,5.612,0,0,0-4.125,1.508l-2.567.406-2.325-.435q-4.722-2.067-4.027-5.779a6.849,6.849,0,0,1,.273-1l1.608-4.3.477-.966q-.351,1.877-1,1.754Q241.775,95.524,246.1,88.65c.082.015.026.23-.164.645a8.886,8.886,0,0,1,.2-3.763l.26-1.387a2.634,2.634,0,0,0,2.183-.6q.57.107.214.885l.133-1.833q1.224.229,2.4-1.747l2.774.52-.173.474-2-.374.1-.319,1.755.329.931.892-.023.122,2.692.5q-.145,1.451-.222,1.859t.192-.344l-2.2-.413q.52-1.423,2.56-1.041,1.494,1.716-.014,10.216,1.4,20.488,1.265,22.785l-1.713-.321.056-.074,4.277-9.08-.183.979q-.168.9-.821.775A158.082,158.082,0,0,0,268.4,93.163l.448.084q-.079.2,2.069-3.835l2.857.535-.655,1.693-.1.53-2.081-.39.316-.785a1.673,1.673,0,0,1,1.927-.821l1.264.237a19.571,19.571,0,0,1-.221,3.886l-.206,1.1-2-.374Q273.274,93.274,278.767,84.464Z" transform="translate(147.774 -8.5)"/><path class="cls-13" d="M324.606,91.106q.05.854-.724.709a4.669,4.669,0,0,1,1.547.079,8.135,8.135,0,0,1,2.368,7.875l-.092.49q-8.08,24.2-9.022,28.333a19.121,19.121,0,0,1,4.041.292q-.351,1.877,2.2,1.341l-5.222-.978a19.372,19.372,0,0,1,4.8.519,23.27,23.27,0,0,1-7.424,3.339q-1.4,5.016-2.013,7.815l-.244-.046q.351-1.876.758-1.8-9.028,26.558-9.4,28.557l-3.018-.565.252-1.346q.168-.9.246-1.77l2,.374L305,167.409l-2.978-.558.107-.571q1.59.3.85,3.579l-2.9-.543.209-2.241,2.039.382-.463,2.025-2.448-.458a22.019,22.019,0,0,1-1.688-6.777l1.795.336-.147.564-2.937-.55.632-2.922,2.04.382-.44,1.227-.206,1.1-2.693-.5a25.813,25.813,0,0,1,.307-9.528l.214-1.142,1.917.359-.1.53-3.3-.619,1.063-2.292.14-.523,2.121.4q.124-.441-1.3,2.417l-2.774-.52.283-1.509a6.036,6.036,0,0,0-.123-2.05q2.784-9.908,2.644-9.386-10.392,2.952-15.322,2.451a42.67,42.67,0,0,1-11.173,7.577l-3.8-.881-.9-.168-1.374.123q-.7-1.44-.861-.584l.39-.054q-3.043-3.821-2.729-5.494l.115-.612q1.412-6.407,31.83-30.4,2.011-1.945,17.533-13.353,1.15-5.02,8.086-3.722l.842,1.593.612-.561-2.325-.435q.3-1.168,3.685-2.1.836.495-.346.273A29.576,29.576,0,0,0,324.606,91.106Zm-17.956,26.66q-.076.408-11.288,10.891a33.322,33.322,0,0,1,4.492-.088l-.107.571,4.931-12.8-.436.974Zm4.863-17.626q.084-.449-1.461,1.035l.214-1.142-2.163-.405q-.038.2,1.378-.587l-.171.686Z" transform="translate(147.774 -8.5)"/><path class="cls-14" d="M381.2,101.2l-.435,2.325a6.822,6.822,0,0,0-2.629.057l.283-1.509-1.264-.237a11.969,11.969,0,0,1,4.313-.037q-.344,1.836-5.623,4.1l-3.631-.68q3.684-.957,16.6-.9l-.26,1.387q-.191,1.02-2.233,1.1l.313-1.673-1.184-.222a15.686,15.686,0,0,1,3.381.211l-.283,1.509q-1.212.829-7.948,2.987l.237-1.265,5.425,1.016-.4,2.121-1.213-.058.329-1.754-.9-.168,2.338.142-.382,2.04a60.786,60.786,0,0,0-6.281,1.526q-.115.612-6.682,1.409a153.662,153.662,0,0,0-15.225,3.736q-2.448-.458-11.174,6.226a7.228,7.228,0,0,0-.293,1.338q-.407-.076-.239-.974l.433.841q-1.715,2.171-6.861,7.329-5,5.947-5.38,7.986a8.363,8.363,0,0,1-.186,2.119q-.417-.036-.217-1.1l.332.484-.313,1.673q-.939-.176-1.618,2.1-.164,2-.156,1.955c.135.025.193.093.173.2q.124.023,14.413-4.352a42.156,42.156,0,0,1,7.553-2.006q1.252-.821,2.325-1.591-.212,0-9.436-.8a24.108,24.108,0,0,1-7.5.157,8.2,8.2,0,0,1-4.4-2.681q.751-.619.551.441.245.046-1.247-3.485a3.537,3.537,0,0,0,2.867-.434,4.6,4.6,0,0,0,2.152-.441q4.734-.253,19.252-3.362a52.4,52.4,0,0,0,15.786-3.124q1.316-.26,6.543-2.026l2.421.158q.664,1.18.711.935l-2.04-.382.053-.286,2.815.527a1.277,1.277,0,0,0,.742,1.448q-.069.367.984,1.282a5.778,5.778,0,0,0-1.845,1.512l.053.39q-.054.286.358,5.3A79.9,79.9,0,0,1,378.5,148.07q-5.565,3.561-9.556,6.043t-14.133,5.228a56.869,56.869,0,0,1-13.625,1.5,45.419,45.419,0,0,1-9.433-.584c-.015.082-.568.02-1.655-.183q-5.019-.94-8.52-6.367l-2.162-2.432-.63.431q.612.115.879-1.313.214-1.142-.519-1.28l.517,1.068.456-1.308a17.7,17.7,0,0,1-.021-5.071l.451-2.407q.229-1.224,1.9-8.6,13.844-26.12,25.681-31.378A75.305,75.305,0,0,1,368.9,99.7Q378.627,100.718,381.2,101.2Z" transform="translate(147.774 -8.5)"/><path class="cls-15" d="M413.219,109.687a12.229,12.229,0,0,1,4.87,2.179q10.284,1,17.618,2.2,11.175,2.558,19.578,4.131l-.142,2.338-2.764-.349.336-1.795,4.284.8q-3.026,2.178-8.406,2.268a32.553,32.553,0,0,1-5.815.389l-.1-1.708,8.808,2.114.137,2.432-3.59-.672a.692.692,0,0,0,.831-.6l.183-.979,2.407.451.155,2.1q-5,.542-23.533-.607-5.163-.84-8.468-1.459l-.779.107a3.955,3.955,0,0,0-1.056-.451l-2.04-.382a7.4,7.4,0,0,1-1.023,1.624q-.006-.423,2.593,2.386-2.69.383-1.629.582l-.214-1.56,1.1,1.094q-5.394,9.631-5.476,10.08l.206-1.1,3.765.41.008-.041q.17-.01,3.8.67l1.346.252q1.631.306,13.48,4l1.142.214.169,2.481-1.632-.306-.121-1.838,2,.374-.112,2.175q-6.9.1-8.895.825-3.4-.129-5.944-.057l-.109-1.667.53.1.128,1.8q-10.21,2.648-14.573,1.831a68.119,68.119,0,0,1-9.027,16.635l.02-1.01a67.462,67.462,0,0,1,6.956.965q14.509,3.013,17.121,3.5l3.386.634.168,2.481q-1.836-.344-2.708-.423l-.113-1.879,2.121.4.08,1.155-.023.122q-.237,1.265-.971,1.127l.329-1.754,1.52.454-.134,2.3-1.632-.306c-.191-.036-.658-.095-1.4-.178l.336-1.795q2.775.52,7.387,1.595l-.127,2.256q-3.637-.428-2.779-.267l.351-1.877,2.57.481-.145,2.126q-4.865.272-15.109-.043-.615.35-12.732.571-3.336.9-20.154-.608-1.1-.207-1.048-.492l-.046.245a1.994,1.994,0,0,1-2.152,1.117l-1.305-.244L377,173l1.836.344-.268.752-2.244-.42a9.272,9.272,0,0,1-1.231-2.891l-.018-.806-.488-.556-.083-.9-.65.765q-.572-.107-2.035-1.986-.367-.069-1.352-1.351l.056-.75.038-.2q.244-1.305,2.954-2.7a5.848,5.848,0,0,1,3.707-1.755q4.2-8.208,8.861-19.58,7.394-12.423,14.9-22.967l1.427.267q-2.477-.971-2.549-2.166l-.079.2q-.654-.122-.753-1.619l.046-.245a2.116,2.116,0,0,1,.676-1.351,16.174,16.174,0,0,0,.165-1.785l-.49-.092.895,1.308.077-1.083q3.09-2.081,8.6-1.05.971-1.127,4.684-.432-.031.163-2.193-.242Q411.546,109.374,413.219,109.687Zm-21.531,52.508.176-.938c-.1.517-.06.693.113.528l-1.388-.26a.66.66,0,0,0-.871.6l-.008.041-.021-.342Z" transform="translate(147.774 -8.5)"/><rect class="cls-16" y="59.266" width="26.5" height="26.5"/><rect class="cls-17" x="46" y="59.266" width="26.5" height="26.5"/><rect class="cls-18" y="103.266" width="26.5" height="26.5"/><rect class="cls-5" y="147.266" width="26.5" height="26.5"/><rect class="cls-19" x="93" y="59.266" width="26.5" height="26.5"/><rect class="cls-20" x="46" y="103.266" width="26.5" height="26.5"/><rect class="cls-8" x="92.774" y="103.266" width="26.5" height="26.5"/></svg>