<?xml version="1.0" encoding="utf-8"?>
<!-- Generator: Adobe Illustrator 21.1.0, SVG Export Plug-In . SVG Version: 6.00 Build 0)  -->
<svg version="1.1" id="Layer_1" xmlns="http://www.w3.org/2000/svg" xmlns:xlink="http://www.w3.org/1999/xlink" x="0px" y="0px"
	 viewBox="0 0 500 500" style="enable-background:new 0 0 500 500;" xml:space="preserve" preserveAspectRatio="none">
<style type="text/css">
	.st0{fill:#989898;}
	.st1{fill:#CCCBCB;}
	.st2{fill:#B2B3B3;}
	.st3{fill:none;stroke:#808080;stroke-width:3;stroke-miterlimit:10;}
	.st4{fill:#1B1464;}
	.st5{fill:url(#SVGID_1_);}
	.st6{fill:#FFFFFF;}
	.st7{fill:#FF5500;}
	.st8{fill:url(#SVGID_2_);}
	.st9{fill:url(#SVGID_3_);}
	.st10{fill:url(#SVGID_4_);}
	.st11{fill:url(#SVGID_5_);}
	.st12{fill:url(#SVGID_6_);}
	.st13{fill:url(#SVGID_7_);}
	.st14{fill:url(#SVGID_8_);}
	.st15{fill:#00FFFF;}
	.st16{fill:#FF00FF;}
	.st17{fill:#375EF0;}
	.st18{fill:#FEC80E;}
	.st19{fill:#581274;}
</style>
<g>
	<path class="st0" d="M463.1,326.2l23.3-110.6c0,0,9.6-29.9-18.4-27.9c-29.8,2.1-150.9-3.5-268.3-41.1l-6,39.2c0,0,24,7.3,20.1,32.8
		l-9.5,46.5C204.3,265.1,290.8,309,463.1,326.2z"/>
	<path class="st1" d="M307,300.7l54.1-119.3c0,0-2.3-0.2-7.8-1l-54,118.2C299.3,298.7,302.7,299.6,307,300.7z"/>
	<path class="st2" d="M315,302.7l54.2-120.3c0,0,8.3,1.1,22.4,2.2L338.4,308C338.4,308,326.7,305.6,315,302.7z"/>
	<path class="st3" d="M467.7,304.2c0,0-169.3-13.3-258.6-62.6"/>
	<path class="st4" d="M199.6,146.5l-179.5-39c0,0-15.6,33.3-4.1,64.2c0,0,72.1-10.9,177.7,14L199.6,146.5z"/>
	
		<linearGradient id="SVGID_1_" gradientUnits="userSpaceOnUse" x1="348.313" y1="376.2198" x2="506.2713" y2="433.7119" gradientTransform="matrix(1.0751 7.228945e-02 -7.740598e-02 1.1512 -64.5854 -170.8005)">
		<stop  offset="0" style="stop-color:#FF00FF"/>
		<stop  offset="0.2172" style="stop-color:#FC00FD"/>
		<stop  offset="0.3731" style="stop-color:#F301F5"/>
		<stop  offset="0.51" style="stop-color:#E303E8"/>
		<stop  offset="0.6358" style="stop-color:#CD05D5"/>
		<stop  offset="0.7541" style="stop-color:#B009BD"/>
		<stop  offset="0.8667" style="stop-color:#8D0CA0"/>
		<stop  offset="0.973" style="stop-color:#64117E"/>
		<stop  offset="1" style="stop-color:#581274"/>
	</linearGradient>
	<path class="st5" d="M462.3,326.2c0,0,0.5,1.4-14.6-6.3c-18.7-9.6-25.5-6.6-54.8-9.9c-29.4-3.3-37.3-9.9-51.8-16.9
		s-62.4-0.6-62.4-0.6s0.4,2,10.6,13.1c10.3,11.1,34.8,9.1,34.8,9.1s19.5,0.7,28.8,13c9.3,12.4,38.4,5.1,37.4,20.4
		c0,0,1.1,11.9-5.6,17.3c-6.7,5.3-2.8,13.7-2.8,13.7s7.7,12.3,19.6,1.3c0,0,5.7-9.3,1.9-18.8s9.2-23.4,9.2-23.4s6.1-6.3,21.7,2.4
		C449.8,349.2,462.3,326.2,462.3,326.2z"/>
	
		<ellipse transform="matrix(0.1502 -0.9887 0.9887 0.1502 188.8474 634.0739)" class="st6" cx="463.3" cy="207.2" rx="9.4" ry="9.4"/>
	<g>
		<path class="st7" d="M135.7,154.5c3,0.6,6.3,2.6,10.1,6.2l-0.9,0.9l0.2-0.9c0.9,0.2,1.2,1,1,2.2c-0.3,0.3-0.3,0-0.2-0.6
			c0,0,0.3,0.7,0.9,2l-0.4,0.4l0.2,0.1c-1.6,4.6-7.2,10.6-16.9,17.9c-0.7-0.1-1.6,0-2.8,0.5l-1.1-0.2c-1.3-0.2-1.9-0.6-1.8-1.1
			l1.3,0.3l-3.5,1.6c0.3-1.5-0.3-2.4-1.8-2.9l-0.1-0.1l0.1,0l-4.2-0.8c0.1-0.5-0.5-1.1-1.8-1.8l-2-6.1c1,0.2,1.8-0.5,2.3-2.1
			c0.7,0.1,1.3,0,1.7-0.4l2.2,0.4c-4.1,1-7.9,2.3-11.6,3.9c-1.2-0.2-7.1,2.9-17.9,9.3c-9.6,8.6-15.5,15.9-17.7,22l0-0.2
			c0.5,0.1,0.5,0.9,0.3,2.4c-0.5,0-0.6-0.6-0.4-1.6c0.5,0.1,0.9,1.8,1.1,5.2c0.1-0.4-0.1-0.7-0.4-0.8c0.9,0.2,5.1-0.5,12.7-1.8
			c5.7-0.1,11.5-0.8,17.6-2l3.3,0.6l-1.2,0.7l-2.7-0.5l1.1-0.3l1.9,0.4c-0.3,1.5,0,1.9,0.9,1.3l-1.5,0.3l-0.4,2.1l0.1-0.1l-2.3-0.4
			l1.5-0.5l2.4,0.5c-3.9,6-13.8,10.5-29.7,13.5c-3.2,0.5-7,0.3-11.4-0.5c-7.6-1.4-12.2-6.1-13.8-14.2c-0.2-1.6-0.1-3.5,0.3-5.8
			l0.4-1.9c2.4-12.7,15.7-25.5,39.9-38.6c12.3-5.1,23.8-8,34.5-8.8C129.7,153.9,133.2,154,135.7,154.5z"/>
		<path class="st7" d="M171.1,166.2c0,0.6-0.2,0.8-0.7,0.7c0.4-0.1,0.9,0,1.5,0.1c2.2,2.1,3,4.7,2.4,7.9l-0.1,0.5
			c-5.4,16.1-8.4,25.6-9,28.3c1.4,0,2.8,0.1,4,0.3c-0.2,1.3,0.5,1.7,2.2,1.3l-5.2-1c0.8-0.1,2.4,0.1,4.8,0.5
			c-1.9,1.4-4.4,2.5-7.4,3.3c-0.9,3.3-1.6,5.9-2,7.8l-0.2,0c0.2-1.3,0.5-1.9,0.8-1.8c-6,17.7-9.2,27.2-9.4,28.6l-3-0.6l0.3-1.3
			c0.1-0.6,0.2-1.2,0.2-1.8l2,0.4l-0.7,3.1l-3-0.6l0.1-0.6c1.1,0.2,1.3,1.4,0.8,3.6l-2.9-0.5l0.2-2.2l2,0.4l-0.5,2l-2.4-0.5
			c-0.9-2-1.4-4.2-1.7-6.8l1.8,0.3l-0.1,0.6l-2.9-0.6l0.6-2.9l2,0.4l-0.4,1.2l-0.2,1.1l-2.7-0.5c-0.5-2.6-0.4-5.7,0.3-9.5
			c0.1-0.7,0.2-1.1,0.2-1.1l1.9,0.4l-0.1,0.5l-3.3-0.6l1.1-2.3l0.1-0.5l2.1,0.4c0.1-0.3-0.3,0.5-1.3,2.4l-2.8-0.5l0.3-1.5
			c0.1-0.5,0-1.1-0.1-2c1.9-6.6,2.7-9.7,2.6-9.4c-6.9,2-12,2.8-15.3,2.5c-4.1,3.6-7.8,6.2-11.2,7.6l-3.8-0.9l-0.9-0.2l-1.4,0.1
			c-0.5-1-0.8-1.2-0.9-0.6l0.4-0.1c-2-2.5-2.9-4.4-2.7-5.5l0.1-0.6c0.9-4.3,11.6-14.4,31.8-30.4c1.3-1.3,7.2-5.7,17.5-13.4
			c0.8-3.3,3.5-4.6,8.1-3.7l0.8,1.6l0.6-0.6l-2.3-0.4c0.2-0.8,1.4-1.5,3.7-2.1c0.6,0.3,0.4,0.4-0.3,0.3
			C167.6,166.9,168.8,166.7,171.1,166.2z M153.1,192.9c-0.1,0.3-3.8,3.9-11.3,10.9c0.6-0.1,2.1-0.1,4.5-0.1l-0.1,0.6l4.9-12.8
			l-0.4,1L153.1,192.9z M158,175.3c0.1-0.3-0.4,0-1.5,1l0.2-1.1l-2.2-0.4c0,0.1,0.4-0.1,1.4-0.6l-0.2,0.7L158,175.3z"/>
		<path class="st7" d="M189.2,162.5c0,0,0.6,0.2,1.7,0.7l2.3,0.9c0.2,0.1,0.3,0.1,0.4,0.1c0.1,0,0.3,0,0.6,0l0.5,0.4l0.3,0.1
			c0.2,0,0.9,0.3,1.9,0.8l0,0l3.5,0.9c18.3,7.1,31.9,15.6,40.8,25.2c0.5,2,0.6,3.6,0.4,4.7c-0.1,0.3-0.2,0.6-0.3,1
			c-1.7,3.6-5.5,5.7-11.3,6.1c-2.2,1.9-8.9,3.2-20.1,3.8l11.1,21.3c4,6.6,6.3,15,6.7,25.1c-0.3,0.9-0.9,1.2-1.7,1.1
			c-1.4-0.3-3.3-6.3-5.9-18.2l8.3,29.3l-3.6-4.1c-1.2-3.2-1.9-4.7-2-4.3l-0.3,1.4l-2.4-1c-1.3-0.9-7.3-9.2-17.9-24.8
			c-3.8-6.9-7.6-15-11.5-24.3l1.4,0.5c-5.7,11.7-11.9,21.9-18.7,30.6c-1.2,1.5-3.8,5.3-7.6,11.4l-2.7-1.1l1.9-3.9l1.8,1l-0.5,0.8
			l-1.3,2.5l-1.4-0.8c-1.9-0.7-2.7-4-2.4-9.9c0.5-2.6,1.7-4.8,3.5-6.6l1.7-2.1c0.1-0.8,0.5-1.1,1.2-1c0.6,0.1-0.4,2.7-2.9,7.7
			l1.5-7.9c1.2,0.2-4.5,11-16.9,32.3c8.4-18.6,12.6-28.2,12.7-28.7l-0.2,0.9c1.3,0.2,1.6,0.9,0.8,2l-1.6-5.9
			c6.5-10.9,9.8-16.5,10-16.9l0,0l1.9,1c-1.9,3.7-4.4,8-7.5,12.9l-2.7,3.3c-1.1,0.9-2,1.3-2.6,1.2c-1-0.2-1.4-0.8-1.2-1.8
			c0.3-1.8,3.6-7.5,9.8-16.9c2.1-4.3,4.7-10.4,7.7-18.3c1.5-3,2.7-5,3.6-6.1l0,0.2c-0.1,0.5-0.4,0.6-0.8,0.4c3.8-4.9,7-10,9.6-15.3
			c-2.7-1.4-6.1-5-10-10.7l8.8-1.4C188.7,162.3,189.2,162.5,189.2,162.5z M210.3,183.8l0.4-1.9c0.8,0.3,1.6,0.6,2.3,1l-0.9,2.2
			c-0.8-0.5-2.2-0.9-4.1-1.3l-2.8-0.8l0.8,0.1l0.1-0.4c-0.1,0.3-0.1,0.6-0.2,0.9l-4.3,7.8c0.1,0,0.2-0.6,0.5-1.8l-0.9-0.3
			c7.4,0.8,11.9,0.9,13.4,0.4c4.8-0.2,7.2-0.5,7.3-0.7l-0.2,0.4c-2.7-1.8-6.9-3.8-12.4-5.9L210.3,183.8z"/>
		<path class="st7" d="M284.8,189.5l2.8,0.5l-0.6,1.6l-2-0.4l0,0l0.4-1.2l1.5,0.3c1,0.2,1.3,1,1,2.6c-0.4,2.3-1.9,7.6-4.5,15.9
			c-1.7,4.4-4.9,12.4-9.6,24l0.6,0.1l-0.3-1c-0.2,0.9-0.3,1.4-0.5,1.3l0.2-1c0.1-0.6,0.3-0.9,0.7-0.8c-1.1,2.3-1.8,3.8-2,4.6
			l-0.2,0.6c-0.2,0.4-0.4,0.7-0.5,0.8l0.1-0.3c0.1-0.6,0.3-0.9,0.7-0.8c-1.1,2.2-1.7,3.6-2,4.2l-1.8,4.8l-0.4,0.6l0.1,0.3
			c-0.4,1.1-1.6,2.8-3.5,5.2l0.1,6c-2.1-1.5-3.2-2.6-3.3-3.3l1.8,0.3l0.3-0.9c0.2,0.5,0.3,1,0.2,1.6c0,0.2-0.4,0.8-1.2,1.8
			c-1.5-1.7-2.3-2.7-2.4-2.7l-2.2,0.3c-3.9-0.7-5.8-3.1-5.8-7.1c0.1-0.5,0.1-1,0.2-1.4c0.2-0.8,0.4-1.6,0.6-2.2l1.1-3.1l-3.8-16
			l1.7,0.3c0,0.1-0.2,0.2-0.3,0.3l0.1-0.4c0.1-0.6,0.3-0.9,0.5-0.8c-0.5,1.5-0.8,2.3-1.1,2.3c-0.9,2.1-1.7,3.9-2.2,5.4l-2.1,5.5
			c-0.2,0.4-0.4,0.9-0.8,1.4l0-0.1c0.1-0.6,0.4-0.9,0.9-0.8l-1.3,1.9l-0.1,0.4c-1.8,4.9-3.8,7.1-6,6.7c-0.1,0-0.9-0.1-2.3-0.1
			l-0.1-0.2l0.4-0.1c-0.6-0.1-1.1-0.4-1.5-0.9l1.3-1.1l1.1,1.7c-1.5-0.1-2.9,0.4-4.1,1.5l-2.6,0.4l-2.3-0.4c-3.1-1.4-4.5-3.3-4-5.8
			c0.1-0.3,0.2-0.7,0.3-1l1.6-4.3l0.5-1c-0.2,1.3-0.6,1.8-1,1.8c13.8-24.4,22.2-38.9,25-43.5c0.1,0,0,0.2-0.2,0.6
			c-0.2-0.6-0.2-1.9,0.2-3.8l0.3-1.4c0.8,0.1,1.5-0.1,2.2-0.6c0.4,0.1,0.5,0.4,0.2,0.9l0.1-1.8c0.8,0.2,1.6-0.4,2.4-1.7l2.8,0.5
			l-0.2,0.5l-2-0.4l0.1-0.3l1.8,0.3l0.9,0.9l0,0.1l2.7,0.5c-0.1,1-0.2,1.6-0.2,1.9c-0.1,0.3,0,0.2,0.2-0.3l-2.2-0.4
			c0.3-0.9,1.2-1.3,2.6-1c1,1.1,1,4.5,0,10.2c0.9,13.7,1.4,21.3,1.3,22.8l-1.7-0.3l0.1-0.1l4.3-9.1l-0.2,1c-0.1,0.6-0.4,0.9-0.8,0.8
			c2.3-3.8,4.9-8.9,7.8-15.2l0.4,0.1c-0.1,0.1,0.6-1.1,2.1-3.8l2.9,0.5l-0.7,1.7l-0.1,0.5l-2.1-0.4l0.3-0.8c0.4-0.7,1.1-1,1.9-0.8
			l1.3,0.2c0,1.6,0,2.9-0.2,3.9c-0.1,0.8-0.2,1.1-0.2,1.1l-2-0.4C278.9,198.9,281.1,195.3,284.8,189.5z"/>
		<path class="st7" d="M330.6,196.1c0,0.6-0.2,0.8-0.7,0.7c0.4-0.1,0.9,0,1.5,0.1c2.2,2.1,3,4.7,2.4,7.9l-0.1,0.5
			c-5.4,16.1-8.4,25.6-9,28.3c1.4,0,2.8,0.1,4,0.3c-0.2,1.3,0.5,1.7,2.2,1.3l-5.2-1c0.8-0.1,2.4,0.1,4.8,0.5
			c-1.9,1.4-4.4,2.5-7.4,3.3c-0.9,3.3-1.6,5.9-2,7.8l-0.2,0c0.2-1.3,0.5-1.9,0.8-1.8c-6,17.7-9.2,27.2-9.4,28.6l-3-0.6l0.3-1.3
			c0.1-0.6,0.2-1.2,0.2-1.8l2,0.4l-0.7,3.1l-3-0.6l0.1-0.6c1.1,0.2,1.3,1.4,0.8,3.6l-2.9-0.5l0.2-2.2l2,0.4l-0.5,2l-2.4-0.5
			c-0.9-2-1.4-4.2-1.7-6.8l1.8,0.3l-0.1,0.6l-2.9-0.6l0.6-2.9l2,0.4l-0.4,1.2l-0.2,1.1l-2.7-0.5c-0.5-2.6-0.4-5.7,0.3-9.5
			c0.1-0.7,0.2-1.1,0.2-1.1l1.9,0.4l-0.1,0.5l-3.3-0.6l1.1-2.3l0.1-0.5l2.1,0.4c0.1-0.3-0.3,0.5-1.3,2.4l-2.8-0.5l0.3-1.5
			c0.1-0.5,0-1.1-0.1-2c1.9-6.6,2.7-9.7,2.6-9.4c-6.9,2-12,2.8-15.3,2.5c-4.1,3.6-7.8,6.2-11.2,7.6l-3.8-0.9l-0.9-0.2l-1.4,0.1
			c-0.5-1-0.8-1.2-0.9-0.6l0.4-0.1c-2-2.5-2.9-4.4-2.7-5.5l0.1-0.6c0.9-4.3,11.5-14.4,31.8-30.4c1.3-1.3,7.2-5.7,17.5-13.4
			c0.8-3.3,3.5-4.6,8.1-3.7l0.8,1.6l0.6-0.6l-2.3-0.4c0.2-0.8,1.4-1.5,3.7-2.1c0.6,0.3,0.4,0.4-0.3,0.3
			C327.1,196.7,328.3,196.5,330.6,196.1z M312.7,222.8c-0.1,0.3-3.8,3.9-11.3,10.9c0.6-0.1,2.1-0.1,4.5-0.1l-0.1,0.6l4.9-12.8
			l-0.4,1L312.7,222.8z M317.5,205.1c0.1-0.3-0.4,0-1.5,1l0.2-1.1l-2.2-0.4c0,0.1,0.4-0.1,1.4-0.6l-0.2,0.7L317.5,205.1z"/>
		<path class="st7" d="M387.2,206.2l-0.4,2.3c-0.8-0.2-1.7-0.1-2.6,0.1l0.3-1.5l-1.3-0.2c1.5-0.3,3-0.3,4.3,0
			c-0.2,1.2-2.1,2.6-5.6,4.1l-3.6-0.7c2.5-0.6,8-0.9,16.6-0.9l-0.3,1.4c-0.1,0.7-0.9,1-2.2,1.1l0.3-1.7l-1.2-0.2
			c1.3,0,2.4,0,3.4,0.2l-0.3,1.5c-0.8,0.6-3.5,1.5-7.9,3l0.2-1.3l5.4,1l-0.4,2.1l-1.2-0.1l0.3-1.8l-0.9-0.2l2.3,0.1l-0.4,2
			c-3.6,0.8-5.7,1.3-6.3,1.5c-0.1,0.4-2.3,0.9-6.7,1.4c-4.7,0.9-9.7,2.1-15.2,3.7c-1.6-0.3-5.4,1.8-11.2,6.2c0-0.1-0.1,0.4-0.3,1.3
			c-0.3-0.1-0.4-0.4-0.2-1l0.4,0.8c-1.1,1.4-3.4,3.9-6.9,7.3c-3.3,4-5.1,6.6-5.4,8c0,0.5,0,1.2-0.2,2.1c-0.3,0-0.3-0.4-0.2-1.1
			l0.3,0.5l-0.3,1.7c-0.6-0.1-1.2,0.6-1.6,2.1c-0.1,1.3-0.2,2-0.2,2c0.1,0,0.2,0.1,0.2,0.2c0.1,0,4.9-1.4,14.4-4.4
			c2.1-0.8,4.6-1.5,7.6-2c0.8-0.5,1.6-1.1,2.3-1.6c-0.1,0-3.3-0.3-9.4-0.8c-3.2,0.5-5.7,0.5-7.5,0.2c-1.5-0.3-3-1.2-4.4-2.7
			c0.5-0.4,0.7-0.3,0.6,0.4c0.2,0-0.3-1.1-1.2-3.5c1.2,0.2,2.2,0.1,2.9-0.4c1,0,1.7-0.2,2.2-0.4c3.2-0.2,9.6-1.3,19.3-3.4
			c5.9-0.3,11.2-1.4,15.8-3.1c0.9-0.2,3.1-0.8,6.5-2l2.4,0.2c0.4,0.8,0.7,1.1,0.7,0.9l-2-0.4l0.1-0.3l2.8,0.5
			c-0.1,0.6,0.1,1.1,0.7,1.4c0,0.2,0.3,0.7,1,1.3c-1,0.6-1.6,1.1-1.8,1.5l0.1,0.4c0,0.2,0.1,2,0.4,5.3c-2.2,4.7-4.5,8.8-7,12.3
			c-3.7,2.4-6.9,4.4-9.6,6c-2.7,1.7-7.4,3.4-14.1,5.2c-3.7,1-8.3,1.5-13.6,1.5c-3.7,0.1-6.8-0.1-9.4-0.6c0,0.1-0.6,0-1.7-0.2
			c-3.3-0.6-6.2-2.7-8.5-6.4l-2.2-2.4l-0.6,0.4c0.4,0.1,0.7-0.4,0.9-1.3c0.1-0.8,0-1.2-0.5-1.3l0.5,1.1l0.5-1.3
			c-0.2-2.1-0.3-3.8,0-5.1l0.5-2.4c0.2-0.8,0.8-3.7,1.9-8.6c9.2-17.4,17.8-27.9,25.7-31.4c6.6-1.5,13.5-2.1,20.8-1.7
			C381.4,205.4,385.5,205.9,387.2,206.2z"/>
		<path class="st7" d="M419.2,214.7c1.8,0.4,3.4,1.1,4.9,2.2c6.9,0.7,12.7,1.4,17.6,2.2c7.5,1.7,14,3.1,19.6,4.1l-0.1,2.3l-2.8-0.3
			l0.3-1.8l4.3,0.8c-2,1.5-4.8,2.2-8.4,2.3c-2,0.3-3.9,0.4-5.8,0.4l-0.1-1.7l8.8,2.1l0.1,2.4L454,229c0.5,0,0.7-0.2,0.8-0.6l0.2-1
			l2.4,0.5l0.2,2.1c-3.3,0.4-11.2,0.2-23.5-0.6c-3.4-0.6-6.3-1-8.5-1.5l-0.8,0.1c-0.5-0.3-0.8-0.4-1.1-0.5l-2-0.4
			c0.1,0-0.2,0.5-1,1.6c0-0.3,0.9,0.5,2.6,2.4c-1.8,0.3-2.3,0.4-1.6,0.6l-0.2-1.6l1.1,1.1c-3.6,6.4-5.4,9.8-5.5,10.1l0.2-1.1
			l3.8,0.4l0,0c0.1,0,1.4,0.2,3.8,0.7l1.3,0.3c1.1,0.2,5.6,1.5,13.5,4l1.1,0.2l0.2,2.5l-1.6-0.3l-0.1-1.8l2,0.4l-0.1,2.2
			c-4.6,0.1-7.6,0.3-8.9,0.8c-2.3-0.1-4.2-0.1-5.9-0.1l-0.1-1.7l0.5,0.1l0.1,1.8c-6.8,1.8-11.7,2.4-14.6,1.8
			c-2.4,6.3-5.4,11.8-9,16.6l0-1c2.1,0.2,4.4,0.5,7,1c9.7,2,15.4,3.2,17.1,3.5l3.4,0.6l0.2,2.5c-1.2-0.2-2.1-0.4-2.7-0.4l-0.1-1.9
			l2.1,0.4l0.1,1.2l0,0.1c-0.2,0.8-0.5,1.2-1,1.1l0.3-1.8l1.5,0.5l-0.1,2.3l-1.6-0.3c-0.2,0-0.7-0.1-1.4-0.2l0.3-1.8
			c1.8,0.3,4.3,0.9,7.4,1.6l-0.1,2.3c-2.4-0.3-3.4-0.4-2.8-0.3l0.4-1.9l2.6,0.5l-0.1,2.1c-3.2,0.2-8.3,0.2-15.1,0
			c-0.4,0.2-4.7,0.4-12.7,0.6c-2.2,0.6-8.9,0.4-20.2-0.6c-0.7-0.1-1.1-0.3-1-0.5l0,0.2c-0.6,0.9-1.3,1.3-2.2,1.1l-1.3-0.2l0-0.8
			l1.8,0.3l-0.3,0.8l-2.2-0.4c-0.8-1.5-1.2-2.5-1.2-2.9l0-0.8l-0.5-0.6l-0.1-0.9l-0.6,0.8c-0.4-0.1-1.1-0.7-2-2
			c-0.2,0-0.7-0.5-1.4-1.4l0.1-0.7l0-0.2c0.2-0.9,1.1-1.8,3-2.7c1.1-1.1,2.4-1.7,3.7-1.8c2.8-5.5,5.8-12,8.9-19.6
			c4.9-8.3,9.9-15.9,14.9-23l1.4,0.3c-1.7-0.6-2.5-1.4-2.5-2.2l-0.1,0.2c-0.4-0.1-0.7-0.6-0.8-1.6l0-0.2c0.1-0.7,0.3-1.1,0.7-1.4
			c0,0,0.1-0.6,0.2-1.8l-0.5-0.1l0.9,1.3l0.1-1.1c2.1-1.4,4.9-1.7,8.6-1c0.6-0.8,2.2-0.9,4.7-0.4c0,0.1-0.8,0-2.2-0.2
			C417.5,214.5,418.1,214.5,419.2,214.7z M397.7,267.2l0.2-0.9c-0.1,0.5-0.1,0.7,0.1,0.5l-1.4-0.3c-0.5-0.1-0.8,0.1-0.9,0.6l0,0
			l0-0.3L397.7,267.2z"/>
	</g>
	<g>
		<linearGradient id="SVGID_2_" gradientUnits="userSpaceOnUse" x1="54.2761" y1="168.5195" x2="127.2986" y2="195.0975">
			<stop  offset="0" style="stop-color:#FEC80E"/>
			<stop  offset="0.1743" style="stop-color:#FEC40D"/>
			<stop  offset="0.3646" style="stop-color:#FEB60C"/>
			<stop  offset="0.5625" style="stop-color:#FEA109"/>
			<stop  offset="0.7656" style="stop-color:#FF8205"/>
			<stop  offset="0.9708" style="stop-color:#FF5B01"/>
			<stop  offset="1" style="stop-color:#FF5500"/>
		</linearGradient>
		<path class="st8" d="M129.7,148.5c3,0.6,6.3,2.6,10.1,6.2l-0.9,0.9l0.2-0.9c0.9,0.2,1.2,1,1,2.2c-0.3,0.3-0.3,0-0.2-0.6
			c0,0,0.3,0.7,0.9,2l-0.4,0.4l0.2,0.1c-1.6,4.6-7.2,10.6-16.9,17.9c-0.7-0.1-1.6,0-2.8,0.5l-1.1-0.2c-1.3-0.2-1.9-0.6-1.8-1.1
			l1.3,0.3l-3.5,1.6c0.3-1.5-0.3-2.4-1.8-2.9l-0.1-0.1l0.1,0l-4.2-0.8c0.1-0.5-0.5-1.1-1.8-1.8l-2-6.1c1,0.2,1.8-0.5,2.3-2.1
			c0.7,0.1,1.3,0,1.7-0.4l2.2,0.4c-4.1,1-7.9,2.3-11.6,3.9c-1.2-0.2-7.1,2.9-17.9,9.3c-9.6,8.6-15.5,15.9-17.7,22l0-0.2
			c0.5,0.1,0.5,0.9,0.3,2.4c-0.5,0-0.6-0.6-0.4-1.6c0.5,0.1,0.9,1.8,1.1,5.2c0.1-0.4-0.1-0.7-0.4-0.8c0.9,0.2,5.1-0.5,12.7-1.8
			c5.7-0.1,11.5-0.8,17.6-2l3.3,0.6l-1.2,0.7l-2.7-0.5l1.1-0.3l1.9,0.4c-0.3,1.5,0,1.9,0.9,1.3l-1.5,0.3l-0.4,2.1l0.1-0.1l-2.3-0.4
			l1.5-0.5l2.4,0.5c-3.9,6-13.8,10.5-29.7,13.5c-3.2,0.5-7,0.3-11.4-0.5c-7.6-1.4-12.2-6.1-13.8-14.2c-0.2-1.6-0.1-3.5,0.3-5.8
			l0.4-1.9c2.4-12.7,15.7-25.5,39.9-38.6c12.3-5.1,23.8-8,34.5-8.8C123.7,147.9,127.2,148,129.7,148.5z"/>
		<linearGradient id="SVGID_3_" gradientUnits="userSpaceOnUse" x1="104.9656" y1="190.9139" x2="165.0341" y2="201.5056">
			<stop  offset="0" style="stop-color:#FEC80E"/>
			<stop  offset="0.3152" style="stop-color:#FEC60E"/>
			<stop  offset="0.489" style="stop-color:#FEBE0D"/>
			<stop  offset="0.6284" style="stop-color:#FEB00B"/>
			<stop  offset="0.7495" style="stop-color:#FE9C09"/>
			<stop  offset="0.8588" style="stop-color:#FF8306"/>
			<stop  offset="0.9581" style="stop-color:#FF6402"/>
			<stop  offset="1" style="stop-color:#FF5500"/>
		</linearGradient>
		<path class="st9" d="M165.1,160.2c0,0.6-0.2,0.8-0.7,0.7c0.4-0.1,0.9,0,1.5,0.1c2.2,2.1,3,4.7,2.4,7.9l-0.1,0.5
			c-5.4,16.1-8.4,25.6-9,28.3c1.4,0,2.8,0.1,4,0.3c-0.2,1.3,0.5,1.7,2.2,1.3l-5.2-1c0.8-0.1,2.4,0.1,4.8,0.5
			c-1.9,1.4-4.4,2.5-7.4,3.3c-0.9,3.3-1.6,5.9-2,7.8l-0.2,0c0.2-1.3,0.5-1.9,0.8-1.8c-6,17.7-9.2,27.2-9.4,28.6l-3-0.6l0.3-1.3
			c0.1-0.6,0.2-1.2,0.2-1.8l2,0.4l-0.7,3.1l-3-0.6l0.1-0.6c1.1,0.2,1.3,1.4,0.8,3.6l-2.9-0.5l0.2-2.2l2,0.4l-0.5,2l-2.4-0.5
			c-0.9-2-1.4-4.2-1.7-6.8l1.8,0.3l-0.1,0.6l-2.9-0.6l0.6-2.9l2,0.4l-0.4,1.2l-0.2,1.1l-2.7-0.5c-0.5-2.6-0.4-5.7,0.3-9.5
			c0.1-0.7,0.2-1.1,0.2-1.1l1.9,0.4l-0.1,0.5l-3.3-0.6l1.1-2.3l0.1-0.5l2.1,0.4c0.1-0.3-0.3,0.5-1.3,2.4l-2.8-0.5l0.3-1.5
			c0.1-0.5,0-1.1-0.1-2c1.9-6.6,2.7-9.7,2.6-9.4c-6.9,2-12,2.8-15.3,2.5c-4.1,3.6-7.8,6.2-11.2,7.6l-3.8-0.9l-0.9-0.2l-1.4,0.1
			c-0.5-1-0.8-1.2-0.9-0.6l0.4-0.1c-2-2.5-2.9-4.4-2.7-5.5l0.1-0.6c0.9-4.3,11.6-14.4,31.8-30.4c1.3-1.3,7.2-5.7,17.5-13.4
			c0.8-3.3,3.5-4.6,8.1-3.7l0.8,1.6l0.6-0.6l-2.3-0.4c0.2-0.8,1.4-1.5,3.7-2.1c0.6,0.3,0.4,0.4-0.3,0.3
			C161.6,160.9,162.8,160.7,165.1,160.2z M147.1,186.9c-0.1,0.3-3.8,3.9-11.3,10.9c0.6-0.1,2.1-0.1,4.5-0.1l-0.1,0.6l4.9-12.8
			l-0.4,1L147.1,186.9z M152,169.3c0.1-0.3-0.4,0-1.5,1l0.2-1.1l-2.2-0.4c0,0.1,0.4-0.1,1.4-0.6l-0.2,0.7L152,169.3z"/>
		<linearGradient id="SVGID_4_" gradientUnits="userSpaceOnUse" x1="152.6065" y1="204.282" x2="230.7466" y2="218.0602">
			<stop  offset="0" style="stop-color:#FEC80E"/>
			<stop  offset="0.2431" style="stop-color:#FEC50E"/>
			<stop  offset="0.4232" style="stop-color:#FEBC0C"/>
			<stop  offset="0.5829" style="stop-color:#FEAC0B"/>
			<stop  offset="0.7307" style="stop-color:#FE9508"/>
			<stop  offset="0.8691" style="stop-color:#FF7804"/>
			<stop  offset="1" style="stop-color:#FF5500"/>
		</linearGradient>
		<path class="st10" d="M183.2,156.5c0,0,0.6,0.2,1.7,0.7l2.3,0.9c0.2,0.1,0.3,0.1,0.4,0.1c0.1,0,0.3,0,0.6,0l0.5,0.4l0.3,0.1
			c0.2,0,0.9,0.3,1.9,0.8l0,0l3.5,0.9c18.3,7.1,31.9,15.6,40.8,25.2c0.5,2,0.6,3.6,0.4,4.7c-0.1,0.3-0.2,0.6-0.3,1
			c-1.7,3.6-5.5,5.7-11.3,6.1c-2.2,1.9-8.9,3.2-20.1,3.8l11.1,21.3c4,6.6,6.3,15,6.7,25.1c-0.3,0.9-0.9,1.2-1.7,1.1
			c-1.4-0.3-3.3-6.3-5.9-18.2l8.3,29.3l-3.6-4.1c-1.2-3.2-1.9-4.7-2-4.3l-0.3,1.4l-2.4-1c-1.3-0.9-7.3-9.2-17.9-24.8
			c-3.8-6.9-7.6-15-11.5-24.3l1.4,0.5c-5.7,11.7-11.9,21.9-18.7,30.6c-1.2,1.5-3.8,5.3-7.6,11.4l-2.7-1.1l1.9-3.9l1.8,1l-0.5,0.8
			l-1.3,2.5l-1.4-0.8c-1.9-0.7-2.7-4-2.4-9.9c0.5-2.6,1.7-4.8,3.5-6.6l1.7-2.1c0.1-0.8,0.5-1.1,1.2-1c0.6,0.1-0.4,2.7-2.9,7.7
			l1.5-7.9c1.2,0.2-4.5,11-16.9,32.3c8.4-18.6,12.6-28.2,12.7-28.7l-0.2,0.9c1.3,0.2,1.6,0.9,0.8,2l-1.6-5.9
			c6.5-10.9,9.8-16.5,10-16.9l0,0l1.9,1c-1.9,3.7-4.4,8-7.5,12.9l-2.7,3.3c-1.1,0.9-2,1.3-2.6,1.2c-1-0.2-1.4-0.8-1.2-1.8
			c0.3-1.8,3.6-7.5,9.8-16.9c2.1-4.3,4.7-10.4,7.7-18.3c1.5-3,2.7-5,3.6-6.1l0,0.2c-0.1,0.5-0.4,0.6-0.8,0.4c3.8-4.9,7-10,9.6-15.3
			c-2.7-1.4-6.1-5-10-10.7l8.8-1.4C182.7,156.3,183.2,156.5,183.2,156.5z M204.3,177.8l0.4-1.9c0.8,0.3,1.6,0.6,2.3,1l-0.9,2.2
			c-0.8-0.5-2.2-0.9-4.1-1.3l-2.8-0.8l0.8,0.1l0.1-0.4c-0.1,0.3-0.1,0.6-0.2,0.9l-4.3,7.8c0.1,0,0.2-0.6,0.5-1.8l-0.9-0.3
			c7.4,0.8,11.9,0.9,13.4,0.4c4.8-0.2,7.2-0.5,7.3-0.7l-0.2,0.4c-2.7-1.8-6.9-3.8-12.4-5.9L204.3,177.8z"/>
		<linearGradient id="SVGID_5_" gradientUnits="userSpaceOnUse" x1="224.3263" y1="209.5001" x2="276.3653" y2="218.676">
			<stop  offset="0" style="stop-color:#FEC80E"/>
			<stop  offset="0.272" style="stop-color:#FEC50E"/>
			<stop  offset="0.4497" style="stop-color:#FEBD0D"/>
			<stop  offset="0.6004" style="stop-color:#FEAE0B"/>
			<stop  offset="0.736" style="stop-color:#FE9908"/>
			<stop  offset="0.8616" style="stop-color:#FF7D05"/>
			<stop  offset="0.9781" style="stop-color:#FF5C01"/>
			<stop  offset="1" style="stop-color:#FF5500"/>
		</linearGradient>
		<path class="st11" d="M278.8,183.5l2.8,0.5l-0.6,1.6l-2-0.4l0,0l0.4-1.2l1.5,0.3c1,0.2,1.3,1,1,2.6c-0.4,2.3-1.9,7.6-4.5,15.9
			c-1.7,4.4-4.9,12.4-9.6,24l0.6,0.1l-0.3-1c-0.2,0.9-0.3,1.4-0.5,1.3l0.2-1c0.1-0.6,0.3-0.9,0.7-0.8c-1.1,2.3-1.8,3.8-2,4.6
			l-0.2,0.6c-0.2,0.4-0.4,0.7-0.5,0.8l0.1-0.3c0.1-0.6,0.3-0.9,0.7-0.8c-1.1,2.2-1.7,3.6-2,4.2l-1.8,4.8l-0.4,0.6l0.1,0.3
			c-0.4,1.1-1.6,2.8-3.5,5.2l0.1,6c-2.1-1.5-3.2-2.6-3.3-3.3l1.8,0.3l0.3-0.9c0.2,0.5,0.3,1,0.2,1.6c0,0.2-0.4,0.8-1.2,1.8
			c-1.5-1.7-2.3-2.7-2.4-2.7l-2.2,0.3c-3.9-0.7-5.8-3.1-5.8-7.1c0.1-0.5,0.1-1,0.2-1.4c0.2-0.8,0.4-1.6,0.6-2.2l1.1-3.1l-3.8-16
			l1.7,0.3c0,0.1-0.2,0.2-0.3,0.3l0.1-0.4c0.1-0.6,0.3-0.9,0.5-0.8c-0.5,1.5-0.8,2.3-1.1,2.3c-0.9,2.1-1.7,3.9-2.2,5.4l-2.1,5.5
			c-0.2,0.4-0.4,0.9-0.8,1.4l0-0.1c0.1-0.6,0.4-0.9,0.9-0.8l-1.3,1.9l-0.1,0.4c-1.8,4.9-3.8,7.1-6,6.7c-0.1,0-0.9-0.1-2.3-0.1
			l-0.1-0.2l0.4-0.1c-0.6-0.1-1.1-0.4-1.5-0.9l1.3-1.1l1.1,1.7c-1.5-0.1-2.9,0.4-4.1,1.5l-2.6,0.4l-2.3-0.4c-3.1-1.4-4.5-3.3-4-5.8
			c0.1-0.3,0.2-0.7,0.3-1l1.6-4.3l0.5-1c-0.2,1.3-0.6,1.8-1,1.8c13.8-24.4,22.2-38.9,25-43.5c0.1,0,0,0.2-0.2,0.6
			c-0.2-0.6-0.2-1.9,0.2-3.8l0.3-1.4c0.8,0.1,1.5-0.1,2.2-0.6c0.4,0.1,0.5,0.4,0.2,0.9l0.1-1.8c0.8,0.2,1.6-0.4,2.4-1.7l2.8,0.5
			l-0.2,0.5l-2-0.4l0.1-0.3l1.8,0.3l0.9,0.9l0,0.1l2.7,0.5c-0.1,1-0.2,1.6-0.2,1.9c-0.1,0.3,0,0.2,0.2-0.3l-2.2-0.4
			c0.3-0.9,1.2-1.3,2.6-1c1,1.1,1,4.5,0,10.2c0.9,13.7,1.4,21.3,1.3,22.8l-1.7-0.3l0.1-0.1l4.3-9.1l-0.2,1c-0.1,0.6-0.4,0.9-0.8,0.8
			c2.3-3.8,4.9-8.9,7.8-15.2l0.4,0.1c-0.1,0.1,0.6-1.1,2.1-3.8l2.9,0.5l-0.7,1.7l-0.1,0.5l-2.1-0.4l0.3-0.8c0.4-0.7,1.1-1,1.9-0.8
			l1.3,0.2c0,1.6,0,2.9-0.2,3.9c-0.1,0.8-0.2,1.1-0.2,1.1l-2-0.4C272.9,192.9,275.1,189.3,278.8,183.5z"/>
		<linearGradient id="SVGID_6_" gradientUnits="userSpaceOnUse" x1="262.3937" y1="224.9864" x2="325.0802" y2="230.4707">
			<stop  offset="0" style="stop-color:#FEC80E"/>
			<stop  offset="0.28" style="stop-color:#FEC50E"/>
			<stop  offset="0.457" style="stop-color:#FEBD0D"/>
			<stop  offset="0.6054" style="stop-color:#FEAE0B"/>
			<stop  offset="0.7381" style="stop-color:#FE9908"/>
			<stop  offset="0.8603" style="stop-color:#FF7E05"/>
			<stop  offset="0.9732" style="stop-color:#FF5E01"/>
			<stop  offset="1" style="stop-color:#FF5500"/>
		</linearGradient>
		<path class="st12" d="M324.6,190.1c0,0.6-0.2,0.8-0.7,0.7c0.4-0.1,0.9,0,1.5,0.1c2.2,2.1,3,4.7,2.4,7.9l-0.1,0.5
			c-5.4,16.1-8.4,25.6-9,28.3c1.4,0,2.8,0.1,4,0.3c-0.2,1.3,0.5,1.7,2.2,1.3l-5.2-1c0.8-0.1,2.4,0.1,4.8,0.5
			c-1.9,1.4-4.4,2.5-7.4,3.3c-0.9,3.3-1.6,5.9-2,7.8l-0.2,0c0.2-1.3,0.5-1.9,0.8-1.8c-6,17.7-9.2,27.2-9.4,28.6l-3-0.6l0.3-1.3
			c0.1-0.6,0.2-1.2,0.2-1.8l2,0.4l-0.7,3.1l-3-0.6l0.1-0.6c1.1,0.2,1.3,1.4,0.8,3.6l-2.9-0.5l0.2-2.2l2,0.4l-0.5,2l-2.4-0.5
			c-0.9-2-1.4-4.2-1.7-6.8l1.8,0.3l-0.1,0.6l-2.9-0.6l0.6-2.9l2,0.4l-0.4,1.2l-0.2,1.1l-2.7-0.5c-0.5-2.6-0.4-5.7,0.3-9.5
			c0.1-0.7,0.2-1.1,0.2-1.1l1.9,0.4l-0.1,0.5l-3.3-0.6l1.1-2.3l0.1-0.5l2.1,0.4c0.1-0.3-0.3,0.5-1.3,2.4l-2.8-0.5l0.3-1.5
			c0.1-0.5,0-1.1-0.1-2c1.9-6.6,2.7-9.7,2.6-9.4c-6.9,2-12,2.8-15.3,2.5c-4.1,3.6-7.8,6.2-11.2,7.6l-3.8-0.9l-0.9-0.2l-1.4,0.1
			c-0.5-1-0.8-1.2-0.9-0.6l0.4-0.1c-2-2.5-2.9-4.4-2.7-5.5l0.1-0.6c0.9-4.3,11.5-14.4,31.8-30.4c1.3-1.3,7.2-5.7,17.5-13.4
			c0.8-3.3,3.5-4.6,8.1-3.7l0.8,1.6l0.6-0.6l-2.3-0.4c0.2-0.8,1.4-1.5,3.7-2.1c0.6,0.3,0.4,0.4-0.3,0.3
			C321.1,190.7,322.3,190.5,324.6,190.1z M306.7,216.8c-0.1,0.3-3.8,3.9-11.3,10.9c0.6-0.1,2.1-0.1,4.5-0.1l-0.1,0.6l4.9-12.8
			l-0.4,1L306.7,216.8z M311.5,199.1c0.1-0.3-0.4,0-1.5,1l0.2-1.1l-2.2-0.4c0,0.1,0.4-0.1,1.4-0.6l-0.2,0.7L311.5,199.1z"/>
		<linearGradient id="SVGID_7_" gradientUnits="userSpaceOnUse" x1="320.907" y1="226.479" x2="386.4788" y2="232.2158">
			<stop  offset="0" style="stop-color:#FEC80E"/>
			<stop  offset="0.203" style="stop-color:#FEC40E"/>
			<stop  offset="0.3869" style="stop-color:#FEB90C"/>
			<stop  offset="0.5635" style="stop-color:#FEA70A"/>
			<stop  offset="0.7355" style="stop-color:#FF8D07"/>
			<stop  offset="0.9027" style="stop-color:#FF6C03"/>
			<stop  offset="1" style="stop-color:#FF5500"/>
		</linearGradient>
		<path class="st13" d="M381.2,200.2l-0.4,2.3c-0.8-0.2-1.7-0.1-2.6,0.1l0.3-1.5l-1.3-0.2c1.5-0.3,3-0.3,4.3,0
			c-0.2,1.2-2.1,2.6-5.6,4.1l-3.6-0.7c2.5-0.6,8-0.9,16.6-0.9l-0.3,1.4c-0.1,0.7-0.9,1-2.2,1.1l0.3-1.7l-1.2-0.2
			c1.3,0,2.4,0,3.4,0.2l-0.3,1.5c-0.8,0.6-3.5,1.5-7.9,3l0.2-1.3l5.4,1l-0.4,2.1l-1.2-0.1l0.3-1.8l-0.9-0.2l2.3,0.1l-0.4,2
			c-3.6,0.8-5.7,1.3-6.3,1.5c-0.1,0.4-2.3,0.9-6.7,1.4c-4.7,0.9-9.7,2.1-15.2,3.7c-1.6-0.3-5.4,1.8-11.2,6.2c0-0.1-0.1,0.4-0.3,1.3
			c-0.3-0.1-0.4-0.4-0.2-1l0.4,0.8c-1.1,1.4-3.4,3.9-6.9,7.3c-3.3,4-5.1,6.6-5.4,8c0,0.5,0,1.2-0.2,2.1c-0.3,0-0.3-0.4-0.2-1.1
			l0.3,0.5l-0.3,1.7c-0.6-0.1-1.2,0.6-1.6,2.1c-0.1,1.3-0.2,2-0.2,2c0.1,0,0.2,0.1,0.2,0.2c0.1,0,4.9-1.4,14.4-4.4
			c2.1-0.8,4.6-1.5,7.6-2c0.8-0.5,1.6-1.1,2.3-1.6c-0.1,0-3.3-0.3-9.4-0.8c-3.2,0.5-5.7,0.5-7.5,0.2c-1.5-0.3-3-1.2-4.4-2.7
			c0.5-0.4,0.7-0.3,0.6,0.4c0.2,0-0.3-1.1-1.2-3.5c1.2,0.2,2.2,0.1,2.9-0.4c1,0,1.7-0.2,2.2-0.4c3.2-0.2,9.6-1.3,19.3-3.4
			c5.9-0.3,11.2-1.4,15.8-3.1c0.9-0.2,3.1-0.8,6.5-2l2.4,0.2c0.4,0.8,0.7,1.1,0.7,0.9l-2-0.4l0.1-0.3l2.8,0.5
			c-0.1,0.6,0.1,1.1,0.7,1.4c0,0.2,0.3,0.7,1,1.3c-1,0.6-1.6,1.1-1.8,1.5l0.1,0.4c0,0.2,0.1,2,0.4,5.3c-2.2,4.7-4.5,8.8-7,12.3
			c-3.7,2.4-6.9,4.4-9.6,6c-2.7,1.7-7.4,3.4-14.1,5.2c-3.7,1-8.3,1.5-13.6,1.5c-3.7,0.1-6.8-0.1-9.4-0.6c0,0.1-0.6,0-1.7-0.2
			c-3.3-0.6-6.2-2.7-8.5-6.4l-2.2-2.4l-0.6,0.4c0.4,0.1,0.7-0.4,0.9-1.3c0.1-0.8,0-1.2-0.5-1.3l0.5,1.1l0.5-1.3
			c-0.2-2.1-0.3-3.8,0-5.1l0.5-2.4c0.2-0.8,0.8-3.7,1.9-8.6c9.2-17.4,17.8-27.9,25.7-31.4c6.6-1.5,13.5-2.1,20.8-1.7
			C375.4,199.4,379.5,199.9,381.2,200.2z"/>
		<linearGradient id="SVGID_8_" gradientUnits="userSpaceOnUse" x1="372.739" y1="238.8366" x2="454.5672" y2="245.9956">
			<stop  offset="0" style="stop-color:#FEC80E"/>
			<stop  offset="0.152" style="stop-color:#FEC20D"/>
			<stop  offset="0.3647" style="stop-color:#FEAF0B"/>
			<stop  offset="0.6131" style="stop-color:#FE9207"/>
			<stop  offset="0.8865" style="stop-color:#FF6802"/>
			<stop  offset="1" style="stop-color:#FF5500"/>
		</linearGradient>
		<path class="st14" d="M413.2,208.7c1.8,0.4,3.4,1.1,4.9,2.2c6.9,0.7,12.7,1.4,17.6,2.2c7.5,1.7,14,3.1,19.6,4.1l-0.1,2.3l-2.8-0.3
			l0.3-1.8l4.3,0.8c-2,1.5-4.8,2.2-8.4,2.3c-2,0.3-3.9,0.4-5.8,0.4l-0.1-1.7l8.8,2.1l0.1,2.4L448,223c0.5,0,0.7-0.2,0.8-0.6l0.2-1
			l2.4,0.5l0.2,2.1c-3.3,0.4-11.2,0.2-23.5-0.6c-3.4-0.6-6.3-1-8.5-1.5l-0.8,0.1c-0.5-0.3-0.8-0.4-1.1-0.5l-2-0.4
			c0.1,0-0.2,0.5-1,1.6c0-0.3,0.9,0.5,2.6,2.4c-1.8,0.3-2.3,0.4-1.6,0.6l-0.2-1.6l1.1,1.1c-3.6,6.4-5.4,9.8-5.5,10.1l0.2-1.1
			l3.8,0.4l0,0c0.1,0,1.4,0.2,3.8,0.7l1.3,0.3c1.1,0.2,5.6,1.5,13.5,4l1.1,0.2l0.2,2.5l-1.6-0.3l-0.1-1.8l2,0.4l-0.1,2.2
			c-4.6,0.1-7.6,0.3-8.9,0.8c-2.3-0.1-4.2-0.1-5.9-0.1l-0.1-1.7l0.5,0.1l0.1,1.8c-6.8,1.8-11.7,2.4-14.6,1.8
			c-2.4,6.3-5.4,11.8-9,16.6l0-1c2.1,0.2,4.4,0.5,7,1c9.7,2,15.4,3.2,17.1,3.5l3.4,0.6l0.2,2.5c-1.2-0.2-2.1-0.4-2.7-0.4l-0.1-1.9
			l2.1,0.4l0.1,1.2l0,0.1c-0.2,0.8-0.5,1.2-1,1.1l0.3-1.8l1.5,0.5l-0.1,2.3l-1.6-0.3c-0.2,0-0.7-0.1-1.4-0.2l0.3-1.8
			c1.8,0.3,4.3,0.9,7.4,1.6l-0.1,2.3c-2.4-0.3-3.4-0.4-2.8-0.3l0.4-1.9l2.6,0.5l-0.1,2.1c-3.2,0.2-8.3,0.2-15.1,0
			c-0.4,0.2-4.7,0.4-12.7,0.6c-2.2,0.6-8.9,0.4-20.2-0.6c-0.7-0.1-1.1-0.3-1-0.5l0,0.2c-0.6,0.9-1.3,1.3-2.2,1.1l-1.3-0.2l0-0.8
			l1.8,0.3l-0.3,0.8l-2.2-0.4c-0.8-1.5-1.2-2.5-1.2-2.9l0-0.8l-0.5-0.6l-0.1-0.9l-0.6,0.8c-0.4-0.1-1.1-0.7-2-2
			c-0.2,0-0.7-0.5-1.4-1.4l0.1-0.7l0-0.2c0.2-0.9,1.1-1.8,3-2.7c1.1-1.1,2.4-1.7,3.7-1.8c2.8-5.5,5.8-12,8.9-19.6
			c4.9-8.3,9.9-15.9,14.9-23l1.4,0.3c-1.7-0.6-2.5-1.4-2.5-2.2l-0.1,0.2c-0.4-0.1-0.7-0.6-0.8-1.6l0-0.2c0.1-0.7,0.3-1.1,0.7-1.4
			c0,0,0.1-0.6,0.2-1.8l-0.5-0.1l0.9,1.3l0.1-1.1c2.1-1.4,4.9-1.7,8.6-1c0.6-0.8,2.2-0.9,4.7-0.4c0,0.1-0.8,0-2.2-0.2
			C411.5,208.5,412.1,208.5,413.2,208.7z M391.7,261.2l0.2-0.9c-0.1,0.5-0.1,0.7,0.1,0.5l-1.4-0.3c-0.5-0.1-0.8,0.1-0.9,0.6l0,0
			l0-0.3L391.7,261.2z"/>
	</g>
</g>
</svg>
